<?xml version="1.0" encoding="UTF-8" standalone="no"?><svg xmlns="http://www.w3.org/2000/svg" xmlns:xlink="http://www.w3.org/1999/xlink" clip-rule="evenodd" stroke-miterlimit="4.00" viewBox="0 0 1024 768"><desc>SVG generated by Keynote</desc><defs></defs><g transform="matrix(1.00, 0.00, -0.00, -1.00, 0.0, 768.0)"><path d="M 0.0 768.0 L 1024.0 768.0 L 1024.0 0.0 L 0.0 0.0 Z M 0.0 768.0 " fill="#000000"></path><text xml:space="preserve" font-family="Helvetica-Light" font-size="72.0" fill="#FEFFFF" transform="matrix(1.00, 0.00, -0.00, -1.00, 94.0, 579.0)">L</text><text xml:space="preserve" font-family="Helvetica-Light" font-size="72.0" fill="#FEFFFF" transform="matrix(1.00, 0.00, -0.00, -1.00, 134.0, 579.0)">i</text><text xml:space="preserve" font-family="Helvetica-Light" font-size="72.0" fill="#FEFFFF" transform="matrix(1.00, 0.00, -0.00, -1.00, 150.0, 579.0)">n</text><text xml:space="preserve" font-family="Helvetica-Light" font-size="72.0" fill="#FEFFFF" transform="matrix(1.00, 0.00, -0.00, -1.00, 190.0, 579.0)">e</text><text xml:space="preserve" font-family="Helvetica-Light" font-size="72.0" fill="#FEFFFF" transform="matrix(1.00, 0.00, -0.00, -1.00, 230.1, 579.0)">s</text><text xml:space="preserve" font-family="Helvetica-Light" font-size="72.0" fill="#FEFFFF" transform="matrix(1.00, 0.00, -0.00, -1.00, 266.1, 579.0)"> </text><text xml:space="preserve" font-family="Helvetica-Light" font-size="72.0" fill="#FEFFFF" transform="matrix(1.00, 0.00, -0.00, -1.00, 286.1, 579.0)">s</text><text xml:space="preserve" font-family="Helvetica-Light" font-size="72.0" fill="#FEFFFF" transform="matrix(1.00, 0.00, -0.00, -1.00, 322.1, 579.0)">h</text><text xml:space="preserve" font-family="Helvetica-Light" font-size="72.0" fill="#FEFFFF" transform="matrix(1.00, 0.00, -0.00, -1.00, 362.1, 579.0)">o</text><text xml:space="preserve" font-family="Helvetica-Light" font-size="72.0" fill="#FEFFFF" transform="matrix(1.00, 0.00, -0.00, -1.00, 402.2, 579.0)">u</text><text xml:space="preserve" font-family="Helvetica-Light" font-size="72.0" fill="#FEFFFF" transform="matrix(1.00, 0.00, -0.00, -1.00, 442.2, 579.0)">l</text><text xml:space="preserve" font-family="Helvetica-Light" font-size="72.0" fill="#FEFFFF" transform="matrix(1.00, 0.00, -0.00, -1.00, 458.2, 579.0)">d</text><text xml:space="preserve" font-family="Helvetica-Light" font-size="72.0" fill="#FEFFFF" transform="matrix(1.00, 0.00, -0.00, -1.00, 502.2, 579.0)"> </text><text xml:space="preserve" font-family="Helvetica-Light" font-size="72.0" fill="#FEFFFF" transform="matrix(1.00, 0.00, -0.00, -1.00, 522.2, 579.0)">b</text><text xml:space="preserve" font-family="Helvetica-Light" font-size="72.0" fill="#FEFFFF" transform="matrix(1.00, 0.00, -0.00, -1.00, 566.2, 579.0)">e</text><text xml:space="preserve" font-family="Helvetica-Light" font-size="72.0" fill="#FEFFFF" transform="matrix(1.00, 0.00, -0.00, -1.00, 606.2, 579.0)"> </text><text xml:space="preserve" font-family="Helvetica-Light" font-size="72.0" fill="#FEFFFF" transform="matrix(1.00, 0.00, -0.00, -1.00, 626.2, 579.0)">n</text><text xml:space="preserve" font-family="Helvetica-Light" font-size="72.0" fill="#FEFFFF" transform="matrix(1.00, 0.00, -0.00, -1.00, 666.3, 579.0)">o</text><text xml:space="preserve" font-family="Helvetica-Light" font-size="72.0" fill="#FEFFFF" transform="matrix(1.00, 0.00, -0.00, -1.00, 706.3, 579.0)"> </text><text xml:space="preserve" font-family="Helvetica-Light" font-size="72.0" fill="#FEFFFF" transform="matrix(1.00, 0.00, -0.00, -1.00, 726.3, 579.0)">l</text><text xml:space="preserve" font-family="Helvetica-Light" font-size="72.0" fill="#FEFFFF" transform="matrix(1.00, 0.00, -0.00, -1.00, 742.3, 579.0)">o</text><text xml:space="preserve" font-family="Helvetica-Light" font-size="72.0" fill="#FEFFFF" transform="matrix(1.00, 0.00, -0.00, -1.00, 782.3, 579.0)">n</text><text xml:space="preserve" font-family="Helvetica-Light" font-size="72.0" fill="#FEFFFF" transform="matrix(1.00, 0.00, -0.00, -1.00, 822.4, 579.0)">g</text><text xml:space="preserve" font-family="Helvetica-Light" font-size="72.0" fill="#FEFFFF" transform="matrix(1.00, 0.00, -0.00, -1.00, 866.3, 579.0)">e</text><text xml:space="preserve" font-family="Helvetica-Light" font-size="72.0" fill="#FEFFFF" transform="matrix(1.00, 0.00, -0.00, -1.00, 906.4, 579.0)">r</text><text xml:space="preserve" font-family="Helvetica-Light" font-size="72.0" fill="#FEFFFF" transform="matrix(1.00, 0.00, -0.00, -1.00, 930.4, 579.0)"> </text><text xml:space="preserve" font-family="Helvetica-Light" font-size="72.0" fill="#FEFFFF" transform="matrix(1.00, 0.00, -0.00, -1.00, 210.0, 493.0)">t</text><text xml:space="preserve" font-family="Helvetica-Light" font-size="72.0" fill="#FEFFFF" transform="matrix(1.00, 0.00, -0.00, -1.00, 230.0, 493.0)">h</text><text xml:space="preserve" font-family="Helvetica-Light" font-size="72.0" fill="#FEFFFF" transform="matrix(1.00, 0.00, -0.00, -1.00, 270.0, 493.0)">a</text><text xml:space="preserve" font-family="Helvetica-Light" font-size="72.0" fill="#FEFFFF" transform="matrix(1.00, 0.00, -0.00, -1.00, 310.1, 493.0)">n</text><text xml:space="preserve" font-family="Helvetica-Light" font-size="72.0" fill="#FEFFFF" transform="matrix(1.00, 0.00, -0.00, -1.00, 350.1, 493.0)"> </text><text xml:space="preserve" font-family="Helvetica-Bold" font-weight="bold" font-size="72.0" fill="#FF2600" transform="matrix(1.00, 0.00, -0.00, -1.00, 370.1, 493.0)">8</text><text xml:space="preserve" font-family="Helvetica-Bold" font-weight="bold" font-size="72.0" fill="#FF2600" transform="matrix(1.00, 0.00, -0.00, -1.00, 410.2, 493.0)">0</text><text xml:space="preserve" font-family="Helvetica-Light" font-size="72.0" fill="#FEFFFF" transform="matrix(1.00, 0.00, -0.00, -1.00, 450.2, 493.0)"> </text><text xml:space="preserve" font-family="Helvetica-Light" font-size="72.0" fill="#FEFFFF" transform="matrix(1.00, 0.00, -0.00, -1.00, 470.2, 493.0)">c</text><text xml:space="preserve" font-family="Helvetica-Light" font-size="72.0" fill="#FEFFFF" transform="matrix(1.00, 0.00, -0.00, -1.00, 510.3, 493.0)">h</text><text xml:space="preserve" font-family="Helvetica-Light" font-size="72.0" fill="#FEFFFF" transform="matrix(1.00, 0.00, -0.00, -1.00, 550.3, 493.0)">a</text><text xml:space="preserve" font-family="Helvetica-Light" font-size="72.0" fill="#FEFFFF" transform="matrix(1.00, 0.00, -0.00, -1.00, 590.3, 493.0)">r</text><text xml:space="preserve" font-family="Helvetica-Light" font-size="72.0" fill="#FEFFFF" transform="matrix(1.00, 0.00, -0.00, -1.00, 614.3, 493.0)">a</text><text xml:space="preserve" font-family="Helvetica-Light" font-size="72.0" fill="#FEFFFF" transform="matrix(1.00, 0.00, -0.00, -1.00, 654.3, 493.0)">c</text><text xml:space="preserve" font-family="Helvetica-Light" font-size="72.0" fill="#FEFFFF" transform="matrix(1.00, 0.00, -0.00, -1.00, 694.4, 493.0)">t</text><text xml:space="preserve" font-family="Helvetica-Light" font-size="72.0" fill="#FEFFFF" transform="matrix(1.00, 0.00, -0.00, -1.00, 714.4, 493.0)">e</text><text xml:space="preserve" font-family="Helvetica-Light" font-size="72.0" fill="#FEFFFF" transform="matrix(1.00, 0.00, -0.00, -1.00, 754.4, 493.0)">r</text><text xml:space="preserve" font-family="Helvetica-Light" font-size="72.0" fill="#FEFFFF" transform="matrix(1.00, 0.00, -0.00, -1.00, 778.4, 493.0)">s</text><text xml:space="preserve" font-family="Helvetica-Light" font-size="72.0" fill="#FEFFFF" transform="matrix(1.00, 0.00, -0.00, -1.00, 87.0, 398.0)">a</text><text xml:space="preserve" font-family="Helvetica-Light" font-size="72.0" fill="#FEFFFF" transform="matrix(1.00, 0.00, -0.00, -1.00, 127.0, 398.0)">n</text><text xml:space="preserve" font-family="Helvetica-Light" font-size="72.0" fill="#FEFFFF" transform="matrix(1.00, 0.00, -0.00, -1.00, 167.1, 398.0)">d</text><text xml:space="preserve" font-family="Helvetica-Light" font-size="72.0" fill="#FEFFFF" transform="matrix(1.00, 0.00, -0.00, -1.00, 211.1, 398.0)"> </text><text xml:space="preserve" font-family="Helvetica-Light" font-size="72.0" fill="#FEFFFF" transform="matrix(1.00, 0.00, -0.00, -1.00, 231.1, 398.0)">m</text><text xml:space="preserve" font-family="Helvetica-Light" font-size="72.0" fill="#FEFFFF" transform="matrix(1.00, 0.00, -0.00, -1.00, 291.0, 398.0)">u</text><text xml:space="preserve" font-family="Helvetica-Light" font-size="72.0" fill="#FEFFFF" transform="matrix(1.00, 0.00, -0.00, -1.00, 331.1, 398.0)">s</text><text xml:space="preserve" font-family="Helvetica-Light" font-size="72.0" fill="#FEFFFF" transform="matrix(1.00, 0.00, -0.00, -1.00, 367.1, 398.0)">t</text><text xml:space="preserve" font-family="Helvetica-Light" font-size="72.0" fill="#FEFFFF" transform="matrix(1.00, 0.00, -0.00, -1.00, 387.1, 398.0)"> </text><text xml:space="preserve" font-family="Helvetica-Light" font-size="72.0" fill="#FEFFFF" transform="matrix(1.00, 0.00, -0.00, -1.00, 407.1, 398.0)">n</text><text xml:space="preserve" font-family="Helvetica-Light" font-size="72.0" fill="#FEFFFF" transform="matrix(1.00, 0.00, -0.00, -1.00, 447.1, 398.0)">o</text><text xml:space="preserve" font-family="Helvetica-Light" font-size="72.0" fill="#FEFFFF" transform="matrix(1.00, 0.00, -0.00, -1.00, 487.2, 398.0)">t</text><text xml:space="preserve" font-family="Helvetica-Light" font-size="72.0" fill="#FEFFFF" transform="matrix(1.00, 0.00, -0.00, -1.00, 507.2, 398.0)"> </text><text xml:space="preserve" font-family="Helvetica-Light" font-size="72.0" fill="#FEFFFF" transform="matrix(1.00, 0.00, -0.00, -1.00, 527.2, 398.0)">e</text><text xml:space="preserve" font-family="Helvetica-Light" font-size="72.0" fill="#FEFFFF" transform="matrix(1.00, 0.00, -0.00, -1.00, 567.2, 398.0)">x</text><text xml:space="preserve" font-family="Helvetica-Light" font-size="72.0" fill="#FEFFFF" transform="matrix(1.00, 0.00, -0.00, -1.00, 603.2, 398.0)">c</text><text xml:space="preserve" font-family="Helvetica-Light" font-size="72.0" fill="#FEFFFF" transform="matrix(1.00, 0.00, -0.00, -1.00, 643.3, 398.0)">e</text><text xml:space="preserve" font-family="Helvetica-Light" font-size="72.0" fill="#FEFFFF" transform="matrix(1.00, 0.00, -0.00, -1.00, 683.3, 398.0)">e</text><text xml:space="preserve" font-family="Helvetica-Light" font-size="72.0" fill="#FEFFFF" transform="matrix(1.00, 0.00, -0.00, -1.00, 723.3, 398.0)">d</text><text xml:space="preserve" font-family="Helvetica-Light" font-size="72.0" fill="#FEFFFF" transform="matrix(1.00, 0.00, -0.00, -1.00, 767.3, 398.0)"> </text><text xml:space="preserve" font-family="Helvetica-Bold" font-weight="bold" font-size="72.0" fill="#FF2600" transform="matrix(1.00, 0.00, -0.00, -1.00, 787.3, 398.0)">1</text><text xml:space="preserve" font-family="Helvetica-Bold" font-weight="bold" font-size="72.0" fill="#FF2600" transform="matrix(1.00, 0.00, -0.00, -1.00, 827.4, 398.0)">0</text><text xml:space="preserve" font-family="Helvetica-Bold" font-weight="bold" font-size="72.0" fill="#FF2600" transform="matrix(1.00, 0.00, -0.00, -1.00, 867.5, 398.0)">0</text><text xml:space="preserve" font-family="Helvetica-Light" font-size="72.0" fill="#FEFFFF" transform="matrix(1.00, 0.00, -0.00, -1.00, 52.0, 297.0)">(</text><text xml:space="preserve" font-family="Helvetica-Light" font-size="72.0" fill="#FEFFFF" transform="matrix(1.00, 0.00, -0.00, -1.00, 76.0, 297.0)">c</text><text xml:space="preserve" font-family="Helvetica-Light" font-size="72.0" fill="#FEFFFF" transform="matrix(1.00, 0.00, -0.00, -1.00, 116.0, 297.0)">o</text><text xml:space="preserve" font-family="Helvetica-Light" font-size="72.0" fill="#FEFFFF" transform="matrix(1.00, 0.00, -0.00, -1.00, 156.0, 297.0)">u</text><text xml:space="preserve" font-family="Helvetica-Light" font-size="72.0" fill="#FEFFFF" transform="matrix(1.00, 0.00, -0.00, -1.00, 196.1, 297.0)">n</text><text xml:space="preserve" font-family="Helvetica-Light" font-size="72.0" fill="#FEFFFF" transform="matrix(1.00, 0.00, -0.00, -1.00, 236.1, 297.0)">t</text><text xml:space="preserve" font-family="Helvetica-Light" font-size="72.0" fill="#FEFFFF" transform="matrix(1.00, 0.00, -0.00, -1.00, 256.1, 297.0)">i</text><text xml:space="preserve" font-family="Helvetica-Light" font-size="72.0" fill="#FEFFFF" transform="matrix(1.00, 0.00, -0.00, -1.00, 272.1, 297.0)">n</text><text xml:space="preserve" font-family="Helvetica-Light" font-size="72.0" fill="#FEFFFF" transform="matrix(1.00, 0.00, -0.00, -1.00, 312.1, 297.0)">g</text><text xml:space="preserve" font-family="Helvetica-Light" font-size="72.0" fill="#FEFFFF" transform="matrix(1.00, 0.00, -0.00, -1.00, 356.1, 297.0)"> </text><text xml:space="preserve" font-family="Helvetica-Bold" font-weight="bold" font-size="72.0" fill="#FF2600" transform="matrix(1.00, 0.00, -0.00, -1.00, 376.1, 297.0)">t</text><text xml:space="preserve" font-family="Helvetica-Bold" font-weight="bold" font-size="72.0" fill="#FF2600" transform="matrix(1.00, 0.00, -0.00, -1.00, 400.1, 297.0)">a</text><text xml:space="preserve" font-family="Helvetica-Bold" font-weight="bold" font-size="72.0" fill="#FF2600" transform="matrix(1.00, 0.00, -0.00, -1.00, 440.2, 297.0)">b</text><text xml:space="preserve" font-family="Helvetica-Bold" font-weight="bold" font-size="72.0" fill="#FF2600" transform="matrix(1.00, 0.00, -0.00, -1.00, 484.1, 297.0)">s</text><text xml:space="preserve" font-family="Helvetica-Bold" font-weight="bold" font-size="72.0" fill="#FF2600" transform="matrix(1.00, 0.00, -0.00, -1.00, 524.2, 297.0)"> </text><text xml:space="preserve" font-family="Helvetica-Bold" font-weight="bold" font-size="72.0" fill="#FF2600" transform="matrix(1.00, 0.00, -0.00, -1.00, 544.2, 297.0)">a</text><text xml:space="preserve" font-family="Helvetica-Bold" font-weight="bold" font-size="72.0" fill="#FF2600" transform="matrix(1.00, 0.00, -0.00, -1.00, 584.2, 297.0)">s</text><text xml:space="preserve" font-family="Helvetica-Bold" font-weight="bold" font-size="72.0" fill="#FF2600" transform="matrix(1.00, 0.00, -0.00, -1.00, 624.3, 297.0)"> </text><text xml:space="preserve" font-family="Helvetica-Bold" font-weight="bold" font-size="72.0" fill="#FF2600" transform="matrix(1.00, 0.00, -0.00, -1.00, 644.3, 297.0)">4</text><text xml:space="preserve" font-family="Helvetica-Bold" font-weight="bold" font-size="72.0" fill="#FF2600" transform="matrix(1.00, 0.00, -0.00, -1.00, 684.4, 297.0)"> </text><text xml:space="preserve" font-family="Helvetica-Bold" font-weight="bold" font-size="72.0" fill="#FF2600" transform="matrix(1.00, 0.00, -0.00, -1.00, 704.3, 297.0)">s</text><text xml:space="preserve" font-family="Helvetica-Bold" font-weight="bold" font-size="72.0" fill="#FF2600" transform="matrix(1.00, 0.00, -0.00, -1.00, 744.4, 297.0)">p</text><text xml:space="preserve" font-family="Helvetica-Bold" font-weight="bold" font-size="72.0" fill="#FF2600" transform="matrix(1.00, 0.00, -0.00, -1.00, 788.4, 297.0)">a</text><text xml:space="preserve" font-family="Helvetica-Bold" font-weight="bold" font-size="72.0" fill="#FF2600" transform="matrix(1.00, 0.00, -0.00, -1.00, 828.4, 297.0)">c</text><text xml:space="preserve" font-family="Helvetica-Bold" font-weight="bold" font-size="72.0" fill="#FF2600" transform="matrix(1.00, 0.00, -0.00, -1.00, 868.5, 297.0)">e</text><text xml:space="preserve" font-family="Helvetica-Bold" font-weight="bold" font-size="72.0" fill="#FF2600" transform="matrix(1.00, 0.00, -0.00, -1.00, 908.5, 297.0)">s</text><text xml:space="preserve" font-family="Helvetica-Light" font-size="72.0" fill="#FEFFFF" transform="matrix(1.00, 0.00, -0.00, -1.00, 948.5, 297.0)">)</text></g></svg>