<?xml version="1.0" encoding="UTF-8" standalone="no"?><svg xmlns="http://www.w3.org/2000/svg" xmlns:xlink="http://www.w3.org/1999/xlink" clip-rule="evenodd" stroke-miterlimit="4.00" viewBox="0 0 1024 768"><desc>SVG generated by Keynote</desc><defs></defs><g transform="matrix(1.00, 0.00, -0.00, -1.00, 0.0, 768.0)"><path d="M 0.0 768.0 L 1024.0 768.0 L 1024.0 0.0 L 0.0 0.0 Z M 0.0 768.0 " fill="#000000"></path><g><clipPath id="clip-3"><path d="M 42.0 772.0 L 982.0 772.0 L 982.0 -4.0 L 42.0 -4.0 Z M 41.9 771.6 "></path></clipPath><g clip-path="url(#clip-3)"><image xlink:href="../../DE10AE87-EF73-429F-AB3D-8F1BDC77CF04/assets/202BAFEE209AA80C274CB278F783C15F.png" width="869.00" height="540.00" transform="matrix(1.64, 0.00, -0.00, -1.64, 42.0, 831.0)"></image></g></g><path d="M 100.0 514.0 L 924.0 514.0 L 924.0 254.0 L 100.0 254.0 Z M 100.0 514.0 " fill="#FF2600"></path><g><clipPath id="clip-4"><path d="M 68.0 254.0 L 956.0 254.0 L 956.0 514.0 L 68.0 514.0 Z M 68.0 254.0 "></path></clipPath><g clip-path="url(#clip-4)"><text xml:space="preserve" font-family="Helvetica-Bold" font-weight="bold" font-size="144.0" fill="#FEFFFF" transform="matrix(1.00, 0.00, -0.00, -1.00, 248.0, 330.0)">b</text><text xml:space="preserve" font-family="Helvetica-Bold" font-weight="bold" font-size="144.0" fill="#FEFFFF" transform="matrix(1.00, 0.00, -0.00, -1.00, 335.9, 330.0)">u</text><text xml:space="preserve" font-family="Helvetica-Bold" font-weight="bold" font-size="144.0" fill="#FEFFFF" transform="matrix(1.00, 0.00, -0.00, -1.00, 423.9, 330.0)">n</text><text xml:space="preserve" font-family="Helvetica-Bold" font-weight="bold" font-size="144.0" fill="#FEFFFF" transform="matrix(1.00, 0.00, -0.00, -1.00, 511.8, 330.0)">d</text><text xml:space="preserve" font-family="Helvetica-Bold" font-weight="bold" font-size="144.0" fill="#FEFFFF" transform="matrix(1.00, 0.00, -0.00, -1.00, 599.7, 330.0)">l</text><text xml:space="preserve" font-family="Helvetica-Bold" font-weight="bold" font-size="144.0" fill="#FEFFFF" transform="matrix(1.00, 0.00, -0.00, -1.00, 639.7, 330.0)">e</text><text xml:space="preserve" font-family="Helvetica-Bold" font-weight="bold" font-size="144.0" fill="#FEFFFF" transform="matrix(1.00, 0.00, -0.00, -1.00, 719.8, 330.0)">r</text></g></g></g></svg>