<?xml version="1.0" encoding="UTF-8" standalone="no"?><svg xmlns="http://www.w3.org/2000/svg" xmlns:xlink="http://www.w3.org/1999/xlink" clip-rule="evenodd" stroke-miterlimit="4.00" viewBox="0 0 826 262"><desc>SVG generated by Keynote</desc><defs></defs><g transform="matrix(1.00, 0.00, -0.00, -1.00, 0.0, 262.0)"><path d="M 1.0 261.0 L 825.0 261.0 L 825.0 1.0 L 1.0 1.0 Z M 1.0 261.0 " fill="#FF2600"></path><g><clipPath id="clip-2"><path d="M -31.0 1.0 L 857.0 1.0 L 857.0 261.0 L -31.0 261.0 Z M -31.0 1.0 "></path></clipPath><g clip-path="url(#clip-2)"><text xml:space="preserve" font-family="Helvetica-Bold" font-weight="bold" font-size="144.0" fill="#FEFFFF" transform="matrix(1.00, 0.00, -0.00, -1.00, 149.0, 77.0)">b</text><text xml:space="preserve" font-family="Helvetica-Bold" font-weight="bold" font-size="144.0" fill="#FEFFFF" transform="matrix(1.00, 0.00, -0.00, -1.00, 236.9, 77.0)">u</text><text xml:space="preserve" font-family="Helvetica-Bold" font-weight="bold" font-size="144.0" fill="#FEFFFF" transform="matrix(1.00, 0.00, -0.00, -1.00, 324.9, 77.0)">n</text><text xml:space="preserve" font-family="Helvetica-Bold" font-weight="bold" font-size="144.0" fill="#FEFFFF" transform="matrix(1.00, 0.00, -0.00, -1.00, 412.8, 77.0)">d</text><text xml:space="preserve" font-family="Helvetica-Bold" font-weight="bold" font-size="144.0" fill="#FEFFFF" transform="matrix(1.00, 0.00, -0.00, -1.00, 500.7, 77.0)">l</text><text xml:space="preserve" font-family="Helvetica-Bold" font-weight="bold" font-size="144.0" fill="#FEFFFF" transform="matrix(1.00, 0.00, -0.00, -1.00, 540.7, 77.0)">e</text><text xml:space="preserve" font-family="Helvetica-Bold" font-weight="bold" font-size="144.0" fill="#FEFFFF" transform="matrix(1.00, 0.00, -0.00, -1.00, 620.8, 77.0)">r</text></g></g></g></svg>