<?xml version="1.0" encoding="UTF-8" standalone="no"?><svg xmlns="http://www.w3.org/2000/svg" xmlns:xlink="http://www.w3.org/1999/xlink" clip-rule="evenodd" stroke-miterlimit="4.00" viewBox="0 0 1024 768"><desc>SVG generated by Keynote</desc><defs></defs><g transform="matrix(1.00, 0.00, -0.00, -1.00, 0.0, 768.0)"><path d="M 0.0 768.0 L 1024.0 768.0 L 1024.0 0.0 L 0.0 0.0 Z M 0.0 768.0 " fill="#000000"></path><text xml:space="preserve" font-family="Helvetica-Light" font-size="100.8" fill="#FEFFFF" transform="matrix(1.00, 0.00, -0.00, -1.00, 129.0, 588.0)">C</text><text xml:space="preserve" font-family="Helvetica-Light" font-size="100.8" fill="#FEFFFF" transform="matrix(1.00, 0.00, -0.00, -1.00, 201.8, 588.0)">o</text><text xml:space="preserve" font-family="Helvetica-Light" font-size="100.8" fill="#FEFFFF" transform="matrix(1.00, 0.00, -0.00, -1.00, 257.8, 588.0)">d</text><text xml:space="preserve" font-family="Helvetica-Light" font-size="100.8" fill="#FEFFFF" transform="matrix(1.00, 0.00, -0.00, -1.00, 319.4, 588.0)">e</text><text xml:space="preserve" font-family="Helvetica-Light" font-size="100.8" fill="#FEFFFF" transform="matrix(1.00, 0.00, -0.00, -1.00, 375.5, 588.0)"> </text><text xml:space="preserve" font-family="Helvetica-Light" font-size="100.8" fill="#FEFFFF" transform="matrix(1.00, 0.00, -0.00, -1.00, 403.5, 588.0)">S</text><text xml:space="preserve" font-family="Helvetica-Light" font-size="100.8" fill="#FEFFFF" transform="matrix(1.00, 0.00, -0.00, -1.00, 465.1, 588.0)">t</text><text xml:space="preserve" font-family="Helvetica-Light" font-size="100.8" fill="#FEFFFF" transform="matrix(1.00, 0.00, -0.00, -1.00, 493.1, 588.0)">a</text><text xml:space="preserve" font-family="Helvetica-Light" font-size="100.8" fill="#FEFFFF" transform="matrix(1.00, 0.00, -0.00, -1.00, 549.1, 588.0)">n</text><text xml:space="preserve" font-family="Helvetica-Light" font-size="100.8" fill="#FEFFFF" transform="matrix(1.00, 0.00, -0.00, -1.00, 605.2, 588.0)">d</text><text xml:space="preserve" font-family="Helvetica-Light" font-size="100.8" fill="#FEFFFF" transform="matrix(1.00, 0.00, -0.00, -1.00, 666.8, 588.0)">a</text><text xml:space="preserve" font-family="Helvetica-Light" font-size="100.8" fill="#FEFFFF" transform="matrix(1.00, 0.00, -0.00, -1.00, 722.8, 588.0)">r</text><text xml:space="preserve" font-family="Helvetica-Light" font-size="100.8" fill="#FEFFFF" transform="matrix(1.00, 0.00, -0.00, -1.00, 754.6, 588.0)">d</text><text xml:space="preserve" font-family="Helvetica-Light" font-size="100.8" fill="#FEFFFF" transform="matrix(1.00, 0.00, -0.00, -1.00, 816.2, 588.0)">s</text><text xml:space="preserve" font-family="Helvetica-Light" font-size="100.8" fill="#FEFFFF" transform="matrix(1.00, 0.00, -0.00, -1.00, 866.6, 588.0)">,</text><text xml:space="preserve" font-family="Helvetica-Light" font-size="100.8" fill="#FEFFFF" transform="matrix(1.00, 0.00, -0.00, -1.00, 894.6, 588.0)"> </text><text xml:space="preserve" font-family="Helvetica-Light" font-size="100.8" fill="#FEFFFF" transform="matrix(1.00, 0.00, -0.00, -1.00, 165.0, 467.0)">S</text><text xml:space="preserve" font-family="Helvetica-Light" font-size="100.8" fill="#FEFFFF" transform="matrix(1.00, 0.00, -0.00, -1.00, 226.6, 467.0)">t</text><text xml:space="preserve" font-family="Helvetica-Light" font-size="100.8" fill="#FEFFFF" transform="matrix(1.00, 0.00, -0.00, -1.00, 254.6, 467.0)">y</text><text xml:space="preserve" font-family="Helvetica-Light" font-size="100.8" fill="#FEFFFF" transform="matrix(1.00, 0.00, -0.00, -1.00, 305.0, 467.0)">l</text><text xml:space="preserve" font-family="Helvetica-Light" font-size="100.8" fill="#FEFFFF" transform="matrix(1.00, 0.00, -0.00, -1.00, 327.4, 467.0)">e</text><text xml:space="preserve" font-family="Helvetica-Light" font-size="100.8" fill="#FEFFFF" transform="matrix(1.00, 0.00, -0.00, -1.00, 383.4, 467.0)"> </text><text xml:space="preserve" font-family="Helvetica-Light" font-size="100.8" fill="#FEFFFF" transform="matrix(1.00, 0.00, -0.00, -1.00, 411.5, 467.0)">G</text><text xml:space="preserve" font-family="Helvetica-Light" font-size="100.8" fill="#FEFFFF" transform="matrix(1.00, 0.00, -0.00, -1.00, 489.9, 467.0)">u</text><text xml:space="preserve" font-family="Helvetica-Light" font-size="100.8" fill="#FEFFFF" transform="matrix(1.00, 0.00, -0.00, -1.00, 545.9, 467.0)">i</text><text xml:space="preserve" font-family="Helvetica-Light" font-size="100.8" fill="#FEFFFF" transform="matrix(1.00, 0.00, -0.00, -1.00, 568.3, 467.0)">d</text><text xml:space="preserve" font-family="Helvetica-Light" font-size="100.8" fill="#FEFFFF" transform="matrix(1.00, 0.00, -0.00, -1.00, 629.9, 467.0)">e</text><text xml:space="preserve" font-family="Helvetica-Light" font-size="100.8" fill="#FEFFFF" transform="matrix(1.00, 0.00, -0.00, -1.00, 685.9, 467.0)">s</text><text xml:space="preserve" font-family="Helvetica-Light" font-size="100.8" fill="#FEFFFF" transform="matrix(1.00, 0.00, -0.00, -1.00, 736.3, 467.0)">,</text><text xml:space="preserve" font-family="Helvetica-Light" font-size="100.8" fill="#FEFFFF" transform="matrix(1.00, 0.00, -0.00, -1.00, 764.4, 467.0)"> </text><text xml:space="preserve" font-family="Helvetica-Light" font-size="100.8" fill="#FEFFFF" transform="matrix(1.00, 0.00, -0.00, -1.00, 792.4, 467.0)">&amp;</text><text xml:space="preserve" font-family="Helvetica-Light" font-size="100.8" fill="#FEFFFF" transform="matrix(1.00, 0.00, -0.00, -1.00, 859.6, 467.0)"> </text><text xml:space="preserve" font-family="Helvetica-Light" font-size="100.8" fill="#FEFFFF" transform="matrix(1.00, 0.00, -0.00, -1.00, 200.0, 346.0)">H</text><text xml:space="preserve" font-family="Helvetica-Light" font-size="100.8" fill="#FEFFFF" transform="matrix(1.00, 0.00, -0.00, -1.00, 272.8, 346.0)">o</text><text xml:space="preserve" font-family="Helvetica-Light" font-size="100.8" fill="#FEFFFF" transform="matrix(1.00, 0.00, -0.00, -1.00, 328.8, 346.0)">w</text><text xml:space="preserve" font-family="Helvetica-Light" font-size="100.8" fill="#FEFFFF" transform="matrix(1.00, 0.00, -0.00, -1.00, 401.6, 346.0)"> </text><text xml:space="preserve" font-family="Helvetica-Light" font-size="100.8" fill="#FEFFFF" transform="matrix(1.00, 0.00, -0.00, -1.00, 429.6, 346.0)">W</text><text xml:space="preserve" font-family="Helvetica-Light" font-size="100.8" fill="#FEFFFF" transform="matrix(1.00, 0.00, -0.00, -1.00, 517.4, 346.0)">e</text><text xml:space="preserve" font-family="Helvetica-Light" font-size="100.8" fill="#FEFFFF" transform="matrix(1.00, 0.00, -0.00, -1.00, 573.5, 346.0)">’</text><text xml:space="preserve" font-family="Helvetica-Light" font-size="100.8" fill="#FEFFFF" transform="matrix(1.00, 0.00, -0.00, -1.00, 595.8, 346.0)">r</text><text xml:space="preserve" font-family="Helvetica-Light" font-size="100.8" fill="#FEFFFF" transform="matrix(1.00, 0.00, -0.00, -1.00, 627.6, 346.0)">e</text><text xml:space="preserve" font-family="Helvetica-Light" font-size="100.8" fill="#FEFFFF" transform="matrix(1.00, 0.00, -0.00, -1.00, 683.6, 346.0)"> </text><text xml:space="preserve" font-family="Helvetica-Light" font-size="100.8" fill="#FEFFFF" transform="matrix(1.00, 0.00, -0.00, -1.00, 711.7, 346.0)">A</text><text xml:space="preserve" font-family="Helvetica-Light" font-size="100.8" fill="#FEFFFF" transform="matrix(1.00, 0.00, -0.00, -1.00, 778.9, 346.0)">l</text><text xml:space="preserve" font-family="Helvetica-Light" font-size="100.8" fill="#FEFFFF" transform="matrix(1.00, 0.00, -0.00, -1.00, 801.3, 346.0)">l</text><text xml:space="preserve" font-family="Helvetica-Light" font-size="100.8" fill="#FEFFFF" transform="matrix(1.00, 0.00, -0.00, -1.00, 823.6, 346.0)"> </text><text xml:space="preserve" font-family="Helvetica-Light" font-size="100.8" fill="#FEFFFF" transform="matrix(1.00, 0.00, -0.00, -1.00, 156.0, 225.0)">G</text><text xml:space="preserve" font-family="Helvetica-Light" font-size="100.8" fill="#FEFFFF" transform="matrix(1.00, 0.00, -0.00, -1.00, 234.4, 225.0)">o</text><text xml:space="preserve" font-family="Helvetica-Light" font-size="100.8" fill="#FEFFFF" transform="matrix(1.00, 0.00, -0.00, -1.00, 290.5, 225.0)">i</text><text xml:space="preserve" font-family="Helvetica-Light" font-size="100.8" fill="#FEFFFF" transform="matrix(1.00, 0.00, -0.00, -1.00, 312.8, 225.0)">n</text><text xml:space="preserve" font-family="Helvetica-Light" font-size="100.8" fill="#FEFFFF" transform="matrix(1.00, 0.00, -0.00, -1.00, 368.9, 225.0)">g</text><text xml:space="preserve" font-family="Helvetica-Light" font-size="100.8" fill="#FEFFFF" transform="matrix(1.00, 0.00, -0.00, -1.00, 430.5, 225.0)"> </text><text xml:space="preserve" font-family="Helvetica-Light" font-size="100.8" fill="#FEFFFF" transform="matrix(1.00, 0.00, -0.00, -1.00, 458.5, 225.0)">t</text><text xml:space="preserve" font-family="Helvetica-Light" font-size="100.8" fill="#FEFFFF" transform="matrix(1.00, 0.00, -0.00, -1.00, 486.5, 225.0)">o</text><text xml:space="preserve" font-family="Helvetica-Light" font-size="100.8" fill="#FEFFFF" transform="matrix(1.00, 0.00, -0.00, -1.00, 542.6, 225.0)"> </text><text xml:space="preserve" font-family="Helvetica-Light" font-size="100.8" fill="#FEFFFF" transform="matrix(1.00, 0.00, -0.00, -1.00, 570.6, 225.0)">B</text><text xml:space="preserve" font-family="Helvetica-Light" font-size="100.8" fill="#FEFFFF" transform="matrix(1.00, 0.00, -0.00, -1.00, 637.8, 225.0)">e</text><text xml:space="preserve" font-family="Helvetica-Light" font-size="100.8" fill="#FEFFFF" transform="matrix(1.00, 0.00, -0.00, -1.00, 693.9, 225.0)"> </text><text xml:space="preserve" font-family="Helvetica-Light" font-size="100.8" fill="#FEFFFF" transform="matrix(1.00, 0.00, -0.00, -1.00, 721.9, 225.0)">O</text><text xml:space="preserve" font-family="Helvetica-Light" font-size="100.8" fill="#FEFFFF" transform="matrix(1.00, 0.00, -0.00, -1.00, 800.3, 225.0)">K</text><text xml:space="preserve" font-family="Helvetica-Light" font-size="100.8" fill="#FEFFFF" transform="matrix(1.00, 0.00, -0.00, -1.00, 867.5, 225.0)"> </text><text xml:space="preserve" font-family="Helvetica-Light" font-size="100.8" fill="#FEFFFF" transform="matrix(1.00, 0.00, -0.00, -1.00, 204.0, 104.0)">W</text><text xml:space="preserve" font-family="Helvetica-Light" font-size="100.8" fill="#FEFFFF" transform="matrix(1.00, 0.00, -0.00, -1.00, 293.6, 104.0)">i</text><text xml:space="preserve" font-family="Helvetica-Light" font-size="100.8" fill="#FEFFFF" transform="matrix(1.00, 0.00, -0.00, -1.00, 316.0, 104.0)">t</text><text xml:space="preserve" font-family="Helvetica-Light" font-size="100.8" fill="#FEFFFF" transform="matrix(1.00, 0.00, -0.00, -1.00, 344.0, 104.0)">h</text><text xml:space="preserve" font-family="Helvetica-Light" font-size="100.8" fill="#FEFFFF" transform="matrix(1.00, 0.00, -0.00, -1.00, 400.1, 104.0)">o</text><text xml:space="preserve" font-family="Helvetica-Light" font-size="100.8" fill="#FEFFFF" transform="matrix(1.00, 0.00, -0.00, -1.00, 456.1, 104.0)">u</text><text xml:space="preserve" font-family="Helvetica-Light" font-size="100.8" fill="#FEFFFF" transform="matrix(1.00, 0.00, -0.00, -1.00, 512.1, 104.0)">t</text><text xml:space="preserve" font-family="Helvetica-Light" font-size="100.8" fill="#FEFFFF" transform="matrix(1.00, 0.00, -0.00, -1.00, 540.2, 104.0)"> </text><text xml:space="preserve" font-family="Helvetica-Light" font-size="100.8" fill="#FEFFFF" transform="matrix(1.00, 0.00, -0.00, -1.00, 568.2, 104.0)">T</text><text xml:space="preserve" font-family="Helvetica-Light" font-size="100.8" fill="#FEFFFF" transform="matrix(1.00, 0.00, -0.00, -1.00, 624.2, 104.0)">h</text><text xml:space="preserve" font-family="Helvetica-Light" font-size="100.8" fill="#FEFFFF" transform="matrix(1.00, 0.00, -0.00, -1.00, 680.3, 104.0)">e</text><text xml:space="preserve" font-family="Helvetica-Light" font-size="100.8" fill="#FEFFFF" transform="matrix(1.00, 0.00, -0.00, -1.00, 736.3, 104.0)">m</text><g><clipPath id="clip-19"><path d="M 198.0 690.0 L 860.0 690.0 L 860.0 78.0 L 198.0 78.0 Z M 198.1 690.1 "></path></clipPath><g clip-path="url(#clip-19)"><image xlink:href="../../88EC99F2-F602-40D0-842B-D8EB457A6EE1/assets/FD40C581A2F87AAA735C428E9F975EBD.png" width="653.00" height="367.00" transform="matrix(1.78, 0.00, -0.00, -1.78, -23.0, 732.0)"></image></g></g></g></svg>