<?xml version="1.0" encoding="UTF-8" standalone="no"?><svg xmlns="http://www.w3.org/2000/svg" xmlns:xlink="http://www.w3.org/1999/xlink" clip-rule="evenodd" stroke-miterlimit="4.00" viewBox="0 0 763 564"><desc>SVG generated by Keynote</desc><defs></defs><g transform="matrix(1.00, 0.00, -0.00, -1.00, 0.0, 564.0)"><text xml:space="preserve" font-family="Helvetica-Light" font-size="100.8" fill="#FEFFFF" transform="matrix(1.00, 0.00, -0.00, -1.00, -4.0, 487.0)">C</text><text xml:space="preserve" font-family="Helvetica-Light" font-size="100.8" fill="#FEFFFF" transform="matrix(1.00, 0.00, -0.00, -1.00, 68.8, 487.0)">o</text><text xml:space="preserve" font-family="Helvetica-Light" font-size="100.8" fill="#FEFFFF" transform="matrix(1.00, 0.00, -0.00, -1.00, 124.8, 487.0)">d</text><text xml:space="preserve" font-family="Helvetica-Light" font-size="100.8" fill="#FEFFFF" transform="matrix(1.00, 0.00, -0.00, -1.00, 186.4, 487.0)">e</text><text xml:space="preserve" font-family="Helvetica-Light" font-size="100.8" fill="#FEFFFF" transform="matrix(1.00, 0.00, -0.00, -1.00, 242.5, 487.0)"> </text><text xml:space="preserve" font-family="Helvetica-Light" font-size="100.8" fill="#FEFFFF" transform="matrix(1.00, 0.00, -0.00, -1.00, 270.5, 487.0)">S</text><text xml:space="preserve" font-family="Helvetica-Light" font-size="100.8" fill="#FEFFFF" transform="matrix(1.00, 0.00, -0.00, -1.00, 332.1, 487.0)">t</text><text xml:space="preserve" font-family="Helvetica-Light" font-size="100.8" fill="#FEFFFF" transform="matrix(1.00, 0.00, -0.00, -1.00, 360.1, 487.0)">a</text><text xml:space="preserve" font-family="Helvetica-Light" font-size="100.8" fill="#FEFFFF" transform="matrix(1.00, 0.00, -0.00, -1.00, 416.1, 487.0)">n</text><text xml:space="preserve" font-family="Helvetica-Light" font-size="100.8" fill="#FEFFFF" transform="matrix(1.00, 0.00, -0.00, -1.00, 472.2, 487.0)">d</text><text xml:space="preserve" font-family="Helvetica-Light" font-size="100.8" fill="#FEFFFF" transform="matrix(1.00, 0.00, -0.00, -1.00, 533.8, 487.0)">a</text><text xml:space="preserve" font-family="Helvetica-Light" font-size="100.8" fill="#FEFFFF" transform="matrix(1.00, 0.00, -0.00, -1.00, 589.8, 487.0)">r</text><text xml:space="preserve" font-family="Helvetica-Light" font-size="100.8" fill="#FEFFFF" transform="matrix(1.00, 0.00, -0.00, -1.00, 621.6, 487.0)">d</text><text xml:space="preserve" font-family="Helvetica-Light" font-size="100.8" fill="#FEFFFF" transform="matrix(1.00, 0.00, -0.00, -1.00, 683.2, 487.0)">s</text><text xml:space="preserve" font-family="Helvetica-Light" font-size="100.8" fill="#FEFFFF" transform="matrix(1.00, 0.00, -0.00, -1.00, 733.6, 487.0)">,</text><text xml:space="preserve" font-family="Helvetica-Light" font-size="100.8" fill="#FEFFFF" transform="matrix(1.00, 0.00, -0.00, -1.00, 761.6, 487.0)"> </text><text xml:space="preserve" font-family="Helvetica-Light" font-size="100.8" fill="#FEFFFF" transform="matrix(1.00, 0.00, -0.00, -1.00, 32.0, 366.0)">S</text><text xml:space="preserve" font-family="Helvetica-Light" font-size="100.8" fill="#FEFFFF" transform="matrix(1.00, 0.00, -0.00, -1.00, 93.6, 366.0)">t</text><text xml:space="preserve" font-family="Helvetica-Light" font-size="100.8" fill="#FEFFFF" transform="matrix(1.00, 0.00, -0.00, -1.00, 121.6, 366.0)">y</text><text xml:space="preserve" font-family="Helvetica-Light" font-size="100.8" fill="#FEFFFF" transform="matrix(1.00, 0.00, -0.00, -1.00, 172.0, 366.0)">l</text><text xml:space="preserve" font-family="Helvetica-Light" font-size="100.8" fill="#FEFFFF" transform="matrix(1.00, 0.00, -0.00, -1.00, 194.4, 366.0)">e</text><text xml:space="preserve" font-family="Helvetica-Light" font-size="100.8" fill="#FEFFFF" transform="matrix(1.00, 0.00, -0.00, -1.00, 250.4, 366.0)"> </text><text xml:space="preserve" font-family="Helvetica-Light" font-size="100.8" fill="#FEFFFF" transform="matrix(1.00, 0.00, -0.00, -1.00, 278.5, 366.0)">G</text><text xml:space="preserve" font-family="Helvetica-Light" font-size="100.8" fill="#FEFFFF" transform="matrix(1.00, 0.00, -0.00, -1.00, 356.9, 366.0)">u</text><text xml:space="preserve" font-family="Helvetica-Light" font-size="100.8" fill="#FEFFFF" transform="matrix(1.00, 0.00, -0.00, -1.00, 412.9, 366.0)">i</text><text xml:space="preserve" font-family="Helvetica-Light" font-size="100.8" fill="#FEFFFF" transform="matrix(1.00, 0.00, -0.00, -1.00, 435.3, 366.0)">d</text><text xml:space="preserve" font-family="Helvetica-Light" font-size="100.8" fill="#FEFFFF" transform="matrix(1.00, 0.00, -0.00, -1.00, 496.9, 366.0)">e</text><text xml:space="preserve" font-family="Helvetica-Light" font-size="100.8" fill="#FEFFFF" transform="matrix(1.00, 0.00, -0.00, -1.00, 552.9, 366.0)">s</text><text xml:space="preserve" font-family="Helvetica-Light" font-size="100.8" fill="#FEFFFF" transform="matrix(1.00, 0.00, -0.00, -1.00, 603.3, 366.0)">,</text><text xml:space="preserve" font-family="Helvetica-Light" font-size="100.8" fill="#FEFFFF" transform="matrix(1.00, 0.00, -0.00, -1.00, 631.4, 366.0)"> </text><text xml:space="preserve" font-family="Helvetica-Light" font-size="100.8" fill="#FEFFFF" transform="matrix(1.00, 0.00, -0.00, -1.00, 659.4, 366.0)">&amp;</text><text xml:space="preserve" font-family="Helvetica-Light" font-size="100.8" fill="#FEFFFF" transform="matrix(1.00, 0.00, -0.00, -1.00, 726.6, 366.0)"> </text><text xml:space="preserve" font-family="Helvetica-Light" font-size="100.8" fill="#FEFFFF" transform="matrix(1.00, 0.00, -0.00, -1.00, 67.0, 245.0)">H</text><text xml:space="preserve" font-family="Helvetica-Light" font-size="100.8" fill="#FEFFFF" transform="matrix(1.00, 0.00, -0.00, -1.00, 139.8, 245.0)">o</text><text xml:space="preserve" font-family="Helvetica-Light" font-size="100.8" fill="#FEFFFF" transform="matrix(1.00, 0.00, -0.00, -1.00, 195.8, 245.0)">w</text><text xml:space="preserve" font-family="Helvetica-Light" font-size="100.8" fill="#FEFFFF" transform="matrix(1.00, 0.00, -0.00, -1.00, 268.6, 245.0)"> </text><text xml:space="preserve" font-family="Helvetica-Light" font-size="100.8" fill="#FEFFFF" transform="matrix(1.00, 0.00, -0.00, -1.00, 296.6, 245.0)">W</text><text xml:space="preserve" font-family="Helvetica-Light" font-size="100.8" fill="#FEFFFF" transform="matrix(1.00, 0.00, -0.00, -1.00, 384.4, 245.0)">e</text><text xml:space="preserve" font-family="Helvetica-Light" font-size="100.8" fill="#FEFFFF" transform="matrix(1.00, 0.00, -0.00, -1.00, 440.5, 245.0)">’</text><text xml:space="preserve" font-family="Helvetica-Light" font-size="100.8" fill="#FEFFFF" transform="matrix(1.00, 0.00, -0.00, -1.00, 462.8, 245.0)">r</text><text xml:space="preserve" font-family="Helvetica-Light" font-size="100.8" fill="#FEFFFF" transform="matrix(1.00, 0.00, -0.00, -1.00, 494.6, 245.0)">e</text><text xml:space="preserve" font-family="Helvetica-Light" font-size="100.8" fill="#FEFFFF" transform="matrix(1.00, 0.00, -0.00, -1.00, 550.6, 245.0)"> </text><text xml:space="preserve" font-family="Helvetica-Light" font-size="100.8" fill="#FEFFFF" transform="matrix(1.00, 0.00, -0.00, -1.00, 578.7, 245.0)">A</text><text xml:space="preserve" font-family="Helvetica-Light" font-size="100.8" fill="#FEFFFF" transform="matrix(1.00, 0.00, -0.00, -1.00, 645.9, 245.0)">l</text><text xml:space="preserve" font-family="Helvetica-Light" font-size="100.8" fill="#FEFFFF" transform="matrix(1.00, 0.00, -0.00, -1.00, 668.3, 245.0)">l</text><text xml:space="preserve" font-family="Helvetica-Light" font-size="100.8" fill="#FEFFFF" transform="matrix(1.00, 0.00, -0.00, -1.00, 690.6, 245.0)"> </text><text xml:space="preserve" font-family="Helvetica-Light" font-size="100.8" fill="#FEFFFF" transform="matrix(1.00, 0.00, -0.00, -1.00, 23.0, 124.0)">G</text><text xml:space="preserve" font-family="Helvetica-Light" font-size="100.8" fill="#FEFFFF" transform="matrix(1.00, 0.00, -0.00, -1.00, 101.4, 124.0)">o</text><text xml:space="preserve" font-family="Helvetica-Light" font-size="100.8" fill="#FEFFFF" transform="matrix(1.00, 0.00, -0.00, -1.00, 157.5, 124.0)">i</text><text xml:space="preserve" font-family="Helvetica-Light" font-size="100.8" fill="#FEFFFF" transform="matrix(1.00, 0.00, -0.00, -1.00, 179.8, 124.0)">n</text><text xml:space="preserve" font-family="Helvetica-Light" font-size="100.8" fill="#FEFFFF" transform="matrix(1.00, 0.00, -0.00, -1.00, 235.9, 124.0)">g</text><text xml:space="preserve" font-family="Helvetica-Light" font-size="100.8" fill="#FEFFFF" transform="matrix(1.00, 0.00, -0.00, -1.00, 297.5, 124.0)"> </text><text xml:space="preserve" font-family="Helvetica-Light" font-size="100.8" fill="#FEFFFF" transform="matrix(1.00, 0.00, -0.00, -1.00, 325.5, 124.0)">t</text><text xml:space="preserve" font-family="Helvetica-Light" font-size="100.8" fill="#FEFFFF" transform="matrix(1.00, 0.00, -0.00, -1.00, 353.5, 124.0)">o</text><text xml:space="preserve" font-family="Helvetica-Light" font-size="100.8" fill="#FEFFFF" transform="matrix(1.00, 0.00, -0.00, -1.00, 409.6, 124.0)"> </text><text xml:space="preserve" font-family="Helvetica-Light" font-size="100.8" fill="#FEFFFF" transform="matrix(1.00, 0.00, -0.00, -1.00, 437.6, 124.0)">B</text><text xml:space="preserve" font-family="Helvetica-Light" font-size="100.8" fill="#FEFFFF" transform="matrix(1.00, 0.00, -0.00, -1.00, 504.8, 124.0)">e</text><text xml:space="preserve" font-family="Helvetica-Light" font-size="100.8" fill="#FEFFFF" transform="matrix(1.00, 0.00, -0.00, -1.00, 560.9, 124.0)"> </text><text xml:space="preserve" font-family="Helvetica-Light" font-size="100.8" fill="#FEFFFF" transform="matrix(1.00, 0.00, -0.00, -1.00, 588.9, 124.0)">O</text><text xml:space="preserve" font-family="Helvetica-Light" font-size="100.8" fill="#FEFFFF" transform="matrix(1.00, 0.00, -0.00, -1.00, 667.3, 124.0)">K</text><text xml:space="preserve" font-family="Helvetica-Light" font-size="100.8" fill="#FEFFFF" transform="matrix(1.00, 0.00, -0.00, -1.00, 734.5, 124.0)"> </text><text xml:space="preserve" font-family="Helvetica-Light" font-size="100.8" fill="#FEFFFF" transform="matrix(1.00, 0.00, -0.00, -1.00, 71.0, 3.0)">W</text><text xml:space="preserve" font-family="Helvetica-Light" font-size="100.8" fill="#FEFFFF" transform="matrix(1.00, 0.00, -0.00, -1.00, 160.6, 3.0)">i</text><text xml:space="preserve" font-family="Helvetica-Light" font-size="100.8" fill="#FEFFFF" transform="matrix(1.00, 0.00, -0.00, -1.00, 183.0, 3.0)">t</text><text xml:space="preserve" font-family="Helvetica-Light" font-size="100.8" fill="#FEFFFF" transform="matrix(1.00, 0.00, -0.00, -1.00, 211.0, 3.0)">h</text><text xml:space="preserve" font-family="Helvetica-Light" font-size="100.8" fill="#FEFFFF" transform="matrix(1.00, 0.00, -0.00, -1.00, 267.1, 3.0)">o</text><text xml:space="preserve" font-family="Helvetica-Light" font-size="100.8" fill="#FEFFFF" transform="matrix(1.00, 0.00, -0.00, -1.00, 323.1, 3.0)">u</text><text xml:space="preserve" font-family="Helvetica-Light" font-size="100.8" fill="#FEFFFF" transform="matrix(1.00, 0.00, -0.00, -1.00, 379.1, 3.0)">t</text><text xml:space="preserve" font-family="Helvetica-Light" font-size="100.8" fill="#FEFFFF" transform="matrix(1.00, 0.00, -0.00, -1.00, 407.2, 3.0)"> </text><text xml:space="preserve" font-family="Helvetica-Light" font-size="100.8" fill="#FEFFFF" transform="matrix(1.00, 0.00, -0.00, -1.00, 435.2, 3.0)">T</text><text xml:space="preserve" font-family="Helvetica-Light" font-size="100.8" fill="#FEFFFF" transform="matrix(1.00, 0.00, -0.00, -1.00, 491.2, 3.0)">h</text><text xml:space="preserve" font-family="Helvetica-Light" font-size="100.8" fill="#FEFFFF" transform="matrix(1.00, 0.00, -0.00, -1.00, 547.3, 3.0)">e</text><text xml:space="preserve" font-family="Helvetica-Light" font-size="100.8" fill="#FEFFFF" transform="matrix(1.00, 0.00, -0.00, -1.00, 603.3, 3.0)">m</text></g></svg>