<?xml version="1.0" encoding="UTF-8" standalone="no"?><svg xmlns="http://www.w3.org/2000/svg" xmlns:xlink="http://www.w3.org/1999/xlink" clip-rule="evenodd" stroke-miterlimit="4.00" viewBox="0 0 1024 768"><desc>SVG generated by Keynote</desc><defs></defs><g transform="matrix(1.00, 0.00, -0.00, -1.00, 0.0, 768.0)"><path d="M 0.0 768.0 L 1024.0 768.0 L 1024.0 0.0 L 0.0 0.0 Z M 0.0 768.0 " fill="#000000"></path><text xml:space="preserve" font-family="Helvetica-Light" font-size="89.3" fill="#FEFFFF" transform="matrix(1.00, 0.00, -0.00, -1.00, 151.0, 405.0)">C</text><text xml:space="preserve" font-family="Helvetica-Light" font-size="89.3" fill="#FEFFFF" transform="matrix(1.00, 0.00, -0.00, -1.00, 215.5, 405.0)">o</text><text xml:space="preserve" font-family="Helvetica-Light" font-size="89.3" fill="#FEFFFF" transform="matrix(1.00, 0.00, -0.00, -1.00, 265.1, 405.0)">d</text><text xml:space="preserve" font-family="Helvetica-Light" font-size="89.3" fill="#FEFFFF" transform="matrix(1.00, 0.00, -0.00, -1.00, 319.6, 405.0)">e</text><text xml:space="preserve" font-family="Helvetica-Light" font-size="89.3" fill="#FEFFFF" transform="matrix(1.00, 0.00, -0.00, -1.00, 369.3, 405.0)"> </text><text xml:space="preserve" font-family="Helvetica-Light" font-size="89.3" fill="#FEFFFF" transform="matrix(1.00, 0.00, -0.00, -1.00, 394.1, 405.0)">“</text><text xml:space="preserve" font-family="Helvetica-Light" font-size="89.3" fill="#FEFFFF" transform="matrix(1.00, 0.00, -0.00, -1.00, 428.8, 405.0)">S</text><text xml:space="preserve" font-family="Helvetica-Light" font-size="89.3" fill="#FEFFFF" transform="matrix(1.00, 0.00, -0.00, -1.00, 483.4, 405.0)">t</text><text xml:space="preserve" font-family="Helvetica-Light" font-size="89.3" fill="#FEFFFF" transform="matrix(1.00, 0.00, -0.00, -1.00, 508.2, 405.0)">a</text><text xml:space="preserve" font-family="Helvetica-Light" font-size="89.3" fill="#FEFFFF" transform="matrix(1.00, 0.00, -0.00, -1.00, 557.8, 405.0)">n</text><text xml:space="preserve" font-family="Helvetica-Light" font-size="89.3" fill="#FEFFFF" transform="matrix(1.00, 0.00, -0.00, -1.00, 607.5, 405.0)">d</text><text xml:space="preserve" font-family="Helvetica-Light" font-size="89.3" fill="#FEFFFF" transform="matrix(1.00, 0.00, -0.00, -1.00, 662.0, 405.0)">a</text><text xml:space="preserve" font-family="Helvetica-Light" font-size="89.3" fill="#FEFFFF" transform="matrix(1.00, 0.00, -0.00, -1.00, 711.7, 405.0)">r</text><text xml:space="preserve" font-family="Helvetica-Light" font-size="89.3" fill="#FEFFFF" transform="matrix(1.00, 0.00, -0.00, -1.00, 739.8, 405.0)">d</text><text xml:space="preserve" font-family="Helvetica-Light" font-size="89.3" fill="#FEFFFF" transform="matrix(1.00, 0.00, -0.00, -1.00, 794.4, 405.0)">s</text><text xml:space="preserve" font-family="Helvetica-Light" font-size="89.3" fill="#FEFFFF" transform="matrix(1.00, 0.00, -0.00, -1.00, 839.0, 405.0)">”</text><text xml:space="preserve" font-family="Helvetica-Light" font-size="89.3" fill="#FEFFFF" transform="matrix(1.00, 0.00, -0.00, -1.00, 873.7, 405.0)"> </text><text xml:space="preserve" font-family="Helvetica-Light" font-size="89.3" fill="#FEFFFF" transform="matrix(1.00, 0.00, -0.00, -1.00, 105.0, 297.0)">w</text><text xml:space="preserve" font-family="Helvetica-Light" font-size="89.3" fill="#FEFFFF" transform="matrix(1.00, 0.00, -0.00, -1.00, 169.5, 297.0)">i</text><text xml:space="preserve" font-family="Helvetica-Light" font-size="89.3" fill="#FEFFFF" transform="matrix(1.00, 0.00, -0.00, -1.00, 189.3, 297.0)">t</text><text xml:space="preserve" font-family="Helvetica-Light" font-size="89.3" fill="#FEFFFF" transform="matrix(1.00, 0.00, -0.00, -1.00, 214.1, 297.0)">h</text><text xml:space="preserve" font-family="Helvetica-Light" font-size="89.3" fill="#FEFFFF" transform="matrix(1.00, 0.00, -0.00, -1.00, 263.7, 297.0)">o</text><text xml:space="preserve" font-family="Helvetica-Light" font-size="89.3" fill="#FEFFFF" transform="matrix(1.00, 0.00, -0.00, -1.00, 313.4, 297.0)">u</text><text xml:space="preserve" font-family="Helvetica-Light" font-size="89.3" fill="#FEFFFF" transform="matrix(1.00, 0.00, -0.00, -1.00, 363.0, 297.0)">t</text><text xml:space="preserve" font-family="Helvetica-Light" font-size="89.3" fill="#FEFFFF" transform="matrix(1.00, 0.00, -0.00, -1.00, 387.8, 297.0)"> </text><text xml:space="preserve" font-family="Helvetica-Light" font-size="89.3" fill="#FEFFFF" transform="matrix(1.00, 0.00, -0.00, -1.00, 412.7, 297.0)">S</text><text xml:space="preserve" font-family="Helvetica-Light" font-size="89.3" fill="#FEFFFF" transform="matrix(1.00, 0.00, -0.00, -1.00, 467.2, 297.0)">t</text><text xml:space="preserve" font-family="Helvetica-Light" font-size="89.3" fill="#FEFFFF" transform="matrix(1.00, 0.00, -0.00, -1.00, 492.0, 297.0)">y</text><text xml:space="preserve" font-family="Helvetica-Light" font-size="89.3" fill="#FEFFFF" transform="matrix(1.00, 0.00, -0.00, -1.00, 536.7, 297.0)">l</text><text xml:space="preserve" font-family="Helvetica-Light" font-size="89.3" fill="#FEFFFF" transform="matrix(1.00, 0.00, -0.00, -1.00, 556.5, 297.0)">e</text><text xml:space="preserve" font-family="Helvetica-Light" font-size="89.3" fill="#FEFFFF" transform="matrix(1.00, 0.00, -0.00, -1.00, 606.1, 297.0)"> </text><text xml:space="preserve" font-family="Helvetica-Light" font-size="89.3" fill="#FEFFFF" transform="matrix(1.00, 0.00, -0.00, -1.00, 630.9, 297.0)">G</text><text xml:space="preserve" font-family="Helvetica-Light" font-size="89.3" fill="#FEFFFF" transform="matrix(1.00, 0.00, -0.00, -1.00, 700.4, 297.0)">u</text><text xml:space="preserve" font-family="Helvetica-Light" font-size="89.3" fill="#FEFFFF" transform="matrix(1.00, 0.00, -0.00, -1.00, 750.0, 297.0)">i</text><text xml:space="preserve" font-family="Helvetica-Light" font-size="89.3" fill="#FEFFFF" transform="matrix(1.00, 0.00, -0.00, -1.00, 769.9, 297.0)">d</text><text xml:space="preserve" font-family="Helvetica-Light" font-size="89.3" fill="#FEFFFF" transform="matrix(1.00, 0.00, -0.00, -1.00, 824.4, 297.0)">e</text><text xml:space="preserve" font-family="Helvetica-Light" font-size="89.3" fill="#FEFFFF" transform="matrix(1.00, 0.00, -0.00, -1.00, 874.1, 297.0)">s</text></g></svg>