<?xml version="1.0" encoding="UTF-8" standalone="no"?><svg xmlns="http://www.w3.org/2000/svg" xmlns:xlink="http://www.w3.org/1999/xlink" clip-rule="evenodd" stroke-miterlimit="4.00" viewBox="0 0 926 56"><desc>SVG generated by Keynote</desc><defs></defs><g transform="matrix(1.00, 0.00, -0.00, -1.00, 0.0, 56.0)"><text xml:space="preserve" font-family="Helvetica-Light" font-size="41.2" fill="#FEFFFF" transform="matrix(1.00, 0.00, -0.00, -1.00, 0.5, 19.0)">•</text><text xml:space="preserve" font-family="Helvetica-Light" font-size="55.0" fill="#FEFFFF" transform="matrix(1.00, 0.00, -0.00, -1.00, 34.0, 14.0)">D</text><text xml:space="preserve" font-family="Helvetica-Light" font-size="55.0" fill="#FEFFFF" transform="matrix(1.00, 0.00, -0.00, -1.00, 73.7, 14.0)">i</text><text xml:space="preserve" font-family="Helvetica-Light" font-size="55.0" fill="#FEFFFF" transform="matrix(1.00, 0.00, -0.00, -1.00, 85.9, 14.0)">s</text><text xml:space="preserve" font-family="Helvetica-Light" font-size="55.0" fill="#FEFFFF" transform="matrix(1.00, 0.00, -0.00, -1.00, 113.4, 14.0)">c</text><text xml:space="preserve" font-family="Helvetica-Light" font-size="55.0" fill="#FEFFFF" transform="matrix(1.00, 0.00, -0.00, -1.00, 144.0, 14.0)">u</text><text xml:space="preserve" font-family="Helvetica-Light" font-size="55.0" fill="#FEFFFF" transform="matrix(1.00, 0.00, -0.00, -1.00, 174.6, 14.0)">s</text><text xml:space="preserve" font-family="Helvetica-Light" font-size="55.0" fill="#FEFFFF" transform="matrix(1.00, 0.00, -0.00, -1.00, 202.1, 14.0)">s</text><text xml:space="preserve" font-family="Helvetica-Light" font-size="55.0" fill="#FEFFFF" transform="matrix(1.00, 0.00, -0.00, -1.00, 229.6, 14.0)"> </text><text xml:space="preserve" font-family="Helvetica-Light" font-size="55.0" fill="#FEFFFF" transform="matrix(1.00, 0.00, -0.00, -1.00, 244.9, 14.0)">d</text><text xml:space="preserve" font-family="Helvetica-Light" font-size="55.0" fill="#FEFFFF" transform="matrix(1.00, 0.00, -0.00, -1.00, 278.5, 14.0)">e</text><text xml:space="preserve" font-family="Helvetica-Light" font-size="55.0" fill="#FEFFFF" transform="matrix(1.00, 0.00, -0.00, -1.00, 309.1, 14.0)">m</text><text xml:space="preserve" font-family="Helvetica-Light" font-size="55.0" fill="#FEFFFF" transform="matrix(1.00, 0.00, -0.00, -1.00, 354.9, 14.0)">o</text><text xml:space="preserve" font-family="Helvetica-Light" font-size="55.0" fill="#FEFFFF" transform="matrix(1.00, 0.00, -0.00, -1.00, 385.4, 14.0)">c</text><text xml:space="preserve" font-family="Helvetica-Light" font-size="55.0" fill="#FEFFFF" transform="matrix(1.00, 0.00, -0.00, -1.00, 416.0, 14.0)">r</text><text xml:space="preserve" font-family="Helvetica-Light" font-size="55.0" fill="#FEFFFF" transform="matrix(1.00, 0.00, -0.00, -1.00, 434.3, 14.0)">a</text><text xml:space="preserve" font-family="Helvetica-Light" font-size="55.0" fill="#FEFFFF" transform="matrix(1.00, 0.00, -0.00, -1.00, 464.9, 14.0)">t</text><text xml:space="preserve" font-family="Helvetica-Light" font-size="55.0" fill="#FEFFFF" transform="matrix(1.00, 0.00, -0.00, -1.00, 480.2, 14.0)">i</text><text xml:space="preserve" font-family="Helvetica-Light" font-size="55.0" fill="#FEFFFF" transform="matrix(1.00, 0.00, -0.00, -1.00, 492.4, 14.0)">c</text><text xml:space="preserve" font-family="Helvetica-Light" font-size="55.0" fill="#FEFFFF" transform="matrix(1.00, 0.00, -0.00, -1.00, 523.0, 14.0)">a</text><text xml:space="preserve" font-family="Helvetica-Light" font-size="55.0" fill="#FEFFFF" transform="matrix(1.00, 0.00, -0.00, -1.00, 553.6, 14.0)">l</text><text xml:space="preserve" font-family="Helvetica-Light" font-size="55.0" fill="#FEFFFF" transform="matrix(1.00, 0.00, -0.00, -1.00, 565.8, 14.0)">l</text><text xml:space="preserve" font-family="Helvetica-Light" font-size="55.0" fill="#FEFFFF" transform="matrix(1.00, 0.00, -0.00, -1.00, 578.0, 14.0)">y</text><text xml:space="preserve" font-family="Helvetica-Light" font-size="55.0" fill="#FEFFFF" transform="matrix(1.00, 0.00, -0.00, -1.00, 600.4, 14.0)">.</text><text xml:space="preserve" font-family="Helvetica-Light" font-size="55.0" fill="#FEFFFF" transform="matrix(1.00, 0.00, -0.00, -1.00, 615.7, 14.0)"> </text><text xml:space="preserve" font-family="Helvetica-Light" font-size="55.0" fill="#FEFFFF" transform="matrix(1.00, 0.00, -0.00, -1.00, 631.0, 14.0)">D</text><text xml:space="preserve" font-family="Helvetica-Light" font-size="55.0" fill="#FEFFFF" transform="matrix(1.00, 0.00, -0.00, -1.00, 670.7, 14.0)">o</text><text xml:space="preserve" font-family="Helvetica-Light" font-size="55.0" fill="#FEFFFF" transform="matrix(1.00, 0.00, -0.00, -1.00, 701.3, 14.0)">n</text><text xml:space="preserve" font-family="Helvetica-Light" font-size="55.0" fill="#FEFFFF" transform="matrix(1.00, 0.00, -0.00, -1.00, 731.9, 14.0)">’</text><text xml:space="preserve" font-family="Helvetica-Light" font-size="55.0" fill="#FEFFFF" transform="matrix(1.00, 0.00, -0.00, -1.00, 743.1, 14.0)">t</text><text xml:space="preserve" font-family="Helvetica-Light" font-size="55.0" fill="#FEFFFF" transform="matrix(1.00, 0.00, -0.00, -1.00, 758.4, 14.0)"> </text><text xml:space="preserve" font-family="Helvetica-Light" font-size="55.0" fill="#FEFFFF" transform="matrix(1.00, 0.00, -0.00, -1.00, 773.7, 14.0)">j</text><text xml:space="preserve" font-family="Helvetica-Light" font-size="55.0" fill="#FEFFFF" transform="matrix(1.00, 0.00, -0.00, -1.00, 785.9, 14.0)">u</text><text xml:space="preserve" font-family="Helvetica-Light" font-size="55.0" fill="#FEFFFF" transform="matrix(1.00, 0.00, -0.00, -1.00, 816.5, 14.0)">d</text><text xml:space="preserve" font-family="Helvetica-Light" font-size="55.0" fill="#FEFFFF" transform="matrix(1.00, 0.00, -0.00, -1.00, 850.1, 14.0)">g</text><text xml:space="preserve" font-family="Helvetica-Light" font-size="55.0" fill="#FEFFFF" transform="matrix(1.00, 0.00, -0.00, -1.00, 883.7, 14.0)">e</text><text xml:space="preserve" font-family="Helvetica-Light" font-size="55.0" fill="#FEFFFF" transform="matrix(1.00, 0.00, -0.00, -1.00, 914.3, 14.0)">.</text></g></svg>