<?xml version="1.0" encoding="UTF-8" standalone="no"?><svg xmlns="http://www.w3.org/2000/svg" xmlns:xlink="http://www.w3.org/1999/xlink" clip-rule="evenodd" stroke-miterlimit="4.00" viewBox="0 0 793 57"><desc>SVG generated by Keynote</desc><defs></defs><g transform="matrix(1.00, 0.00, -0.00, -1.00, 0.0, 57.0)"><text xml:space="preserve" font-family="Helvetica-Light" font-size="41.2" fill="#FEFFFF" transform="matrix(1.00, 0.00, -0.00, -1.00, 0.5, 19.0)">•</text><text xml:space="preserve" font-family="Helvetica-Light" font-size="55.0" fill="#FEFFFF" transform="matrix(1.00, 0.00, -0.00, -1.00, 34.0, 14.0)">I</text><text xml:space="preserve" font-family="Helvetica-Light" font-size="55.0" fill="#FEFFFF" transform="matrix(1.00, 0.00, -0.00, -1.00, 49.3, 14.0)">t</text><text xml:space="preserve" font-family="Helvetica-Light" font-size="55.0" fill="#FEFFFF" transform="matrix(1.00, 0.00, -0.00, -1.00, 64.6, 14.0)">’</text><text xml:space="preserve" font-family="Helvetica-Light" font-size="55.0" fill="#FEFFFF" transform="matrix(1.00, 0.00, -0.00, -1.00, 72.7, 14.0)">s</text><text xml:space="preserve" font-family="Helvetica-Light" font-size="55.0" fill="#FEFFFF" transform="matrix(1.00, 0.00, -0.00, -1.00, 100.2, 14.0)"> </text><text xml:space="preserve" font-family="Helvetica-Light" font-size="55.0" fill="#FEFFFF" transform="matrix(1.00, 0.00, -0.00, -1.00, 115.5, 14.0)">O</text><text xml:space="preserve" font-family="Helvetica-Light" font-size="55.0" fill="#FEFFFF" transform="matrix(1.00, 0.00, -0.00, -1.00, 158.3, 14.0)">K</text><text xml:space="preserve" font-family="Helvetica-Light" font-size="55.0" fill="#FEFFFF" transform="matrix(1.00, 0.00, -0.00, -1.00, 195.0, 14.0)"> </text><text xml:space="preserve" font-family="Helvetica-Light" font-size="55.0" fill="#FEFFFF" transform="matrix(1.00, 0.00, -0.00, -1.00, 210.3, 14.0)">t</text><text xml:space="preserve" font-family="Helvetica-Light" font-size="55.0" fill="#FEFFFF" transform="matrix(1.00, 0.00, -0.00, -1.00, 225.6, 14.0)">o</text><text xml:space="preserve" font-family="Helvetica-Light" font-size="55.0" fill="#FEFFFF" transform="matrix(1.00, 0.00, -0.00, -1.00, 256.1, 14.0)"> </text><text xml:space="preserve" font-family="Helvetica-Light" font-size="55.0" fill="#FEFFFF" transform="matrix(1.00, 0.00, -0.00, -1.00, 271.4, 14.0)">b</text><text xml:space="preserve" font-family="Helvetica-Light" font-size="55.0" fill="#FEFFFF" transform="matrix(1.00, 0.00, -0.00, -1.00, 305.0, 14.0)">e</text><text xml:space="preserve" font-family="Helvetica-Light" font-size="55.0" fill="#FEFFFF" transform="matrix(1.00, 0.00, -0.00, -1.00, 335.6, 14.0)"> </text><text xml:space="preserve" font-family="Helvetica-Light" font-size="55.0" fill="#FEFFFF" transform="matrix(1.00, 0.00, -0.00, -1.00, 350.9, 14.0)">d</text><text xml:space="preserve" font-family="Helvetica-Light" font-size="55.0" fill="#FEFFFF" transform="matrix(1.00, 0.00, -0.00, -1.00, 384.5, 14.0)">i</text><text xml:space="preserve" font-family="Helvetica-Light" font-size="55.0" fill="#FEFFFF" transform="matrix(1.00, 0.00, -0.00, -1.00, 396.7, 14.0)">f</text><text xml:space="preserve" font-family="Helvetica-Light" font-size="55.0" fill="#FEFFFF" transform="matrix(1.00, 0.00, -0.00, -1.00, 411.0, 14.0)">f</text><text xml:space="preserve" font-family="Helvetica-Light" font-size="55.0" fill="#FEFFFF" transform="matrix(1.00, 0.00, -0.00, -1.00, 426.3, 14.0)">e</text><text xml:space="preserve" font-family="Helvetica-Light" font-size="55.0" fill="#FEFFFF" transform="matrix(1.00, 0.00, -0.00, -1.00, 456.9, 14.0)">r</text><text xml:space="preserve" font-family="Helvetica-Light" font-size="55.0" fill="#FEFFFF" transform="matrix(1.00, 0.00, -0.00, -1.00, 474.2, 14.0)">e</text><text xml:space="preserve" font-family="Helvetica-Light" font-size="55.0" fill="#FEFFFF" transform="matrix(1.00, 0.00, -0.00, -1.00, 504.8, 14.0)">n</text><text xml:space="preserve" font-family="Helvetica-Light" font-size="55.0" fill="#FEFFFF" transform="matrix(1.00, 0.00, -0.00, -1.00, 535.4, 14.0)">t</text><text xml:space="preserve" font-family="Helvetica-Light" font-size="55.0" fill="#FEFFFF" transform="matrix(1.00, 0.00, -0.00, -1.00, 550.7, 14.0)">/</text><text xml:space="preserve" font-family="Helvetica-Light" font-size="55.0" fill="#FEFFFF" transform="matrix(1.00, 0.00, -0.00, -1.00, 566.0, 14.0)">d</text><text xml:space="preserve" font-family="Helvetica-Light" font-size="55.0" fill="#FEFFFF" transform="matrix(1.00, 0.00, -0.00, -1.00, 599.6, 14.0)">i</text><text xml:space="preserve" font-family="Helvetica-Light" font-size="55.0" fill="#FEFFFF" transform="matrix(1.00, 0.00, -0.00, -1.00, 611.8, 14.0)">s</text><text xml:space="preserve" font-family="Helvetica-Light" font-size="55.0" fill="#FEFFFF" transform="matrix(1.00, 0.00, -0.00, -1.00, 639.3, 14.0)">a</text><text xml:space="preserve" font-family="Helvetica-Light" font-size="55.0" fill="#FEFFFF" transform="matrix(1.00, 0.00, -0.00, -1.00, 669.9, 14.0)">g</text><text xml:space="preserve" font-family="Helvetica-Light" font-size="55.0" fill="#FEFFFF" transform="matrix(1.00, 0.00, -0.00, -1.00, 703.5, 14.0)">r</text><text xml:space="preserve" font-family="Helvetica-Light" font-size="55.0" fill="#FEFFFF" transform="matrix(1.00, 0.00, -0.00, -1.00, 720.8, 14.0)">e</text><text xml:space="preserve" font-family="Helvetica-Light" font-size="55.0" fill="#FEFFFF" transform="matrix(1.00, 0.00, -0.00, -1.00, 751.4, 14.0)">e</text><text xml:space="preserve" font-family="Helvetica-Light" font-size="55.0" fill="#FEFFFF" transform="matrix(1.00, 0.00, -0.00, -1.00, 781.9, 14.0)">.</text></g></svg>