<?xml version="1.0" encoding="UTF-8" standalone="no"?><svg xmlns="http://www.w3.org/2000/svg" xmlns:xlink="http://www.w3.org/1999/xlink" clip-rule="evenodd" stroke-miterlimit="4.00" viewBox="0 0 405 50"><desc>SVG generated by Keynote</desc><defs></defs><g transform="matrix(1.00, 0.00, -0.00, -1.00, 0.0, 50.0)"><text xml:space="preserve" font-family="Helvetica-Light" font-size="41.2" fill="#FEFFFF" transform="matrix(1.00, 0.00, -0.00, -1.00, 0.5, 12.0)">•</text><text xml:space="preserve" font-family="Helvetica-Light" font-size="55.0" fill="#FEFFFF" transform="matrix(1.00, 0.00, -0.00, -1.00, 34.0, 7.0)">G</text><text xml:space="preserve" font-family="Helvetica-Light" font-size="55.0" fill="#FEFFFF" transform="matrix(1.00, 0.00, -0.00, -1.00, 76.8, 7.0)">e</text><text xml:space="preserve" font-family="Helvetica-Light" font-size="55.0" fill="#FEFFFF" transform="matrix(1.00, 0.00, -0.00, -1.00, 107.4, 7.0)">t</text><text xml:space="preserve" font-family="Helvetica-Light" font-size="55.0" fill="#FEFFFF" transform="matrix(1.00, 0.00, -0.00, -1.00, 122.7, 7.0)"> </text><text xml:space="preserve" font-family="Helvetica-Light" font-size="55.0" fill="#FEFFFF" transform="matrix(1.00, 0.00, -0.00, -1.00, 138.0, 7.0)">S</text><text xml:space="preserve" font-family="Helvetica-Light" font-size="55.0" fill="#FEFFFF" transform="matrix(1.00, 0.00, -0.00, -1.00, 171.6, 7.0)">t</text><text xml:space="preserve" font-family="Helvetica-Light" font-size="55.0" fill="#FEFFFF" transform="matrix(1.00, 0.00, -0.00, -1.00, 186.8, 7.0)">u</text><text xml:space="preserve" font-family="Helvetica-Light" font-size="55.0" fill="#FEFFFF" transform="matrix(1.00, 0.00, -0.00, -1.00, 217.4, 7.0)">f</text><text xml:space="preserve" font-family="Helvetica-Light" font-size="55.0" fill="#FEFFFF" transform="matrix(1.00, 0.00, -0.00, -1.00, 231.7, 7.0)">f</text><text xml:space="preserve" font-family="Helvetica-Light" font-size="55.0" fill="#FEFFFF" transform="matrix(1.00, 0.00, -0.00, -1.00, 247.0, 7.0)"> </text><text xml:space="preserve" font-family="Helvetica-Light" font-size="55.0" fill="#FEFFFF" transform="matrix(1.00, 0.00, -0.00, -1.00, 262.3, 7.0)">D</text><text xml:space="preserve" font-family="Helvetica-Light" font-size="55.0" fill="#FEFFFF" transform="matrix(1.00, 0.00, -0.00, -1.00, 302.0, 7.0)">o</text><text xml:space="preserve" font-family="Helvetica-Light" font-size="55.0" fill="#FEFFFF" transform="matrix(1.00, 0.00, -0.00, -1.00, 332.6, 7.0)">n</text><text xml:space="preserve" font-family="Helvetica-Light" font-size="55.0" fill="#FEFFFF" transform="matrix(1.00, 0.00, -0.00, -1.00, 363.2, 7.0)">e</text><text xml:space="preserve" font-family="Helvetica-Light" font-size="55.0" fill="#FEFFFF" transform="matrix(1.00, 0.00, -0.00, -1.00, 393.8, 7.0)">.</text></g></svg>