<?xml version="1.0" encoding="UTF-8" standalone="no"?><svg xmlns="http://www.w3.org/2000/svg" xmlns:xlink="http://www.w3.org/1999/xlink" clip-rule="evenodd" stroke-miterlimit="4.00" viewBox="0 0 829 57"><desc>SVG generated by Keynote</desc><defs></defs><g transform="matrix(1.00, 0.00, -0.00, -1.00, 0.0, 57.0)"><text xml:space="preserve" font-family="Helvetica-Light" font-size="41.2" fill="#FEFFFF" transform="matrix(1.00, 0.00, -0.00, -1.00, 0.5, 19.0)">•</text><text xml:space="preserve" font-family="Helvetica-Light" font-size="55.0" fill="#FEFFFF" transform="matrix(1.00, 0.00, -0.00, -1.00, 34.0, 14.0)">S</text><text xml:space="preserve" font-family="Helvetica-Light" font-size="55.0" fill="#FEFFFF" transform="matrix(1.00, 0.00, -0.00, -1.00, 67.6, 14.0)">t</text><text xml:space="preserve" font-family="Helvetica-Light" font-size="55.0" fill="#FEFFFF" transform="matrix(1.00, 0.00, -0.00, -1.00, 82.9, 14.0)">o</text><text xml:space="preserve" font-family="Helvetica-Light" font-size="55.0" fill="#FEFFFF" transform="matrix(1.00, 0.00, -0.00, -1.00, 113.5, 14.0)">p</text><text xml:space="preserve" font-family="Helvetica-Light" font-size="55.0" fill="#FEFFFF" transform="matrix(1.00, 0.00, -0.00, -1.00, 147.1, 14.0)"> </text><text xml:space="preserve" font-family="Helvetica-Light" font-size="55.0" fill="#FEFFFF" transform="matrix(1.00, 0.00, -0.00, -1.00, 162.4, 14.0)">t</text><text xml:space="preserve" font-family="Helvetica-Light" font-size="55.0" fill="#FEFFFF" transform="matrix(1.00, 0.00, -0.00, -1.00, 177.7, 14.0)">r</text><text xml:space="preserve" font-family="Helvetica-Light" font-size="55.0" fill="#FEFFFF" transform="matrix(1.00, 0.00, -0.00, -1.00, 197.0, 14.0)">y</text><text xml:space="preserve" font-family="Helvetica-Light" font-size="55.0" fill="#FEFFFF" transform="matrix(1.00, 0.00, -0.00, -1.00, 224.5, 14.0)">i</text><text xml:space="preserve" font-family="Helvetica-Light" font-size="55.0" fill="#FEFFFF" transform="matrix(1.00, 0.00, -0.00, -1.00, 236.7, 14.0)">n</text><text xml:space="preserve" font-family="Helvetica-Light" font-size="55.0" fill="#FEFFFF" transform="matrix(1.00, 0.00, -0.00, -1.00, 267.3, 14.0)">g</text><text xml:space="preserve" font-family="Helvetica-Light" font-size="55.0" fill="#FEFFFF" transform="matrix(1.00, 0.00, -0.00, -1.00, 300.9, 14.0)"> </text><text xml:space="preserve" font-family="Helvetica-Light" font-size="55.0" fill="#FEFFFF" transform="matrix(1.00, 0.00, -0.00, -1.00, 316.2, 14.0)">t</text><text xml:space="preserve" font-family="Helvetica-Light" font-size="55.0" fill="#FEFFFF" transform="matrix(1.00, 0.00, -0.00, -1.00, 331.4, 14.0)">o</text><text xml:space="preserve" font-family="Helvetica-Light" font-size="55.0" fill="#FEFFFF" transform="matrix(1.00, 0.00, -0.00, -1.00, 362.0, 14.0)"> </text><text xml:space="preserve" font-family="Helvetica-Light" font-size="55.0" fill="#FEFFFF" transform="matrix(1.00, 0.00, -0.00, -1.00, 377.3, 14.0)">c</text><text xml:space="preserve" font-family="Helvetica-Light" font-size="55.0" fill="#FEFFFF" transform="matrix(1.00, 0.00, -0.00, -1.00, 407.9, 14.0)">o</text><text xml:space="preserve" font-family="Helvetica-Light" font-size="55.0" fill="#FEFFFF" transform="matrix(1.00, 0.00, -0.00, -1.00, 438.5, 14.0)">n</text><text xml:space="preserve" font-family="Helvetica-Light" font-size="55.0" fill="#FEFFFF" transform="matrix(1.00, 0.00, -0.00, -1.00, 469.1, 14.0)">t</text><text xml:space="preserve" font-family="Helvetica-Light" font-size="55.0" fill="#FEFFFF" transform="matrix(1.00, 0.00, -0.00, -1.00, 484.3, 14.0)">r</text><text xml:space="preserve" font-family="Helvetica-Light" font-size="55.0" fill="#FEFFFF" transform="matrix(1.00, 0.00, -0.00, -1.00, 501.7, 14.0)">o</text><text xml:space="preserve" font-family="Helvetica-Light" font-size="55.0" fill="#FEFFFF" transform="matrix(1.00, 0.00, -0.00, -1.00, 532.2, 14.0)">l</text><text xml:space="preserve" font-family="Helvetica-Light" font-size="55.0" fill="#FEFFFF" transform="matrix(1.00, 0.00, -0.00, -1.00, 544.5, 14.0)"> </text><text xml:space="preserve" font-family="Helvetica-Light" font-size="55.0" fill="#FEFFFF" transform="matrix(1.00, 0.00, -0.00, -1.00, 559.7, 14.0)">e</text><text xml:space="preserve" font-family="Helvetica-Light" font-size="55.0" fill="#FEFFFF" transform="matrix(1.00, 0.00, -0.00, -1.00, 590.3, 14.0)">v</text><text xml:space="preserve" font-family="Helvetica-Light" font-size="55.0" fill="#FEFFFF" transform="matrix(1.00, 0.00, -0.00, -1.00, 617.8, 14.0)">e</text><text xml:space="preserve" font-family="Helvetica-Light" font-size="55.0" fill="#FEFFFF" transform="matrix(1.00, 0.00, -0.00, -1.00, 648.4, 14.0)">r</text><text xml:space="preserve" font-family="Helvetica-Light" font-size="55.0" fill="#FEFFFF" transform="matrix(1.00, 0.00, -0.00, -1.00, 667.7, 14.0)">y</text><text xml:space="preserve" font-family="Helvetica-Light" font-size="55.0" fill="#FEFFFF" transform="matrix(1.00, 0.00, -0.00, -1.00, 695.2, 14.0)">t</text><text xml:space="preserve" font-family="Helvetica-Light" font-size="55.0" fill="#FEFFFF" transform="matrix(1.00, 0.00, -0.00, -1.00, 710.5, 14.0)">h</text><text xml:space="preserve" font-family="Helvetica-Light" font-size="55.0" fill="#FEFFFF" transform="matrix(1.00, 0.00, -0.00, -1.00, 741.1, 14.0)">i</text><text xml:space="preserve" font-family="Helvetica-Light" font-size="55.0" fill="#FEFFFF" transform="matrix(1.00, 0.00, -0.00, -1.00, 753.3, 14.0)">n</text><text xml:space="preserve" font-family="Helvetica-Light" font-size="55.0" fill="#FEFFFF" transform="matrix(1.00, 0.00, -0.00, -1.00, 783.9, 14.0)">g</text><text xml:space="preserve" font-family="Helvetica-Light" font-size="55.0" fill="#FEFFFF" transform="matrix(1.00, 0.00, -0.00, -1.00, 817.5, 14.0)">.</text></g></svg>