<?xml version="1.0" encoding="UTF-8" standalone="no"?><svg xmlns="http://www.w3.org/2000/svg" xmlns:xlink="http://www.w3.org/1999/xlink" clip-rule="evenodd" stroke-miterlimit="4.00" viewBox="0 0 1024 768"><desc>SVG generated by Keynote</desc><defs></defs><g transform="matrix(1.00, 0.00, -0.00, -1.00, 0.0, 768.0)"><path d="M 0.0 768.0 L 1024.0 768.0 L 1024.0 0.0 L 0.0 0.0 Z M 0.0 768.0 " fill="#000000"></path><text xml:space="preserve" font-family="Helvetica-Light" font-size="105.1" fill="#FEFFFF" transform="matrix(1.00, 0.00, -0.00, -1.00, 141.0, 558.0)">I</text><text xml:space="preserve" font-family="Helvetica-Light" font-size="105.1" fill="#FEFFFF" transform="matrix(1.00, 0.00, -0.00, -1.00, 170.2, 558.0)">n</text><text xml:space="preserve" font-family="Helvetica-Light" font-size="105.1" fill="#FEFFFF" transform="matrix(1.00, 0.00, -0.00, -1.00, 228.7, 558.0)">d</text><text xml:space="preserve" font-family="Helvetica-Light" font-size="105.1" fill="#FEFFFF" transform="matrix(1.00, 0.00, -0.00, -1.00, 292.9, 558.0)">e</text><text xml:space="preserve" font-family="Helvetica-Light" font-size="105.1" fill="#FEFFFF" transform="matrix(1.00, 0.00, -0.00, -1.00, 351.3, 558.0)">n</text><text xml:space="preserve" font-family="Helvetica-Light" font-size="105.1" fill="#FEFFFF" transform="matrix(1.00, 0.00, -0.00, -1.00, 409.8, 558.0)">t</text><text xml:space="preserve" font-family="Helvetica-Light" font-size="105.1" fill="#FEFFFF" transform="matrix(1.00, 0.00, -0.00, -1.00, 439.0, 558.0)">a</text><text xml:space="preserve" font-family="Helvetica-Light" font-size="105.1" fill="#FEFFFF" transform="matrix(1.00, 0.00, -0.00, -1.00, 497.5, 558.0)">t</text><text xml:space="preserve" font-family="Helvetica-Light" font-size="105.1" fill="#FEFFFF" transform="matrix(1.00, 0.00, -0.00, -1.00, 526.7, 558.0)">i</text><text xml:space="preserve" font-family="Helvetica-Light" font-size="105.1" fill="#FEFFFF" transform="matrix(1.00, 0.00, -0.00, -1.00, 550.0, 558.0)">o</text><text xml:space="preserve" font-family="Helvetica-Light" font-size="105.1" fill="#FEFFFF" transform="matrix(1.00, 0.00, -0.00, -1.00, 608.5, 558.0)">n</text><text xml:space="preserve" font-family="Helvetica-Light" font-size="105.1" fill="#FEFFFF" transform="matrix(1.00, 0.00, -0.00, -1.00, 666.9, 558.0)"> </text><text xml:space="preserve" font-family="Helvetica-Light" font-size="105.1" fill="#FEFFFF" transform="matrix(1.00, 0.00, -0.00, -1.00, 696.1, 558.0)">w</text><text xml:space="preserve" font-family="Helvetica-Light" font-size="105.1" fill="#FEFFFF" transform="matrix(1.00, 0.00, -0.00, -1.00, 772.0, 558.0)">i</text><text xml:space="preserve" font-family="Helvetica-Light" font-size="105.1" fill="#FEFFFF" transform="matrix(1.00, 0.00, -0.00, -1.00, 795.4, 558.0)">t</text><text xml:space="preserve" font-family="Helvetica-Light" font-size="105.1" fill="#FEFFFF" transform="matrix(1.00, 0.00, -0.00, -1.00, 824.6, 558.0)">h</text><text xml:space="preserve" font-family="Helvetica-Light" font-size="105.1" fill="#FEFFFF" transform="matrix(1.00, 0.00, -0.00, -1.00, 883.0, 558.0)"> </text><text xml:space="preserve" font-family="Helvetica-Light" font-size="105.1" fill="#FEFFFF" transform="matrix(1.00, 0.00, -0.00, -1.00, 395.0, 432.0)">t</text><text xml:space="preserve" font-family="Helvetica-Light" font-size="105.1" fill="#FEFFFF" transform="matrix(1.00, 0.00, -0.00, -1.00, 424.2, 432.0)">a</text><text xml:space="preserve" font-family="Helvetica-Light" font-size="105.1" fill="#FEFFFF" transform="matrix(1.00, 0.00, -0.00, -1.00, 482.7, 432.0)">b</text><text xml:space="preserve" font-family="Helvetica-Light" font-size="105.1" fill="#FEFFFF" transform="matrix(1.00, 0.00, -0.00, -1.00, 546.9, 432.0)">s</text><text xml:space="preserve" font-family="Helvetica-Light" font-size="105.1" fill="#FEFFFF" transform="matrix(1.00, 0.00, -0.00, -1.00, 599.5, 432.0)">.</text></g></svg>