<?xml version="1.0" encoding="UTF-8" standalone="no"?><svg xmlns="http://www.w3.org/2000/svg" xmlns:xlink="http://www.w3.org/1999/xlink" clip-rule="evenodd" stroke-miterlimit="4.00" viewBox="0 0 1024 768"><desc>SVG generated by Keynote</desc><defs></defs><g transform="matrix(1.00, 0.00, -0.00, -1.00, 0.0, 768.0)"><path d="M 0.0 768.0 L 1024.0 768.0 L 1024.0 0.0 L 0.0 0.0 Z M 0.0 768.0 " fill="#000000"></path><text xml:space="preserve" font-family="Helvetica-Light" font-size="106.6" fill="#FEFFFF" transform="matrix(1.00, 0.00, -0.00, -1.00, 107.0, 537.0)">C</text><text xml:space="preserve" font-family="Helvetica-Light" font-size="106.6" fill="#FEFFFF" transform="matrix(1.00, 0.00, -0.00, -1.00, 183.9, 537.0)">o</text><text xml:space="preserve" font-family="Helvetica-Light" font-size="106.6" fill="#FEFFFF" transform="matrix(1.00, 0.00, -0.00, -1.00, 243.2, 537.0)">d</text><text xml:space="preserve" font-family="Helvetica-Light" font-size="106.6" fill="#FEFFFF" transform="matrix(1.00, 0.00, -0.00, -1.00, 308.3, 537.0)">e</text><text xml:space="preserve" font-family="Helvetica-Light" font-size="106.6" fill="#FEFFFF" transform="matrix(1.00, 0.00, -0.00, -1.00, 367.5, 537.0)"> </text><text xml:space="preserve" font-family="Helvetica-Light" font-size="106.6" fill="#FEFFFF" transform="matrix(1.00, 0.00, -0.00, -1.00, 397.2, 537.0)">S</text><text xml:space="preserve" font-family="Helvetica-Light" font-size="106.6" fill="#FEFFFF" transform="matrix(1.00, 0.00, -0.00, -1.00, 462.3, 537.0)">t</text><text xml:space="preserve" font-family="Helvetica-Light" font-size="106.6" fill="#FEFFFF" transform="matrix(1.00, 0.00, -0.00, -1.00, 491.9, 537.0)">a</text><text xml:space="preserve" font-family="Helvetica-Light" font-size="106.6" fill="#FEFFFF" transform="matrix(1.00, 0.00, -0.00, -1.00, 551.1, 537.0)">n</text><text xml:space="preserve" font-family="Helvetica-Light" font-size="106.6" fill="#FEFFFF" transform="matrix(1.00, 0.00, -0.00, -1.00, 610.4, 537.0)">d</text><text xml:space="preserve" font-family="Helvetica-Light" font-size="106.6" fill="#FEFFFF" transform="matrix(1.00, 0.00, -0.00, -1.00, 675.5, 537.0)">a</text><text xml:space="preserve" font-family="Helvetica-Light" font-size="106.6" fill="#FEFFFF" transform="matrix(1.00, 0.00, -0.00, -1.00, 734.7, 537.0)">r</text><text xml:space="preserve" font-family="Helvetica-Light" font-size="106.6" fill="#FEFFFF" transform="matrix(1.00, 0.00, -0.00, -1.00, 768.3, 537.0)">d</text><text xml:space="preserve" font-family="Helvetica-Light" font-size="106.6" fill="#FEFFFF" transform="matrix(1.00, 0.00, -0.00, -1.00, 833.4, 537.0)">s</text><text xml:space="preserve" font-family="Helvetica-Light" font-size="106.6" fill="#FEFFFF" transform="matrix(1.00, 0.00, -0.00, -1.00, 886.7, 537.0)">,</text><text xml:space="preserve" font-family="Helvetica-Light" font-size="106.6" fill="#FEFFFF" transform="matrix(1.00, 0.00, -0.00, -1.00, 916.3, 537.0)"> </text><text xml:space="preserve" font-family="Helvetica-Light" font-size="106.6" fill="#FEFFFF" transform="matrix(1.00, 0.00, -0.00, -1.00, 145.0, 409.0)">S</text><text xml:space="preserve" font-family="Helvetica-Light" font-size="106.6" fill="#FEFFFF" transform="matrix(1.00, 0.00, -0.00, -1.00, 210.1, 409.0)">t</text><text xml:space="preserve" font-family="Helvetica-Light" font-size="106.6" fill="#FEFFFF" transform="matrix(1.00, 0.00, -0.00, -1.00, 239.7, 409.0)">y</text><text xml:space="preserve" font-family="Helvetica-Light" font-size="106.6" fill="#FEFFFF" transform="matrix(1.00, 0.00, -0.00, -1.00, 293.0, 409.0)">l</text><text xml:space="preserve" font-family="Helvetica-Light" font-size="106.6" fill="#FEFFFF" transform="matrix(1.00, 0.00, -0.00, -1.00, 316.7, 409.0)">e</text><text xml:space="preserve" font-family="Helvetica-Light" font-size="106.6" fill="#FEFFFF" transform="matrix(1.00, 0.00, -0.00, -1.00, 375.9, 409.0)"> </text><text xml:space="preserve" font-family="Helvetica-Light" font-size="106.6" fill="#FEFFFF" transform="matrix(1.00, 0.00, -0.00, -1.00, 405.5, 409.0)">G</text><text xml:space="preserve" font-family="Helvetica-Light" font-size="106.6" fill="#FEFFFF" transform="matrix(1.00, 0.00, -0.00, -1.00, 488.4, 409.0)">u</text><text xml:space="preserve" font-family="Helvetica-Light" font-size="106.6" fill="#FEFFFF" transform="matrix(1.00, 0.00, -0.00, -1.00, 547.7, 409.0)">i</text><text xml:space="preserve" font-family="Helvetica-Light" font-size="106.6" fill="#FEFFFF" transform="matrix(1.00, 0.00, -0.00, -1.00, 571.3, 409.0)">d</text><text xml:space="preserve" font-family="Helvetica-Light" font-size="106.6" fill="#FEFFFF" transform="matrix(1.00, 0.00, -0.00, -1.00, 636.5, 409.0)">e</text><text xml:space="preserve" font-family="Helvetica-Light" font-size="106.6" fill="#FEFFFF" transform="matrix(1.00, 0.00, -0.00, -1.00, 695.7, 409.0)">s</text><text xml:space="preserve" font-family="Helvetica-Light" font-size="106.6" fill="#FEFFFF" transform="matrix(1.00, 0.00, -0.00, -1.00, 749.0, 409.0)">,</text><text xml:space="preserve" font-family="Helvetica-Light" font-size="106.6" fill="#FEFFFF" transform="matrix(1.00, 0.00, -0.00, -1.00, 778.6, 409.0)"> </text><text xml:space="preserve" font-family="Helvetica-Light" font-size="106.6" fill="#FEFFFF" transform="matrix(1.00, 0.00, -0.00, -1.00, 808.2, 409.0)">&amp;</text><text xml:space="preserve" font-family="Helvetica-Light" font-size="106.6" fill="#FEFFFF" transform="matrix(1.00, 0.00, -0.00, -1.00, 879.3, 409.0)"> </text><text xml:space="preserve" font-family="Helvetica-Light" font-size="106.6" fill="#FEFFFF" transform="matrix(1.00, 0.00, -0.00, -1.00, 126.0, 281.0)">W</text><text xml:space="preserve" font-family="Helvetica-Light" font-size="106.6" fill="#FEFFFF" transform="matrix(1.00, 0.00, -0.00, -1.00, 220.7, 281.0)">h</text><text xml:space="preserve" font-family="Helvetica-Light" font-size="106.6" fill="#FEFFFF" transform="matrix(1.00, 0.00, -0.00, -1.00, 280.0, 281.0)">y</text><text xml:space="preserve" font-family="Helvetica-Light" font-size="106.6" fill="#FEFFFF" transform="matrix(1.00, 0.00, -0.00, -1.00, 333.3, 281.0)"> </text><text xml:space="preserve" font-family="Helvetica-Light" font-size="106.6" fill="#FEFFFF" transform="matrix(1.00, 0.00, -0.00, -1.00, 362.9, 281.0)">Y</text><text xml:space="preserve" font-family="Helvetica-Light" font-size="106.6" fill="#FEFFFF" transform="matrix(1.00, 0.00, -0.00, -1.00, 418.2, 281.0)">o</text><text xml:space="preserve" font-family="Helvetica-Light" font-size="106.6" fill="#FEFFFF" transform="matrix(1.00, 0.00, -0.00, -1.00, 477.4, 281.0)">u</text><text xml:space="preserve" font-family="Helvetica-Light" font-size="106.6" fill="#FEFFFF" transform="matrix(1.00, 0.00, -0.00, -1.00, 536.7, 281.0)"> </text><text xml:space="preserve" font-family="Helvetica-Light" font-size="106.6" fill="#FEFFFF" transform="matrix(1.00, 0.00, -0.00, -1.00, 566.3, 281.0)">S</text><text xml:space="preserve" font-family="Helvetica-Light" font-size="106.6" fill="#FEFFFF" transform="matrix(1.00, 0.00, -0.00, -1.00, 631.4, 281.0)">h</text><text xml:space="preserve" font-family="Helvetica-Light" font-size="106.6" fill="#FEFFFF" transform="matrix(1.00, 0.00, -0.00, -1.00, 690.7, 281.0)">o</text><text xml:space="preserve" font-family="Helvetica-Light" font-size="106.6" fill="#FEFFFF" transform="matrix(1.00, 0.00, -0.00, -1.00, 749.9, 281.0)">u</text><text xml:space="preserve" font-family="Helvetica-Light" font-size="106.6" fill="#FEFFFF" transform="matrix(1.00, 0.00, -0.00, -1.00, 809.2, 281.0)">l</text><text xml:space="preserve" font-family="Helvetica-Light" font-size="106.6" fill="#FEFFFF" transform="matrix(1.00, 0.00, -0.00, -1.00, 832.8, 281.0)">d</text><text xml:space="preserve" font-family="Helvetica-Light" font-size="106.6" fill="#FEFFFF" transform="matrix(1.00, 0.00, -0.00, -1.00, 897.9, 281.0)"> </text><text xml:space="preserve" font-family="Helvetica-Light" font-size="106.6" fill="#FEFFFF" transform="matrix(1.00, 0.00, -0.00, -1.00, 145.0, 153.0)">B</text><text xml:space="preserve" font-family="Helvetica-Light" font-size="106.6" fill="#FEFFFF" transform="matrix(1.00, 0.00, -0.00, -1.00, 216.1, 153.0)">e</text><text xml:space="preserve" font-family="Helvetica-Light" font-size="106.6" fill="#FEFFFF" transform="matrix(1.00, 0.00, -0.00, -1.00, 275.3, 153.0)"> </text><text xml:space="preserve" font-family="Helvetica-Light" font-size="106.6" fill="#FEFFFF" transform="matrix(1.00, 0.00, -0.00, -1.00, 304.9, 153.0)">U</text><text xml:space="preserve" font-family="Helvetica-Light" font-size="106.6" fill="#FEFFFF" transform="matrix(1.00, 0.00, -0.00, -1.00, 381.9, 153.0)">s</text><text xml:space="preserve" font-family="Helvetica-Light" font-size="106.6" fill="#FEFFFF" transform="matrix(1.00, 0.00, -0.00, -1.00, 435.2, 153.0)">i</text><text xml:space="preserve" font-family="Helvetica-Light" font-size="106.6" fill="#FEFFFF" transform="matrix(1.00, 0.00, -0.00, -1.00, 458.8, 153.0)">n</text><text xml:space="preserve" font-family="Helvetica-Light" font-size="106.6" fill="#FEFFFF" transform="matrix(1.00, 0.00, -0.00, -1.00, 518.1, 153.0)">g</text><text xml:space="preserve" font-family="Helvetica-Light" font-size="106.6" fill="#FEFFFF" transform="matrix(1.00, 0.00, -0.00, -1.00, 583.2, 153.0)"> </text><text xml:space="preserve" font-family="Helvetica-Light" font-size="106.6" fill="#FEFFFF" transform="matrix(1.00, 0.00, -0.00, -1.00, 612.8, 153.0)">T</text><text xml:space="preserve" font-family="Helvetica-Light" font-size="106.6" fill="#FEFFFF" transform="matrix(1.00, 0.00, -0.00, -1.00, 672.0, 153.0)">h</text><text xml:space="preserve" font-family="Helvetica-Light" font-size="106.6" fill="#FEFFFF" transform="matrix(1.00, 0.00, -0.00, -1.00, 731.3, 153.0)">e</text><text xml:space="preserve" font-family="Helvetica-Light" font-size="106.6" fill="#FEFFFF" transform="matrix(1.00, 0.00, -0.00, -1.00, 790.5, 153.0)">m</text></g></svg>