<?xml version="1.0" encoding="UTF-8" standalone="no"?><svg xmlns="http://www.w3.org/2000/svg" xmlns:xlink="http://www.w3.org/1999/xlink" clip-rule="evenodd" stroke-miterlimit="4.00" viewBox="0 0 678 233"><desc>SVG generated by Keynote</desc><defs></defs><g transform="matrix(1.00, 0.00, -0.00, -1.00, 0.0, 233.0)"><text xml:space="preserve" font-family="HelveticaNeue" font-size="72.0" fill="#FEFFFF" transform="matrix(1.00, 0.00, -0.00, -1.00, -2.0, 179.0)">“</text><text xml:space="preserve" font-family="HelveticaNeue" font-size="72.0" fill="#FEFFFF" transform="matrix(1.00, 0.00, -0.00, -1.00, 28.7, 179.0)">O</text><text xml:space="preserve" font-family="HelveticaNeue" font-size="72.0" fill="#FEFFFF" transform="matrix(1.00, 0.00, -0.00, -1.00, 83.4, 179.0)">u</text><text xml:space="preserve" font-family="HelveticaNeue" font-size="72.0" fill="#FEFFFF" transform="matrix(1.00, 0.00, -0.00, -1.00, 123.4, 179.0)">r</text><text xml:space="preserve" font-family="HelveticaNeue" font-size="72.0" fill="#FEFFFF" transform="matrix(1.00, 0.00, -0.00, -1.00, 147.4, 179.0)"> </text><text xml:space="preserve" font-family="HelveticaNeue" font-size="72.0" fill="#FEFFFF" transform="matrix(1.00, 0.00, -0.00, -1.00, 167.4, 179.0)">c</text><text xml:space="preserve" font-family="HelveticaNeue" font-size="72.0" fill="#FEFFFF" transform="matrix(1.00, 0.00, -0.00, -1.00, 206.1, 179.0)">u</text><text xml:space="preserve" font-family="HelveticaNeue" font-size="72.0" fill="#FEFFFF" transform="matrix(1.00, 0.00, -0.00, -1.00, 246.1, 179.0)">l</text><text xml:space="preserve" font-family="HelveticaNeue" font-size="72.0" fill="#FEFFFF" transform="matrix(1.00, 0.00, -0.00, -1.00, 262.1, 179.0)">t</text><text xml:space="preserve" font-family="HelveticaNeue" font-size="72.0" fill="#FEFFFF" transform="matrix(1.00, 0.00, -0.00, -1.00, 284.8, 179.0)">u</text><text xml:space="preserve" font-family="HelveticaNeue" font-size="72.0" fill="#FEFFFF" transform="matrix(1.00, 0.00, -0.00, -1.00, 324.8, 179.0)">r</text><text xml:space="preserve" font-family="HelveticaNeue" font-size="72.0" fill="#FEFFFF" transform="matrix(1.00, 0.00, -0.00, -1.00, 347.5, 179.0)">e</text><text xml:space="preserve" font-family="HelveticaNeue" font-size="72.0" fill="#FEFFFF" transform="matrix(1.00, 0.00, -0.00, -1.00, 386.2, 179.0)"> </text><text xml:space="preserve" font-family="HelveticaNeue" font-size="72.0" fill="#FEFFFF" transform="matrix(1.00, 0.00, -0.00, -1.00, 406.2, 179.0)">i</text><text xml:space="preserve" font-family="HelveticaNeue" font-size="72.0" fill="#FEFFFF" transform="matrix(1.00, 0.00, -0.00, -1.00, 422.2, 179.0)">s</text><text xml:space="preserve" font-family="HelveticaNeue" font-size="72.0" fill="#FEFFFF" transform="matrix(1.00, 0.00, -0.00, -1.00, 458.2, 179.0)"> </text><text xml:space="preserve" font-family="HelveticaNeue" font-size="72.0" fill="#FEFFFF" transform="matrix(1.00, 0.00, -0.00, -1.00, 478.2, 179.0)">b</text><text xml:space="preserve" font-family="HelveticaNeue" font-size="72.0" fill="#FEFFFF" transform="matrix(1.00, 0.00, -0.00, -1.00, 520.9, 179.0)">a</text><text xml:space="preserve" font-family="HelveticaNeue" font-size="72.0" fill="#FEFFFF" transform="matrix(1.00, 0.00, -0.00, -1.00, 559.5, 179.0)">s</text><text xml:space="preserve" font-family="HelveticaNeue" font-size="72.0" fill="#FEFFFF" transform="matrix(1.00, 0.00, -0.00, -1.00, 595.5, 179.0)">e</text><text xml:space="preserve" font-family="HelveticaNeue" font-size="72.0" fill="#FEFFFF" transform="matrix(1.00, 0.00, -0.00, -1.00, 634.2, 179.0)">d</text><text xml:space="preserve" font-family="HelveticaNeue" font-size="72.0" fill="#FEFFFF" transform="matrix(1.00, 0.00, -0.00, -1.00, 676.9, 179.0)"> </text><text xml:space="preserve" font-family="HelveticaNeue" font-size="72.0" fill="#FEFFFF" transform="matrix(1.00, 0.00, -0.00, -1.00, 72.0, 91.0)">o</text><text xml:space="preserve" font-family="HelveticaNeue" font-size="72.0" fill="#FEFFFF" transform="matrix(1.00, 0.00, -0.00, -1.00, 113.3, 91.0)">n</text><text xml:space="preserve" font-family="HelveticaNeue" font-size="72.0" fill="#FEFFFF" transform="matrix(1.00, 0.00, -0.00, -1.00, 153.4, 91.0)"> </text><text xml:space="preserve" font-family="HelveticaNeue-Bold" font-weight="bold" font-size="72.0" fill="#FF2600" transform="matrix(1.00, 0.00, -0.00, -1.00, 173.4, 91.0)">f</text><text xml:space="preserve" font-family="HelveticaNeue-Bold" font-weight="bold" font-size="72.0" fill="#FF2600" transform="matrix(1.00, 0.00, -0.00, -1.00, 197.4, 91.0)">r</text><text xml:space="preserve" font-family="HelveticaNeue-Bold" font-weight="bold" font-size="72.0" fill="#FF2600" transform="matrix(1.00, 0.00, -0.00, -1.00, 224.1, 91.0)">e</text><text xml:space="preserve" font-family="HelveticaNeue-Bold" font-weight="bold" font-size="72.0" fill="#FF2600" transform="matrix(1.00, 0.00, -0.00, -1.00, 265.4, 91.0)">e</text><text xml:space="preserve" font-family="HelveticaNeue-Bold" font-weight="bold" font-size="72.0" fill="#FF2600" transform="matrix(1.00, 0.00, -0.00, -1.00, 306.7, 91.0)">d</text><text xml:space="preserve" font-family="HelveticaNeue-Bold" font-weight="bold" font-size="72.0" fill="#FF2600" transform="matrix(1.00, 0.00, -0.00, -1.00, 350.7, 91.0)">o</text><text xml:space="preserve" font-family="HelveticaNeue-Bold" font-weight="bold" font-size="72.0" fill="#FF2600" transform="matrix(1.00, 0.00, -0.00, -1.00, 394.7, 91.0)">m</text><text xml:space="preserve" font-family="HelveticaNeue" font-size="72.0" fill="#FEFFFF" transform="matrix(1.00, 0.00, -0.00, -1.00, 459.9, 91.0)"> </text><text xml:space="preserve" font-family="HelveticaNeue" font-size="72.0" fill="#FEFFFF" transform="matrix(1.00, 0.00, -0.00, -1.00, 480.0, 91.0)">a</text><text xml:space="preserve" font-family="HelveticaNeue" font-size="72.0" fill="#FEFFFF" transform="matrix(1.00, 0.00, -0.00, -1.00, 518.6, 91.0)">n</text><text xml:space="preserve" font-family="HelveticaNeue" font-size="72.0" fill="#FEFFFF" transform="matrix(1.00, 0.00, -0.00, -1.00, 558.6, 91.0)">d</text><text xml:space="preserve" font-family="HelveticaNeue" font-size="72.0" fill="#FEFFFF" transform="matrix(1.00, 0.00, -0.00, -1.00, 601.3, 91.0)"> </text><text xml:space="preserve" font-family="HelveticaNeue-Bold" font-weight="bold" font-size="72.0" fill="#FF2600" transform="matrix(1.00, 0.00, -0.00, -1.00, 7.0, 3.0)">s</text><text xml:space="preserve" font-family="HelveticaNeue-Bold" font-weight="bold" font-size="72.0" fill="#FF2600" transform="matrix(1.00, 0.00, -0.00, -1.00, 45.7, 3.0)">e</text><text xml:space="preserve" font-family="HelveticaNeue-Bold" font-weight="bold" font-size="72.0" fill="#FF2600" transform="matrix(1.00, 0.00, -0.00, -1.00, 87.0, 3.0)">l</text><text xml:space="preserve" font-family="HelveticaNeue-Bold" font-weight="bold" font-size="72.0" fill="#FF2600" transform="matrix(1.00, 0.00, -0.00, -1.00, 105.6, 3.0)">f</text><text xml:space="preserve" font-family="HelveticaNeue-Bold" font-weight="bold" font-size="72.0" fill="#FF2600" transform="matrix(1.00, 0.00, -0.00, -1.00, 129.5, 3.0)">-</text><text xml:space="preserve" font-family="HelveticaNeue-Bold" font-weight="bold" font-size="72.0" fill="#FF2600" transform="matrix(1.00, 0.00, -0.00, -1.00, 158.8, 3.0)">d</text><text xml:space="preserve" font-family="HelveticaNeue-Bold" font-weight="bold" font-size="72.0" fill="#FF2600" transform="matrix(1.00, 0.00, -0.00, -1.00, 202.8, 3.0)">e</text><text xml:space="preserve" font-family="HelveticaNeue-Bold" font-weight="bold" font-size="72.0" fill="#FF2600" transform="matrix(1.00, 0.00, -0.00, -1.00, 244.2, 3.0)">t</text><text xml:space="preserve" font-family="HelveticaNeue-Bold" font-weight="bold" font-size="72.0" fill="#FF2600" transform="matrix(1.00, 0.00, -0.00, -1.00, 269.5, 3.0)">e</text><text xml:space="preserve" font-family="HelveticaNeue-Bold" font-weight="bold" font-size="72.0" fill="#FF2600" transform="matrix(1.00, 0.00, -0.00, -1.00, 310.8, 3.0)">r</text><text xml:space="preserve" font-family="HelveticaNeue-Bold" font-weight="bold" font-size="72.0" fill="#FF2600" transform="matrix(1.00, 0.00, -0.00, -1.00, 338.8, 3.0)">m</text><text xml:space="preserve" font-family="HelveticaNeue-Bold" font-weight="bold" font-size="72.0" fill="#FF2600" transform="matrix(1.00, 0.00, -0.00, -1.00, 404.1, 3.0)">i</text><text xml:space="preserve" font-family="HelveticaNeue-Bold" font-weight="bold" font-size="72.0" fill="#FF2600" transform="matrix(1.00, 0.00, -0.00, -1.00, 422.7, 3.0)">n</text><text xml:space="preserve" font-family="HelveticaNeue-Bold" font-weight="bold" font-size="72.0" fill="#FF2600" transform="matrix(1.00, 0.00, -0.00, -1.00, 465.4, 3.0)">a</text><text xml:space="preserve" font-family="HelveticaNeue-Bold" font-weight="bold" font-size="72.0" fill="#FF2600" transform="matrix(1.00, 0.00, -0.00, -1.00, 506.7, 3.0)">t</text><text xml:space="preserve" font-family="HelveticaNeue-Bold" font-weight="bold" font-size="72.0" fill="#FF2600" transform="matrix(1.00, 0.00, -0.00, -1.00, 532.0, 3.0)">i</text><text xml:space="preserve" font-family="HelveticaNeue-Bold" font-weight="bold" font-size="72.0" fill="#FF2600" transform="matrix(1.00, 0.00, -0.00, -1.00, 550.6, 3.0)">o</text><text xml:space="preserve" font-family="HelveticaNeue-Bold" font-weight="bold" font-size="72.0" fill="#FF2600" transform="matrix(1.00, 0.00, -0.00, -1.00, 594.6, 3.0)">n</text><text xml:space="preserve" font-family="HelveticaNeue" font-size="72.0" fill="#FEFFFF" transform="matrix(1.00, 0.00, -0.00, -1.00, 637.3, 3.0)">”</text></g></svg>