<?xml version="1.0" encoding="UTF-8" standalone="no"?><svg xmlns="http://www.w3.org/2000/svg" xmlns:xlink="http://www.w3.org/1999/xlink" clip-rule="evenodd" stroke-miterlimit="4.00" viewBox="0 0 1024 768"><desc>SVG generated by Keynote</desc><defs></defs><g transform="matrix(1.00, 0.00, -0.00, -1.00, 0.0, 768.0)"><path d="M 0.0 768.0 L 1024.0 768.0 L 1024.0 0.0 L 0.0 0.0 Z M 0.0 768.0 " fill="#000000"></path><text xml:space="preserve" font-family="Helvetica-Light" font-size="69.1" fill="#FEFFFF" transform="matrix(1.00, 0.00, -0.00, -1.00, 115.0, 442.0)">“</text><text xml:space="preserve" font-family="Helvetica-Light" font-size="69.1" fill="#FEFFFF" transform="matrix(1.00, 0.00, -0.00, -1.00, 141.9, 442.0)">I</text><text xml:space="preserve" font-family="Helvetica-Light" font-size="69.1" fill="#FEFFFF" transform="matrix(1.00, 0.00, -0.00, -1.00, 161.1, 442.0)">m</text><text xml:space="preserve" font-family="Helvetica-Light" font-size="69.1" fill="#FEFFFF" transform="matrix(1.00, 0.00, -0.00, -1.00, 218.7, 442.0)">p</text><text xml:space="preserve" font-family="Helvetica-Light" font-size="69.1" fill="#FEFFFF" transform="matrix(1.00, 0.00, -0.00, -1.00, 260.9, 442.0)">o</text><text xml:space="preserve" font-family="Helvetica-Light" font-size="69.1" fill="#FEFFFF" transform="matrix(1.00, 0.00, -0.00, -1.00, 299.3, 442.0)">s</text><text xml:space="preserve" font-family="Helvetica-Light" font-size="69.1" fill="#FEFFFF" transform="matrix(1.00, 0.00, -0.00, -1.00, 333.9, 442.0)">s</text><text xml:space="preserve" font-family="Helvetica-Light" font-size="69.1" fill="#FEFFFF" transform="matrix(1.00, 0.00, -0.00, -1.00, 368.5, 442.0)">i</text><text xml:space="preserve" font-family="Helvetica-Light" font-size="69.1" fill="#FEFFFF" transform="matrix(1.00, 0.00, -0.00, -1.00, 383.8, 442.0)">b</text><text xml:space="preserve" font-family="Helvetica-Light" font-size="69.1" fill="#FEFFFF" transform="matrix(1.00, 0.00, -0.00, -1.00, 426.0, 442.0)">l</text><text xml:space="preserve" font-family="Helvetica-Light" font-size="69.1" fill="#FEFFFF" transform="matrix(1.00, 0.00, -0.00, -1.00, 441.4, 442.0)">e</text><text xml:space="preserve" font-family="Helvetica-Light" font-size="69.1" fill="#FEFFFF" transform="matrix(1.00, 0.00, -0.00, -1.00, 479.8, 442.0)">.</text><text xml:space="preserve" font-family="Helvetica-Light" font-size="69.1" fill="#FEFFFF" transform="matrix(1.00, 0.00, -0.00, -1.00, 499.0, 442.0)"> </text><text xml:space="preserve" font-family="Helvetica-Light" font-size="69.1" fill="#FEFFFF" transform="matrix(1.00, 0.00, -0.00, -1.00, 518.2, 442.0)">M</text><text xml:space="preserve" font-family="Helvetica-Light" font-size="69.1" fill="#FEFFFF" transform="matrix(1.00, 0.00, -0.00, -1.00, 575.8, 442.0)">y</text><text xml:space="preserve" font-family="Helvetica-Light" font-size="69.1" fill="#FEFFFF" transform="matrix(1.00, 0.00, -0.00, -1.00, 610.4, 442.0)"> </text><text xml:space="preserve" font-family="Helvetica-Light" font-size="69.1" fill="#FEFFFF" transform="matrix(1.00, 0.00, -0.00, -1.00, 629.6, 442.0)">c</text><text xml:space="preserve" font-family="Helvetica-Light" font-size="69.1" fill="#FEFFFF" transform="matrix(1.00, 0.00, -0.00, -1.00, 668.0, 442.0)">u</text><text xml:space="preserve" font-family="Helvetica-Light" font-size="69.1" fill="#FEFFFF" transform="matrix(1.00, 0.00, -0.00, -1.00, 706.5, 442.0)">l</text><text xml:space="preserve" font-family="Helvetica-Light" font-size="69.1" fill="#FEFFFF" transform="matrix(1.00, 0.00, -0.00, -1.00, 721.8, 442.0)">t</text><text xml:space="preserve" font-family="Helvetica-Light" font-size="69.1" fill="#FEFFFF" transform="matrix(1.00, 0.00, -0.00, -1.00, 741.0, 442.0)">u</text><text xml:space="preserve" font-family="Helvetica-Light" font-size="69.1" fill="#FEFFFF" transform="matrix(1.00, 0.00, -0.00, -1.00, 779.5, 442.0)">r</text><text xml:space="preserve" font-family="Helvetica-Light" font-size="69.1" fill="#FEFFFF" transform="matrix(1.00, 0.00, -0.00, -1.00, 801.2, 442.0)">e</text><text xml:space="preserve" font-family="Helvetica-Light" font-size="69.1" fill="#FEFFFF" transform="matrix(1.00, 0.00, -0.00, -1.00, 839.7, 442.0)"> </text><text xml:space="preserve" font-family="Helvetica-Light" font-size="69.1" fill="#FEFFFF" transform="matrix(1.00, 0.00, -0.00, -1.00, 858.9, 442.0)">i</text><text xml:space="preserve" font-family="Helvetica-Light" font-size="69.1" fill="#FEFFFF" transform="matrix(1.00, 0.00, -0.00, -1.00, 874.2, 442.0)">s</text><text xml:space="preserve" font-family="Helvetica-Light" font-size="69.1" fill="#FEFFFF" transform="matrix(1.00, 0.00, -0.00, -1.00, 908.8, 442.0)"> </text><text xml:space="preserve" font-family="Helvetica-Light" font-size="69.1" fill="#FEFFFF" transform="matrix(1.00, 0.00, -0.00, -1.00, 149.0, 359.0)">b</text><text xml:space="preserve" font-family="Helvetica-Light" font-size="69.1" fill="#FEFFFF" transform="matrix(1.00, 0.00, -0.00, -1.00, 191.2, 359.0)">a</text><text xml:space="preserve" font-family="Helvetica-Light" font-size="69.1" fill="#FEFFFF" transform="matrix(1.00, 0.00, -0.00, -1.00, 229.7, 359.0)">s</text><text xml:space="preserve" font-family="Helvetica-Light" font-size="69.1" fill="#FEFFFF" transform="matrix(1.00, 0.00, -0.00, -1.00, 264.2, 359.0)">e</text><text xml:space="preserve" font-family="Helvetica-Light" font-size="69.1" fill="#FEFFFF" transform="matrix(1.00, 0.00, -0.00, -1.00, 302.7, 359.0)">d</text><text xml:space="preserve" font-family="Helvetica-Light" font-size="69.1" fill="#FEFFFF" transform="matrix(1.00, 0.00, -0.00, -1.00, 344.9, 359.0)"> </text><text xml:space="preserve" font-family="Helvetica-Light" font-size="69.1" fill="#FEFFFF" transform="matrix(1.00, 0.00, -0.00, -1.00, 364.1, 359.0)">o</text><text xml:space="preserve" font-family="Helvetica-Light" font-size="69.1" fill="#FEFFFF" transform="matrix(1.00, 0.00, -0.00, -1.00, 402.5, 359.0)">n</text><text xml:space="preserve" font-family="Helvetica-Light" font-size="69.1" fill="#FEFFFF" transform="matrix(1.00, 0.00, -0.00, -1.00, 441.0, 359.0)"> </text><text xml:space="preserve" font-family="Helvetica-Bold" font-weight="bold" font-size="69.1" fill="#FF2600" transform="matrix(1.00, 0.00, -0.00, -1.00, 460.2, 359.0)">f</text><text xml:space="preserve" font-family="Helvetica-Bold" font-weight="bold" font-size="69.1" fill="#FF2600" transform="matrix(1.00, 0.00, -0.00, -1.00, 483.2, 359.0)">r</text><text xml:space="preserve" font-family="Helvetica-Bold" font-weight="bold" font-size="69.1" fill="#FF2600" transform="matrix(1.00, 0.00, -0.00, -1.00, 510.1, 359.0)">e</text><text xml:space="preserve" font-family="Helvetica-Bold" font-weight="bold" font-size="69.1" fill="#FF2600" transform="matrix(1.00, 0.00, -0.00, -1.00, 548.6, 359.0)">e</text><text xml:space="preserve" font-family="Helvetica-Bold" font-weight="bold" font-size="69.1" fill="#FF2600" transform="matrix(1.00, 0.00, -0.00, -1.00, 587.0, 359.0)">d</text><text xml:space="preserve" font-family="Helvetica-Bold" font-weight="bold" font-size="69.1" fill="#FF2600" transform="matrix(1.00, 0.00, -0.00, -1.00, 629.2, 359.0)">o</text><text xml:space="preserve" font-family="Helvetica-Bold" font-weight="bold" font-size="69.1" fill="#FF2600" transform="matrix(1.00, 0.00, -0.00, -1.00, 671.4, 359.0)">m</text><text xml:space="preserve" font-family="Helvetica-Bold" font-weight="bold" font-size="69.1" fill="#FF2600" transform="matrix(1.00, 0.00, -0.00, -1.00, 732.9, 359.0)"> </text><text xml:space="preserve" font-family="Helvetica-Bold" font-weight="bold" font-size="69.1" fill="#FF2600" transform="matrix(1.00, 0.00, -0.00, -1.00, 752.1, 359.0)">a</text><text xml:space="preserve" font-family="Helvetica-Bold" font-weight="bold" font-size="69.1" fill="#FF2600" transform="matrix(1.00, 0.00, -0.00, -1.00, 790.6, 359.0)">n</text><text xml:space="preserve" font-family="Helvetica-Bold" font-weight="bold" font-size="69.1" fill="#FF2600" transform="matrix(1.00, 0.00, -0.00, -1.00, 832.8, 359.0)">d</text><text xml:space="preserve" font-family="Helvetica-Bold" font-weight="bold" font-size="69.1" fill="#FF2600" transform="matrix(1.00, 0.00, -0.00, -1.00, 875.0, 359.0)"> </text><text xml:space="preserve" font-family="Helvetica-Bold" font-weight="bold" font-size="69.1" fill="#FF2600" transform="matrix(1.00, 0.00, -0.00, -1.00, 189.0, 276.0)">s</text><text xml:space="preserve" font-family="Helvetica-Bold" font-weight="bold" font-size="69.1" fill="#FF2600" transform="matrix(1.00, 0.00, -0.00, -1.00, 227.5, 276.0)">e</text><text xml:space="preserve" font-family="Helvetica-Bold" font-weight="bold" font-size="69.1" fill="#FF2600" transform="matrix(1.00, 0.00, -0.00, -1.00, 265.9, 276.0)">l</text><text xml:space="preserve" font-family="Helvetica-Bold" font-weight="bold" font-size="69.1" fill="#FF2600" transform="matrix(1.00, 0.00, -0.00, -1.00, 285.1, 276.0)">f</text><text xml:space="preserve" font-family="Helvetica-Bold" font-weight="bold" font-size="69.1" fill="#FF2600" transform="matrix(1.00, 0.00, -0.00, -1.00, 308.1, 276.0)">-</text><text xml:space="preserve" font-family="Helvetica-Bold" font-weight="bold" font-size="69.1" fill="#FF2600" transform="matrix(1.00, 0.00, -0.00, -1.00, 331.1, 276.0)">d</text><text xml:space="preserve" font-family="Helvetica-Bold" font-weight="bold" font-size="69.1" fill="#FF2600" transform="matrix(1.00, 0.00, -0.00, -1.00, 373.3, 276.0)">e</text><text xml:space="preserve" font-family="Helvetica-Bold" font-weight="bold" font-size="69.1" fill="#FF2600" transform="matrix(1.00, 0.00, -0.00, -1.00, 411.8, 276.0)">t</text><text xml:space="preserve" font-family="Helvetica-Bold" font-weight="bold" font-size="69.1" fill="#FF2600" transform="matrix(1.00, 0.00, -0.00, -1.00, 434.8, 276.0)">e</text><text xml:space="preserve" font-family="Helvetica-Bold" font-weight="bold" font-size="69.1" fill="#FF2600" transform="matrix(1.00, 0.00, -0.00, -1.00, 473.3, 276.0)">r</text><text xml:space="preserve" font-family="Helvetica-Bold" font-weight="bold" font-size="69.1" fill="#FF2600" transform="matrix(1.00, 0.00, -0.00, -1.00, 500.2, 276.0)">m</text><text xml:space="preserve" font-family="Helvetica-Bold" font-weight="bold" font-size="69.1" fill="#FF2600" transform="matrix(1.00, 0.00, -0.00, -1.00, 561.7, 276.0)">i</text><text xml:space="preserve" font-family="Helvetica-Bold" font-weight="bold" font-size="69.1" fill="#FF2600" transform="matrix(1.00, 0.00, -0.00, -1.00, 580.8, 276.0)">n</text><text xml:space="preserve" font-family="Helvetica-Bold" font-weight="bold" font-size="69.1" fill="#FF2600" transform="matrix(1.00, 0.00, -0.00, -1.00, 623.1, 276.0)">a</text><text xml:space="preserve" font-family="Helvetica-Bold" font-weight="bold" font-size="69.1" fill="#FF2600" transform="matrix(1.00, 0.00, -0.00, -1.00, 661.5, 276.0)">t</text><text xml:space="preserve" font-family="Helvetica-Bold" font-weight="bold" font-size="69.1" fill="#FF2600" transform="matrix(1.00, 0.00, -0.00, -1.00, 684.5, 276.0)">i</text><text xml:space="preserve" font-family="Helvetica-Bold" font-weight="bold" font-size="69.1" fill="#FF2600" transform="matrix(1.00, 0.00, -0.00, -1.00, 703.7, 276.0)">o</text><text xml:space="preserve" font-family="Helvetica-Bold" font-weight="bold" font-size="69.1" fill="#FF2600" transform="matrix(1.00, 0.00, -0.00, -1.00, 745.9, 276.0)">n</text><text xml:space="preserve" font-family="Helvetica-Light" font-size="69.1" fill="#FEFFFF" transform="matrix(1.00, 0.00, -0.00, -1.00, 788.1, 276.0)">.</text><text xml:space="preserve" font-family="Helvetica-Light" font-size="69.1" fill="#FEFFFF" transform="matrix(1.00, 0.00, -0.00, -1.00, 807.3, 276.0)">”</text><image xlink:href="../../89855412-4C82-4833-87A8-BCD39EE13688/assets/F775508047EEF6489EE43FE8F4D91CF7.jpeg" width="932.00" height="768.00" transform="matrix(1.00, 0.00, -0.00, -1.00, 46.0, 768.0)"></image><text xml:space="preserve" font-family="HelveticaNeue" font-size="72.0" fill="#FEFFFF" transform="matrix(1.00, 0.00, -0.00, -1.00, 173.0, 278.0)">“</text><text xml:space="preserve" font-family="HelveticaNeue" font-size="72.0" fill="#FEFFFF" transform="matrix(1.00, 0.00, -0.00, -1.00, 203.7, 278.0)">O</text><text xml:space="preserve" font-family="HelveticaNeue" font-size="72.0" fill="#FEFFFF" transform="matrix(1.00, 0.00, -0.00, -1.00, 258.4, 278.0)">u</text><text xml:space="preserve" font-family="HelveticaNeue" font-size="72.0" fill="#FEFFFF" transform="matrix(1.00, 0.00, -0.00, -1.00, 298.4, 278.0)">r</text><text xml:space="preserve" font-family="HelveticaNeue" font-size="72.0" fill="#FEFFFF" transform="matrix(1.00, 0.00, -0.00, -1.00, 322.4, 278.0)"> </text><text xml:space="preserve" font-family="HelveticaNeue" font-size="72.0" fill="#FEFFFF" transform="matrix(1.00, 0.00, -0.00, -1.00, 342.4, 278.0)">c</text><text xml:space="preserve" font-family="HelveticaNeue" font-size="72.0" fill="#FEFFFF" transform="matrix(1.00, 0.00, -0.00, -1.00, 381.1, 278.0)">u</text><text xml:space="preserve" font-family="HelveticaNeue" font-size="72.0" fill="#FEFFFF" transform="matrix(1.00, 0.00, -0.00, -1.00, 421.1, 278.0)">l</text><text xml:space="preserve" font-family="HelveticaNeue" font-size="72.0" fill="#FEFFFF" transform="matrix(1.00, 0.00, -0.00, -1.00, 437.1, 278.0)">t</text><text xml:space="preserve" font-family="HelveticaNeue" font-size="72.0" fill="#FEFFFF" transform="matrix(1.00, 0.00, -0.00, -1.00, 459.8, 278.0)">u</text><text xml:space="preserve" font-family="HelveticaNeue" font-size="72.0" fill="#FEFFFF" transform="matrix(1.00, 0.00, -0.00, -1.00, 499.8, 278.0)">r</text><text xml:space="preserve" font-family="HelveticaNeue" font-size="72.0" fill="#FEFFFF" transform="matrix(1.00, 0.00, -0.00, -1.00, 522.5, 278.0)">e</text><text xml:space="preserve" font-family="HelveticaNeue" font-size="72.0" fill="#FEFFFF" transform="matrix(1.00, 0.00, -0.00, -1.00, 561.2, 278.0)"> </text><text xml:space="preserve" font-family="HelveticaNeue" font-size="72.0" fill="#FEFFFF" transform="matrix(1.00, 0.00, -0.00, -1.00, 581.2, 278.0)">i</text><text xml:space="preserve" font-family="HelveticaNeue" font-size="72.0" fill="#FEFFFF" transform="matrix(1.00, 0.00, -0.00, -1.00, 597.2, 278.0)">s</text><text xml:space="preserve" font-family="HelveticaNeue" font-size="72.0" fill="#FEFFFF" transform="matrix(1.00, 0.00, -0.00, -1.00, 633.2, 278.0)"> </text><text xml:space="preserve" font-family="HelveticaNeue" font-size="72.0" fill="#FEFFFF" transform="matrix(1.00, 0.00, -0.00, -1.00, 653.2, 278.0)">b</text><text xml:space="preserve" font-family="HelveticaNeue" font-size="72.0" fill="#FEFFFF" transform="matrix(1.00, 0.00, -0.00, -1.00, 695.9, 278.0)">a</text><text xml:space="preserve" font-family="HelveticaNeue" font-size="72.0" fill="#FEFFFF" transform="matrix(1.00, 0.00, -0.00, -1.00, 734.5, 278.0)">s</text><text xml:space="preserve" font-family="HelveticaNeue" font-size="72.0" fill="#FEFFFF" transform="matrix(1.00, 0.00, -0.00, -1.00, 770.5, 278.0)">e</text><text xml:space="preserve" font-family="HelveticaNeue" font-size="72.0" fill="#FEFFFF" transform="matrix(1.00, 0.00, -0.00, -1.00, 809.2, 278.0)">d</text><text xml:space="preserve" font-family="HelveticaNeue" font-size="72.0" fill="#FEFFFF" transform="matrix(1.00, 0.00, -0.00, -1.00, 851.9, 278.0)"> </text><text xml:space="preserve" font-family="HelveticaNeue" font-size="72.0" fill="#FEFFFF" transform="matrix(1.00, 0.00, -0.00, -1.00, 247.0, 190.0)">o</text><text xml:space="preserve" font-family="HelveticaNeue" font-size="72.0" fill="#FEFFFF" transform="matrix(1.00, 0.00, -0.00, -1.00, 288.3, 190.0)">n</text><text xml:space="preserve" font-family="HelveticaNeue" font-size="72.0" fill="#FEFFFF" transform="matrix(1.00, 0.00, -0.00, -1.00, 328.4, 190.0)"> </text><text xml:space="preserve" font-family="HelveticaNeue-Bold" font-weight="bold" font-size="72.0" fill="#FF2600" transform="matrix(1.00, 0.00, -0.00, -1.00, 348.4, 190.0)">f</text><text xml:space="preserve" font-family="HelveticaNeue-Bold" font-weight="bold" font-size="72.0" fill="#FF2600" transform="matrix(1.00, 0.00, -0.00, -1.00, 372.4, 190.0)">r</text><text xml:space="preserve" font-family="HelveticaNeue-Bold" font-weight="bold" font-size="72.0" fill="#FF2600" transform="matrix(1.00, 0.00, -0.00, -1.00, 399.1, 190.0)">e</text><text xml:space="preserve" font-family="HelveticaNeue-Bold" font-weight="bold" font-size="72.0" fill="#FF2600" transform="matrix(1.00, 0.00, -0.00, -1.00, 440.4, 190.0)">e</text><text xml:space="preserve" font-family="HelveticaNeue-Bold" font-weight="bold" font-size="72.0" fill="#FF2600" transform="matrix(1.00, 0.00, -0.00, -1.00, 481.7, 190.0)">d</text><text xml:space="preserve" font-family="HelveticaNeue-Bold" font-weight="bold" font-size="72.0" fill="#FF2600" transform="matrix(1.00, 0.00, -0.00, -1.00, 525.7, 190.0)">o</text><text xml:space="preserve" font-family="HelveticaNeue-Bold" font-weight="bold" font-size="72.0" fill="#FF2600" transform="matrix(1.00, 0.00, -0.00, -1.00, 569.7, 190.0)">m</text><text xml:space="preserve" font-family="HelveticaNeue" font-size="72.0" fill="#FEFFFF" transform="matrix(1.00, 0.00, -0.00, -1.00, 634.9, 190.0)"> </text><text xml:space="preserve" font-family="HelveticaNeue" font-size="72.0" fill="#FEFFFF" transform="matrix(1.00, 0.00, -0.00, -1.00, 655.0, 190.0)">a</text><text xml:space="preserve" font-family="HelveticaNeue" font-size="72.0" fill="#FEFFFF" transform="matrix(1.00, 0.00, -0.00, -1.00, 693.6, 190.0)">n</text><text xml:space="preserve" font-family="HelveticaNeue" font-size="72.0" fill="#FEFFFF" transform="matrix(1.00, 0.00, -0.00, -1.00, 733.6, 190.0)">d</text><text xml:space="preserve" font-family="HelveticaNeue" font-size="72.0" fill="#FEFFFF" transform="matrix(1.00, 0.00, -0.00, -1.00, 776.3, 190.0)"> </text><text xml:space="preserve" font-family="HelveticaNeue-Bold" font-weight="bold" font-size="72.0" fill="#FF2600" transform="matrix(1.00, 0.00, -0.00, -1.00, 182.0, 102.0)">s</text><text xml:space="preserve" font-family="HelveticaNeue-Bold" font-weight="bold" font-size="72.0" fill="#FF2600" transform="matrix(1.00, 0.00, -0.00, -1.00, 220.7, 102.0)">e</text><text xml:space="preserve" font-family="HelveticaNeue-Bold" font-weight="bold" font-size="72.0" fill="#FF2600" transform="matrix(1.00, 0.00, -0.00, -1.00, 262.0, 102.0)">l</text><text xml:space="preserve" font-family="HelveticaNeue-Bold" font-weight="bold" font-size="72.0" fill="#FF2600" transform="matrix(1.00, 0.00, -0.00, -1.00, 280.6, 102.0)">f</text><text xml:space="preserve" font-family="HelveticaNeue-Bold" font-weight="bold" font-size="72.0" fill="#FF2600" transform="matrix(1.00, 0.00, -0.00, -1.00, 304.5, 102.0)">-</text><text xml:space="preserve" font-family="HelveticaNeue-Bold" font-weight="bold" font-size="72.0" fill="#FF2600" transform="matrix(1.00, 0.00, -0.00, -1.00, 333.8, 102.0)">d</text><text xml:space="preserve" font-family="HelveticaNeue-Bold" font-weight="bold" font-size="72.0" fill="#FF2600" transform="matrix(1.00, 0.00, -0.00, -1.00, 377.8, 102.0)">e</text><text xml:space="preserve" font-family="HelveticaNeue-Bold" font-weight="bold" font-size="72.0" fill="#FF2600" transform="matrix(1.00, 0.00, -0.00, -1.00, 419.2, 102.0)">t</text><text xml:space="preserve" font-family="HelveticaNeue-Bold" font-weight="bold" font-size="72.0" fill="#FF2600" transform="matrix(1.00, 0.00, -0.00, -1.00, 444.5, 102.0)">e</text><text xml:space="preserve" font-family="HelveticaNeue-Bold" font-weight="bold" font-size="72.0" fill="#FF2600" transform="matrix(1.00, 0.00, -0.00, -1.00, 485.8, 102.0)">r</text><text xml:space="preserve" font-family="HelveticaNeue-Bold" font-weight="bold" font-size="72.0" fill="#FF2600" transform="matrix(1.00, 0.00, -0.00, -1.00, 513.8, 102.0)">m</text><text xml:space="preserve" font-family="HelveticaNeue-Bold" font-weight="bold" font-size="72.0" fill="#FF2600" transform="matrix(1.00, 0.00, -0.00, -1.00, 579.1, 102.0)">i</text><text xml:space="preserve" font-family="HelveticaNeue-Bold" font-weight="bold" font-size="72.0" fill="#FF2600" transform="matrix(1.00, 0.00, -0.00, -1.00, 597.7, 102.0)">n</text><text xml:space="preserve" font-family="HelveticaNeue-Bold" font-weight="bold" font-size="72.0" fill="#FF2600" transform="matrix(1.00, 0.00, -0.00, -1.00, 640.4, 102.0)">a</text><text xml:space="preserve" font-family="HelveticaNeue-Bold" font-weight="bold" font-size="72.0" fill="#FF2600" transform="matrix(1.00, 0.00, -0.00, -1.00, 681.7, 102.0)">t</text><text xml:space="preserve" font-family="HelveticaNeue-Bold" font-weight="bold" font-size="72.0" fill="#FF2600" transform="matrix(1.00, 0.00, -0.00, -1.00, 707.0, 102.0)">i</text><text xml:space="preserve" font-family="HelveticaNeue-Bold" font-weight="bold" font-size="72.0" fill="#FF2600" transform="matrix(1.00, 0.00, -0.00, -1.00, 725.6, 102.0)">o</text><text xml:space="preserve" font-family="HelveticaNeue-Bold" font-weight="bold" font-size="72.0" fill="#FF2600" transform="matrix(1.00, 0.00, -0.00, -1.00, 769.6, 102.0)">n</text><text xml:space="preserve" font-family="HelveticaNeue" font-size="72.0" fill="#FEFFFF" transform="matrix(1.00, 0.00, -0.00, -1.00, 812.3, 102.0)">”</text></g></svg>