<?xml version="1.0" encoding="UTF-8" standalone="no"?><svg xmlns="http://www.w3.org/2000/svg" xmlns:xlink="http://www.w3.org/1999/xlink" clip-rule="evenodd" stroke-miterlimit="4.00" viewBox="0 0 1024 768"><desc>SVG generated by Keynote</desc><defs></defs><g transform="matrix(1.00, 0.00, -0.00, -1.00, 0.0, 768.0)"><path d="M 0.0 768.0 L 1024.0 768.0 L 1024.0 0.0 L 0.0 0.0 Z M 0.0 768.0 " fill="#000000"></path><text xml:space="preserve" font-family="Helvetica-Light" font-size="142.6" fill="#FEFFFF" transform="matrix(1.00, 0.00, -0.00, -1.00, 105.0, 331.0)">B</text><text xml:space="preserve" font-family="Helvetica-Light" font-size="142.6" fill="#FEFFFF" transform="matrix(1.00, 0.00, -0.00, -1.00, 200.1, 331.0)">u</text><text xml:space="preserve" font-family="Helvetica-Light" font-size="142.6" fill="#FEFFFF" transform="matrix(1.00, 0.00, -0.00, -1.00, 279.4, 331.0)">r</text><text xml:space="preserve" font-family="Helvetica-Light" font-size="142.6" fill="#FEFFFF" transform="matrix(1.00, 0.00, -0.00, -1.00, 324.3, 331.0)">e</text><text xml:space="preserve" font-family="Helvetica-Light" font-size="142.6" fill="#FEFFFF" transform="matrix(1.00, 0.00, -0.00, -1.00, 403.5, 331.0)">a</text><text xml:space="preserve" font-family="Helvetica-Light" font-size="142.6" fill="#FEFFFF" transform="matrix(1.00, 0.00, -0.00, -1.00, 482.8, 331.0)">u</text><text xml:space="preserve" font-family="Helvetica-Light" font-size="142.6" fill="#FEFFFF" transform="matrix(1.00, 0.00, -0.00, -1.00, 562.0, 331.0)">c</text><text xml:space="preserve" font-family="Helvetica-Light" font-size="142.6" fill="#FEFFFF" transform="matrix(1.00, 0.00, -0.00, -1.00, 641.3, 331.0)">r</text><text xml:space="preserve" font-family="Helvetica-Light" font-size="142.6" fill="#FEFFFF" transform="matrix(1.00, 0.00, -0.00, -1.00, 688.8, 331.0)">a</text><text xml:space="preserve" font-family="Helvetica-Light" font-size="142.6" fill="#FEFFFF" transform="matrix(1.00, 0.00, -0.00, -1.00, 768.0, 331.0)">t</text><text xml:space="preserve" font-family="Helvetica-Light" font-size="142.6" fill="#FEFFFF" transform="matrix(1.00, 0.00, -0.00, -1.00, 807.7, 331.0)">i</text><text xml:space="preserve" font-family="Helvetica-Light" font-size="142.6" fill="#FEFFFF" transform="matrix(1.00, 0.00, -0.00, -1.00, 839.3, 331.0)">c</text></g></svg>