<?xml version="1.0" encoding="UTF-8" standalone="no"?><svg xmlns="http://www.w3.org/2000/svg" xmlns:xlink="http://www.w3.org/1999/xlink" clip-rule="evenodd" stroke-miterlimit="4.00" viewBox="0 0 1010 218"><desc>SVG generated by Keynote</desc><defs></defs><g transform="matrix(1.00, 0.00, -0.00, -1.00, 0.0, 218.0)"><text xml:space="preserve" font-family="Helvetica-Light" font-size="64.0" fill="#FEFFFF" transform="matrix(1.00, 0.00, -0.00, -1.00, 58.0, 169.0)">A</text><text xml:space="preserve" font-family="Helvetica-Light" font-size="64.0" fill="#FEFFFF" transform="matrix(1.00, 0.00, -0.00, -1.00, 100.7, 169.0)">l</text><text xml:space="preserve" font-family="Helvetica-Light" font-size="64.0" fill="#FEFFFF" transform="matrix(1.00, 0.00, -0.00, -1.00, 114.9, 169.0)">w</text><text xml:space="preserve" font-family="Helvetica-Light" font-size="64.0" fill="#FEFFFF" transform="matrix(1.00, 0.00, -0.00, -1.00, 161.1, 169.0)">a</text><text xml:space="preserve" font-family="Helvetica-Light" font-size="64.0" fill="#FEFFFF" transform="matrix(1.00, 0.00, -0.00, -1.00, 196.7, 169.0)">y</text><text xml:space="preserve" font-family="Helvetica-Light" font-size="64.0" fill="#FEFFFF" transform="matrix(1.00, 0.00, -0.00, -1.00, 228.7, 169.0)">s</text><text xml:space="preserve" font-family="Helvetica-Light" font-size="64.0" fill="#FEFFFF" transform="matrix(1.00, 0.00, -0.00, -1.00, 260.7, 169.0)"> </text><text xml:space="preserve" font-family="Helvetica-Light" font-size="64.0" fill="#FEFFFF" transform="matrix(1.00, 0.00, -0.00, -1.00, 278.5, 169.0)">q</text><text xml:space="preserve" font-family="Helvetica-Light" font-size="64.0" fill="#FEFFFF" transform="matrix(1.00, 0.00, -0.00, -1.00, 317.6, 169.0)">u</text><text xml:space="preserve" font-family="Helvetica-Light" font-size="64.0" fill="#FEFFFF" transform="matrix(1.00, 0.00, -0.00, -1.00, 353.2, 169.0)">o</text><text xml:space="preserve" font-family="Helvetica-Light" font-size="64.0" fill="#FEFFFF" transform="matrix(1.00, 0.00, -0.00, -1.00, 388.8, 169.0)">t</text><text xml:space="preserve" font-family="Helvetica-Light" font-size="64.0" fill="#FEFFFF" transform="matrix(1.00, 0.00, -0.00, -1.00, 406.5, 169.0)">e</text><text xml:space="preserve" font-family="Helvetica-Light" font-size="64.0" fill="#FEFFFF" transform="matrix(1.00, 0.00, -0.00, -1.00, 442.1, 169.0)"> </text><text xml:space="preserve" font-family="Helvetica-Bold" font-weight="bold" font-size="64.0" fill="#FF2600" transform="matrix(1.00, 0.00, -0.00, -1.00, 459.9, 169.0)">a</text><text xml:space="preserve" font-family="Helvetica-Bold" font-weight="bold" font-size="64.0" fill="#FF2600" transform="matrix(1.00, 0.00, -0.00, -1.00, 495.5, 169.0)">t</text><text xml:space="preserve" font-family="Helvetica-Bold" font-weight="bold" font-size="64.0" fill="#FF2600" transform="matrix(1.00, 0.00, -0.00, -1.00, 516.8, 169.0)">t</text><text xml:space="preserve" font-family="Helvetica-Bold" font-weight="bold" font-size="64.0" fill="#FF2600" transform="matrix(1.00, 0.00, -0.00, -1.00, 538.2, 169.0)">r</text><text xml:space="preserve" font-family="Helvetica-Bold" font-weight="bold" font-size="64.0" fill="#FF2600" transform="matrix(1.00, 0.00, -0.00, -1.00, 563.1, 169.0)">i</text><text xml:space="preserve" font-family="Helvetica-Bold" font-weight="bold" font-size="64.0" fill="#FF2600" transform="matrix(1.00, 0.00, -0.00, -1.00, 580.8, 169.0)">b</text><text xml:space="preserve" font-family="Helvetica-Bold" font-weight="bold" font-size="64.0" fill="#FF2600" transform="matrix(1.00, 0.00, -0.00, -1.00, 619.9, 169.0)">u</text><text xml:space="preserve" font-family="Helvetica-Bold" font-weight="bold" font-size="64.0" fill="#FF2600" transform="matrix(1.00, 0.00, -0.00, -1.00, 659.0, 169.0)">t</text><text xml:space="preserve" font-family="Helvetica-Bold" font-weight="bold" font-size="64.0" fill="#FF2600" transform="matrix(1.00, 0.00, -0.00, -1.00, 680.3, 169.0)">e</text><text xml:space="preserve" font-family="Helvetica-Bold" font-weight="bold" font-size="64.0" fill="#FF2600" transform="matrix(1.00, 0.00, -0.00, -1.00, 715.9, 169.0)"> </text><text xml:space="preserve" font-family="Helvetica-Bold" font-weight="bold" font-size="64.0" fill="#FF2600" transform="matrix(1.00, 0.00, -0.00, -1.00, 733.7, 169.0)">v</text><text xml:space="preserve" font-family="Helvetica-Bold" font-weight="bold" font-size="64.0" fill="#FF2600" transform="matrix(1.00, 0.00, -0.00, -1.00, 769.3, 169.0)">a</text><text xml:space="preserve" font-family="Helvetica-Bold" font-weight="bold" font-size="64.0" fill="#FF2600" transform="matrix(1.00, 0.00, -0.00, -1.00, 804.9, 169.0)">l</text><text xml:space="preserve" font-family="Helvetica-Bold" font-weight="bold" font-size="64.0" fill="#FF2600" transform="matrix(1.00, 0.00, -0.00, -1.00, 822.7, 169.0)">u</text><text xml:space="preserve" font-family="Helvetica-Bold" font-weight="bold" font-size="64.0" fill="#FF2600" transform="matrix(1.00, 0.00, -0.00, -1.00, 861.8, 169.0)">e</text><text xml:space="preserve" font-family="Helvetica-Bold" font-weight="bold" font-size="64.0" fill="#FF2600" transform="matrix(1.00, 0.00, -0.00, -1.00, 897.4, 169.0)">s</text><text xml:space="preserve" font-family="Helvetica-Light" font-size="64.0" fill="#FEFFFF" transform="matrix(1.00, 0.00, -0.00, -1.00, 933.0, 169.0)">.</text><text xml:space="preserve" font-family="Helvetica-Light" font-size="64.0" fill="#FEFFFF" transform="matrix(1.00, 0.00, -0.00, -1.00, 950.7, 169.0)"> </text><text xml:space="preserve" font-family="Helvetica-Light" font-size="64.0" fill="#FEFFFF" transform="matrix(1.00, 0.00, -0.00, -1.00, 1.0, 92.0)">A</text><text xml:space="preserve" font-family="Helvetica-Light" font-size="64.0" fill="#FEFFFF" transform="matrix(1.00, 0.00, -0.00, -1.00, 43.7, 92.0)">l</text><text xml:space="preserve" font-family="Helvetica-Light" font-size="64.0" fill="#FEFFFF" transform="matrix(1.00, 0.00, -0.00, -1.00, 57.9, 92.0)">w</text><text xml:space="preserve" font-family="Helvetica-Light" font-size="64.0" fill="#FEFFFF" transform="matrix(1.00, 0.00, -0.00, -1.00, 104.1, 92.0)">a</text><text xml:space="preserve" font-family="Helvetica-Light" font-size="64.0" fill="#FEFFFF" transform="matrix(1.00, 0.00, -0.00, -1.00, 139.7, 92.0)">y</text><text xml:space="preserve" font-family="Helvetica-Light" font-size="64.0" fill="#FEFFFF" transform="matrix(1.00, 0.00, -0.00, -1.00, 171.7, 92.0)">s</text><text xml:space="preserve" font-family="Helvetica-Light" font-size="64.0" fill="#FEFFFF" transform="matrix(1.00, 0.00, -0.00, -1.00, 203.7, 92.0)"> </text><text xml:space="preserve" font-family="Helvetica-Light" font-size="64.0" fill="#FEFFFF" transform="matrix(1.00, 0.00, -0.00, -1.00, 221.5, 92.0)">u</text><text xml:space="preserve" font-family="Helvetica-Light" font-size="64.0" fill="#FEFFFF" transform="matrix(1.00, 0.00, -0.00, -1.00, 257.1, 92.0)">s</text><text xml:space="preserve" font-family="Helvetica-Light" font-size="64.0" fill="#FEFFFF" transform="matrix(1.00, 0.00, -0.00, -1.00, 289.1, 92.0)">e</text><text xml:space="preserve" font-family="Helvetica-Light" font-size="64.0" fill="#FEFFFF" transform="matrix(1.00, 0.00, -0.00, -1.00, 324.6, 92.0)"> </text><text xml:space="preserve" font-family="Helvetica-Bold" font-weight="bold" font-size="64.0" fill="#FF2600" transform="matrix(1.00, 0.00, -0.00, -1.00, 342.4, 92.0)">d</text><text xml:space="preserve" font-family="Helvetica-Bold" font-weight="bold" font-size="64.0" fill="#FF2600" transform="matrix(1.00, 0.00, -0.00, -1.00, 381.5, 92.0)">o</text><text xml:space="preserve" font-family="Helvetica-Bold" font-weight="bold" font-size="64.0" fill="#FF2600" transform="matrix(1.00, 0.00, -0.00, -1.00, 420.6, 92.0)">u</text><text xml:space="preserve" font-family="Helvetica-Bold" font-weight="bold" font-size="64.0" fill="#FF2600" transform="matrix(1.00, 0.00, -0.00, -1.00, 459.7, 92.0)">b</text><text xml:space="preserve" font-family="Helvetica-Bold" font-weight="bold" font-size="64.0" fill="#FF2600" transform="matrix(1.00, 0.00, -0.00, -1.00, 498.8, 92.0)">l</text><text xml:space="preserve" font-family="Helvetica-Bold" font-weight="bold" font-size="64.0" fill="#FF2600" transform="matrix(1.00, 0.00, -0.00, -1.00, 516.5, 92.0)">e</text><text xml:space="preserve" font-family="Helvetica-Bold" font-weight="bold" font-size="64.0" fill="#FF2600" transform="matrix(1.00, 0.00, -0.00, -1.00, 552.1, 92.0)"> </text><text xml:space="preserve" font-family="Helvetica-Bold" font-weight="bold" font-size="64.0" fill="#FF2600" transform="matrix(1.00, 0.00, -0.00, -1.00, 569.9, 92.0)">q</text><text xml:space="preserve" font-family="Helvetica-Bold" font-weight="bold" font-size="64.0" fill="#FF2600" transform="matrix(1.00, 0.00, -0.00, -1.00, 609.0, 92.0)">u</text><text xml:space="preserve" font-family="Helvetica-Bold" font-weight="bold" font-size="64.0" fill="#FF2600" transform="matrix(1.00, 0.00, -0.00, -1.00, 648.1, 92.0)">o</text><text xml:space="preserve" font-family="Helvetica-Bold" font-weight="bold" font-size="64.0" fill="#FF2600" transform="matrix(1.00, 0.00, -0.00, -1.00, 687.2, 92.0)">t</text><text xml:space="preserve" font-family="Helvetica-Bold" font-weight="bold" font-size="64.0" fill="#FF2600" transform="matrix(1.00, 0.00, -0.00, -1.00, 708.5, 92.0)">e</text><text xml:space="preserve" font-family="Helvetica-Bold" font-weight="bold" font-size="64.0" fill="#FF2600" transform="matrix(1.00, 0.00, -0.00, -1.00, 744.1, 92.0)">s</text><text xml:space="preserve" font-family="Helvetica-Light" font-size="64.0" fill="#FEFFFF" transform="matrix(1.00, 0.00, -0.00, -1.00, 779.8, 92.0)"> </text><text xml:space="preserve" font-family="Helvetica-Light" font-size="64.0" fill="#FEFFFF" transform="matrix(1.00, 0.00, -0.00, -1.00, 797.5, 92.0)">i</text><text xml:space="preserve" font-family="Helvetica-Light" font-size="64.0" fill="#FEFFFF" transform="matrix(1.00, 0.00, -0.00, -1.00, 811.8, 92.0)">n</text><text xml:space="preserve" font-family="Helvetica-Light" font-size="64.0" fill="#FEFFFF" transform="matrix(1.00, 0.00, -0.00, -1.00, 847.3, 92.0)">s</text><text xml:space="preserve" font-family="Helvetica-Light" font-size="64.0" fill="#FEFFFF" transform="matrix(1.00, 0.00, -0.00, -1.00, 879.3, 92.0)">t</text><text xml:space="preserve" font-family="Helvetica-Light" font-size="64.0" fill="#FEFFFF" transform="matrix(1.00, 0.00, -0.00, -1.00, 897.1, 92.0)">e</text><text xml:space="preserve" font-family="Helvetica-Light" font-size="64.0" fill="#FEFFFF" transform="matrix(1.00, 0.00, -0.00, -1.00, 932.7, 92.0)">a</text><text xml:space="preserve" font-family="Helvetica-Light" font-size="64.0" fill="#FEFFFF" transform="matrix(1.00, 0.00, -0.00, -1.00, 968.3, 92.0)">d</text><text xml:space="preserve" font-family="Helvetica-Light" font-size="64.0" fill="#FEFFFF" transform="matrix(1.00, 0.00, -0.00, -1.00, 1007.4, 92.0)"> </text><text xml:space="preserve" font-family="Helvetica-Light" font-size="64.0" fill="#FEFFFF" transform="matrix(1.00, 0.00, -0.00, -1.00, 267.0, 15.0)">o</text><text xml:space="preserve" font-family="Helvetica-Light" font-size="64.0" fill="#FEFFFF" transform="matrix(1.00, 0.00, -0.00, -1.00, 302.6, 15.0)">f</text><text xml:space="preserve" font-family="Helvetica-Light" font-size="64.0" fill="#FEFFFF" transform="matrix(1.00, 0.00, -0.00, -1.00, 320.4, 15.0)"> </text><text xml:space="preserve" font-family="Helvetica-Light" font-size="64.0" fill="#FEFFFF" transform="matrix(1.00, 0.00, -0.00, -1.00, 338.2, 15.0)">s</text><text xml:space="preserve" font-family="Helvetica-Light" font-size="64.0" fill="#FEFFFF" transform="matrix(1.00, 0.00, -0.00, -1.00, 370.2, 15.0)">i</text><text xml:space="preserve" font-family="Helvetica-Light" font-size="64.0" fill="#FEFFFF" transform="matrix(1.00, 0.00, -0.00, -1.00, 384.4, 15.0)">n</text><text xml:space="preserve" font-family="Helvetica-Light" font-size="64.0" fill="#FEFFFF" transform="matrix(1.00, 0.00, -0.00, -1.00, 420.0, 15.0)">g</text><text xml:space="preserve" font-family="Helvetica-Light" font-size="64.0" fill="#FEFFFF" transform="matrix(1.00, 0.00, -0.00, -1.00, 459.1, 15.0)">l</text><text xml:space="preserve" font-family="Helvetica-Light" font-size="64.0" fill="#FEFFFF" transform="matrix(1.00, 0.00, -0.00, -1.00, 473.3, 15.0)">e</text><text xml:space="preserve" font-family="Helvetica-Light" font-size="64.0" fill="#FEFFFF" transform="matrix(1.00, 0.00, -0.00, -1.00, 508.9, 15.0)"> </text><text xml:space="preserve" font-family="Helvetica-Light" font-size="64.0" fill="#FEFFFF" transform="matrix(1.00, 0.00, -0.00, -1.00, 526.6, 15.0)">q</text><text xml:space="preserve" font-family="Helvetica-Light" font-size="64.0" fill="#FEFFFF" transform="matrix(1.00, 0.00, -0.00, -1.00, 565.8, 15.0)">u</text><text xml:space="preserve" font-family="Helvetica-Light" font-size="64.0" fill="#FEFFFF" transform="matrix(1.00, 0.00, -0.00, -1.00, 601.3, 15.0)">o</text><text xml:space="preserve" font-family="Helvetica-Light" font-size="64.0" fill="#FEFFFF" transform="matrix(1.00, 0.00, -0.00, -1.00, 636.9, 15.0)">t</text><text xml:space="preserve" font-family="Helvetica-Light" font-size="64.0" fill="#FEFFFF" transform="matrix(1.00, 0.00, -0.00, -1.00, 654.7, 15.0)">e</text><text xml:space="preserve" font-family="Helvetica-Light" font-size="64.0" fill="#FEFFFF" transform="matrix(1.00, 0.00, -0.00, -1.00, 690.3, 15.0)">s</text><text xml:space="preserve" font-family="Helvetica-Light" font-size="64.0" fill="#FEFFFF" transform="matrix(1.00, 0.00, -0.00, -1.00, 722.3, 15.0)">.</text></g></svg>