<?xml version="1.0" encoding="UTF-8" standalone="no"?><svg xmlns="http://www.w3.org/2000/svg" xmlns:xlink="http://www.w3.org/1999/xlink" clip-rule="evenodd" stroke-miterlimit="4.00" viewBox="0 0 1024 768"><desc>SVG generated by Keynote</desc><defs></defs><g transform="matrix(1.00, 0.00, -0.00, -1.00, 0.0, 768.0)"><path d="M 0.0 768.0 L 1024.0 768.0 L 1024.0 0.0 L 0.0 0.0 Z M 0.0 768.0 " fill="#000000"></path><text xml:space="preserve" font-family="Helvetica-Light" font-size="85.0" fill="#FEFFFF" transform="matrix(1.00, 0.00, -0.00, -1.00, 104.0, 404.0)">D</text><text xml:space="preserve" font-family="Helvetica-Light" font-size="85.0" fill="#FEFFFF" transform="matrix(1.00, 0.00, -0.00, -1.00, 165.3, 404.0)">i</text><text xml:space="preserve" font-family="Helvetica-Light" font-size="85.0" fill="#FEFFFF" transform="matrix(1.00, 0.00, -0.00, -1.00, 184.2, 404.0)">d</text><text xml:space="preserve" font-family="Helvetica-Light" font-size="85.0" fill="#FEFFFF" transform="matrix(1.00, 0.00, -0.00, -1.00, 236.1, 404.0)"> </text><text xml:space="preserve" font-family="Helvetica-Light" font-size="85.0" fill="#FEFFFF" transform="matrix(1.00, 0.00, -0.00, -1.00, 259.7, 404.0)">y</text><text xml:space="preserve" font-family="Helvetica-Light" font-size="85.0" fill="#FEFFFF" transform="matrix(1.00, 0.00, -0.00, -1.00, 302.2, 404.0)">o</text><text xml:space="preserve" font-family="Helvetica-Light" font-size="85.0" fill="#FEFFFF" transform="matrix(1.00, 0.00, -0.00, -1.00, 349.4, 404.0)">u</text><text xml:space="preserve" font-family="Helvetica-Light" font-size="85.0" fill="#FEFFFF" transform="matrix(1.00, 0.00, -0.00, -1.00, 396.7, 404.0)"> </text><text xml:space="preserve" font-family="Helvetica-Light" font-size="85.0" fill="#FEFFFF" transform="matrix(1.00, 0.00, -0.00, -1.00, 420.3, 404.0)">R</text><text xml:space="preserve" font-family="Helvetica-Light" font-size="85.0" fill="#FEFFFF" transform="matrix(1.00, 0.00, -0.00, -1.00, 477.0, 404.0)">E</text><text xml:space="preserve" font-family="Helvetica-Light" font-size="85.0" fill="#FEFFFF" transform="matrix(1.00, 0.00, -0.00, -1.00, 528.9, 404.0)">A</text><text xml:space="preserve" font-family="Helvetica-Light" font-size="85.0" fill="#FEFFFF" transform="matrix(1.00, 0.00, -0.00, -1.00, 585.6, 404.0)">L</text><text xml:space="preserve" font-family="Helvetica-Light" font-size="85.0" fill="#FEFFFF" transform="matrix(1.00, 0.00, -0.00, -1.00, 632.8, 404.0)">L</text><text xml:space="preserve" font-family="Helvetica-Light" font-size="85.0" fill="#FEFFFF" transform="matrix(1.00, 0.00, -0.00, -1.00, 670.6, 404.0)">Y</text><text xml:space="preserve" font-family="Helvetica-Light" font-size="85.0" fill="#FEFFFF" transform="matrix(1.00, 0.00, -0.00, -1.00, 722.5, 404.0)"> </text><text xml:space="preserve" font-family="Helvetica-Light" font-size="85.0" fill="#FEFFFF" transform="matrix(1.00, 0.00, -0.00, -1.00, 746.1, 404.0)">r</text><text xml:space="preserve" font-family="Helvetica-Light" font-size="85.0" fill="#FEFFFF" transform="matrix(1.00, 0.00, -0.00, -1.00, 772.9, 404.0)">e</text><text xml:space="preserve" font-family="Helvetica-Light" font-size="85.0" fill="#FEFFFF" transform="matrix(1.00, 0.00, -0.00, -1.00, 820.1, 404.0)">a</text><text xml:space="preserve" font-family="Helvetica-Light" font-size="85.0" fill="#FEFFFF" transform="matrix(1.00, 0.00, -0.00, -1.00, 867.4, 404.0)">d</text><text xml:space="preserve" font-family="Helvetica-Light" font-size="85.0" fill="#FEFFFF" transform="matrix(1.00, 0.00, -0.00, -1.00, 919.3, 404.0)"> </text><text xml:space="preserve" font-family="Helvetica-Light" font-size="85.0" fill="#FEFFFF" transform="matrix(1.00, 0.00, -0.00, -1.00, 203.0, 302.0)">t</text><text xml:space="preserve" font-family="Helvetica-Light" font-size="85.0" fill="#FEFFFF" transform="matrix(1.00, 0.00, -0.00, -1.00, 226.6, 302.0)">h</text><text xml:space="preserve" font-family="Helvetica-Light" font-size="85.0" fill="#FEFFFF" transform="matrix(1.00, 0.00, -0.00, -1.00, 273.9, 302.0)">e</text><text xml:space="preserve" font-family="Helvetica-Light" font-size="85.0" fill="#FEFFFF" transform="matrix(1.00, 0.00, -0.00, -1.00, 321.1, 302.0)"> </text><text xml:space="preserve" font-family="Helvetica-Light" font-size="85.0" fill="#FEFFFF" transform="matrix(1.00, 0.00, -0.00, -1.00, 344.7, 302.0)">w</text><text xml:space="preserve" font-family="Helvetica-Light" font-size="85.0" fill="#FEFFFF" transform="matrix(1.00, 0.00, -0.00, -1.00, 406.1, 302.0)">h</text><text xml:space="preserve" font-family="Helvetica-Light" font-size="85.0" fill="#FEFFFF" transform="matrix(1.00, 0.00, -0.00, -1.00, 453.3, 302.0)">o</text><text xml:space="preserve" font-family="Helvetica-Light" font-size="85.0" fill="#FEFFFF" transform="matrix(1.00, 0.00, -0.00, -1.00, 500.5, 302.0)">l</text><text xml:space="preserve" font-family="Helvetica-Light" font-size="85.0" fill="#FEFFFF" transform="matrix(1.00, 0.00, -0.00, -1.00, 519.4, 302.0)">e</text><text xml:space="preserve" font-family="Helvetica-Light" font-size="85.0" fill="#FEFFFF" transform="matrix(1.00, 0.00, -0.00, -1.00, 566.6, 302.0)"> </text><text xml:space="preserve" font-family="Helvetica-Light" font-size="85.0" fill="#FEFFFF" transform="matrix(1.00, 0.00, -0.00, -1.00, 590.2, 302.0)">t</text><text xml:space="preserve" font-family="Helvetica-Light" font-size="85.0" fill="#FEFFFF" transform="matrix(1.00, 0.00, -0.00, -1.00, 613.9, 302.0)">h</text><text xml:space="preserve" font-family="Helvetica-Light" font-size="85.0" fill="#FEFFFF" transform="matrix(1.00, 0.00, -0.00, -1.00, 661.1, 302.0)">i</text><text xml:space="preserve" font-family="Helvetica-Light" font-size="85.0" fill="#FEFFFF" transform="matrix(1.00, 0.00, -0.00, -1.00, 680.0, 302.0)">n</text><text xml:space="preserve" font-family="Helvetica-Light" font-size="85.0" fill="#FEFFFF" transform="matrix(1.00, 0.00, -0.00, -1.00, 727.2, 302.0)">g</text><text xml:space="preserve" font-family="Helvetica-Light" font-size="85.0" fill="#FEFFFF" transform="matrix(1.00, 0.00, -0.00, -1.00, 779.1, 302.0)">?</text></g></svg>