<?xml version="1.0" encoding="UTF-8" standalone="no"?><svg xmlns="http://www.w3.org/2000/svg" xmlns:xlink="http://www.w3.org/1999/xlink" clip-rule="evenodd" stroke-miterlimit="4.00" viewBox="0 0 811 353"><desc>SVG generated by Keynote</desc><defs></defs><g transform="matrix(1.00, 0.00, -0.00, -1.00, 0.0, 353.0)"><text xml:space="preserve" font-family="Helvetica-Light" font-size="60.5" fill="#FEFFFF" transform="matrix(1.00, 0.00, -0.00, -1.00, 70.0, 308.0)">“</text><text xml:space="preserve" font-family="Helvetica-Light" font-size="60.5" fill="#FEFFFF" transform="matrix(1.00, 0.00, -0.00, -1.00, 93.5, 308.0)">W</text><text xml:space="preserve" font-family="Helvetica-Light" font-size="60.5" fill="#FEFFFF" transform="matrix(1.00, 0.00, -0.00, -1.00, 147.3, 308.0)">h</text><text xml:space="preserve" font-family="Helvetica-Light" font-size="60.5" fill="#FEFFFF" transform="matrix(1.00, 0.00, -0.00, -1.00, 180.9, 308.0)">e</text><text xml:space="preserve" font-family="Helvetica-Light" font-size="60.5" fill="#FEFFFF" transform="matrix(1.00, 0.00, -0.00, -1.00, 214.5, 308.0)">n</text><text xml:space="preserve" font-family="Helvetica-Light" font-size="60.5" fill="#FEFFFF" transform="matrix(1.00, 0.00, -0.00, -1.00, 248.2, 308.0)"> </text><text xml:space="preserve" font-family="Helvetica-Light" font-size="60.5" fill="#FEFFFF" transform="matrix(1.00, 0.00, -0.00, -1.00, 265.0, 308.0)">y</text><text xml:space="preserve" font-family="Helvetica-Light" font-size="60.5" fill="#FEFFFF" transform="matrix(1.00, 0.00, -0.00, -1.00, 295.2, 308.0)">o</text><text xml:space="preserve" font-family="Helvetica-Light" font-size="60.5" fill="#FEFFFF" transform="matrix(1.00, 0.00, -0.00, -1.00, 328.9, 308.0)">u</text><text xml:space="preserve" font-family="Helvetica-Light" font-size="60.5" fill="#FEFFFF" transform="matrix(1.00, 0.00, -0.00, -1.00, 362.5, 308.0)"> </text><text xml:space="preserve" font-family="Helvetica-Light" font-size="60.5" fill="#FEFFFF" transform="matrix(1.00, 0.00, -0.00, -1.00, 379.3, 308.0)">h</text><text xml:space="preserve" font-family="Helvetica-Light" font-size="60.5" fill="#FEFFFF" transform="matrix(1.00, 0.00, -0.00, -1.00, 412.9, 308.0)">a</text><text xml:space="preserve" font-family="Helvetica-Light" font-size="60.5" fill="#FEFFFF" transform="matrix(1.00, 0.00, -0.00, -1.00, 446.5, 308.0)">v</text><text xml:space="preserve" font-family="Helvetica-Light" font-size="60.5" fill="#FEFFFF" transform="matrix(1.00, 0.00, -0.00, -1.00, 476.8, 308.0)">e</text><text xml:space="preserve" font-family="Helvetica-Light" font-size="60.5" fill="#FEFFFF" transform="matrix(1.00, 0.00, -0.00, -1.00, 510.4, 308.0)"> </text><text xml:space="preserve" font-family="Helvetica-Light" font-size="60.5" fill="#FEFFFF" transform="matrix(1.00, 0.00, -0.00, -1.00, 527.2, 308.0)">r</text><text xml:space="preserve" font-family="Helvetica-Light" font-size="60.5" fill="#FEFFFF" transform="matrix(1.00, 0.00, -0.00, -1.00, 547.4, 308.0)">a</text><text xml:space="preserve" font-family="Helvetica-Light" font-size="60.5" fill="#FEFFFF" transform="matrix(1.00, 0.00, -0.00, -1.00, 581.0, 308.0)">n</text><text xml:space="preserve" font-family="Helvetica-Light" font-size="60.5" fill="#FEFFFF" transform="matrix(1.00, 0.00, -0.00, -1.00, 614.6, 308.0)">d</text><text xml:space="preserve" font-family="Helvetica-Light" font-size="60.5" fill="#FEFFFF" transform="matrix(1.00, 0.00, -0.00, -1.00, 651.6, 308.0)">o</text><text xml:space="preserve" font-family="Helvetica-Light" font-size="60.5" fill="#FEFFFF" transform="matrix(1.00, 0.00, -0.00, -1.00, 685.2, 308.0)">m</text><text xml:space="preserve" font-family="Helvetica-Light" font-size="60.5" fill="#FEFFFF" transform="matrix(1.00, 0.00, -0.00, -1.00, 735.6, 308.0)"> </text><text xml:space="preserve" font-family="Helvetica-Light" font-size="60.5" fill="#FEFFFF" transform="matrix(1.00, 0.00, -0.00, -1.00, -4.0, 235.0)">p</text><text xml:space="preserve" font-family="Helvetica-Light" font-size="60.5" fill="#FEFFFF" transform="matrix(1.00, 0.00, -0.00, -1.00, 33.0, 235.0)">e</text><text xml:space="preserve" font-family="Helvetica-Light" font-size="60.5" fill="#FEFFFF" transform="matrix(1.00, 0.00, -0.00, -1.00, 66.6, 235.0)">o</text><text xml:space="preserve" font-family="Helvetica-Light" font-size="60.5" fill="#FEFFFF" transform="matrix(1.00, 0.00, -0.00, -1.00, 100.2, 235.0)">p</text><text xml:space="preserve" font-family="Helvetica-Light" font-size="60.5" fill="#FEFFFF" transform="matrix(1.00, 0.00, -0.00, -1.00, 137.2, 235.0)">l</text><text xml:space="preserve" font-family="Helvetica-Light" font-size="60.5" fill="#FEFFFF" transform="matrix(1.00, 0.00, -0.00, -1.00, 150.6, 235.0)">e</text><text xml:space="preserve" font-family="Helvetica-Light" font-size="60.5" fill="#FEFFFF" transform="matrix(1.00, 0.00, -0.00, -1.00, 184.2, 235.0)"> </text><text xml:space="preserve" font-family="Helvetica-Light" font-size="60.5" fill="#FEFFFF" transform="matrix(1.00, 0.00, -0.00, -1.00, 201.0, 235.0)">w</text><text xml:space="preserve" font-family="Helvetica-Light" font-size="60.5" fill="#FEFFFF" transform="matrix(1.00, 0.00, -0.00, -1.00, 244.7, 235.0)">o</text><text xml:space="preserve" font-family="Helvetica-Light" font-size="60.5" fill="#FEFFFF" transform="matrix(1.00, 0.00, -0.00, -1.00, 278.3, 235.0)">r</text><text xml:space="preserve" font-family="Helvetica-Light" font-size="60.5" fill="#FEFFFF" transform="matrix(1.00, 0.00, -0.00, -1.00, 298.5, 235.0)">k</text><text xml:space="preserve" font-family="Helvetica-Light" font-size="60.5" fill="#FEFFFF" transform="matrix(1.00, 0.00, -0.00, -1.00, 328.7, 235.0)">i</text><text xml:space="preserve" font-family="Helvetica-Light" font-size="60.5" fill="#FEFFFF" transform="matrix(1.00, 0.00, -0.00, -1.00, 342.1, 235.0)">n</text><text xml:space="preserve" font-family="Helvetica-Light" font-size="60.5" fill="#FEFFFF" transform="matrix(1.00, 0.00, -0.00, -1.00, 375.8, 235.0)">g</text><text xml:space="preserve" font-family="Helvetica-Light" font-size="60.5" fill="#FEFFFF" transform="matrix(1.00, 0.00, -0.00, -1.00, 412.7, 235.0)"> </text><text xml:space="preserve" font-family="Helvetica-Light" font-size="60.5" fill="#FEFFFF" transform="matrix(1.00, 0.00, -0.00, -1.00, 429.5, 235.0)">o</text><text xml:space="preserve" font-family="Helvetica-Light" font-size="60.5" fill="#FEFFFF" transform="matrix(1.00, 0.00, -0.00, -1.00, 463.1, 235.0)">n</text><text xml:space="preserve" font-family="Helvetica-Light" font-size="60.5" fill="#FEFFFF" transform="matrix(1.00, 0.00, -0.00, -1.00, 496.8, 235.0)"> </text><text xml:space="preserve" font-family="Helvetica-Light" font-size="60.5" fill="#FEFFFF" transform="matrix(1.00, 0.00, -0.00, -1.00, 513.6, 235.0)">t</text><text xml:space="preserve" font-family="Helvetica-Light" font-size="60.5" fill="#FEFFFF" transform="matrix(1.00, 0.00, -0.00, -1.00, 530.4, 235.0)">h</text><text xml:space="preserve" font-family="Helvetica-Light" font-size="60.5" fill="#FEFFFF" transform="matrix(1.00, 0.00, -0.00, -1.00, 564.0, 235.0)">e</text><text xml:space="preserve" font-family="Helvetica-Light" font-size="60.5" fill="#FEFFFF" transform="matrix(1.00, 0.00, -0.00, -1.00, 597.7, 235.0)"> </text><text xml:space="preserve" font-family="Helvetica-Light" font-size="60.5" fill="#FEFFFF" transform="matrix(1.00, 0.00, -0.00, -1.00, 614.5, 235.0)">*</text><text xml:space="preserve" font-family="Helvetica-Light" font-size="60.5" fill="#FEFFFF" transform="matrix(1.00, 0.00, -0.00, -1.00, 638.0, 235.0)">s</text><text xml:space="preserve" font-family="Helvetica-Light" font-size="60.5" fill="#FEFFFF" transform="matrix(1.00, 0.00, -0.00, -1.00, 668.2, 235.0)">a</text><text xml:space="preserve" font-family="Helvetica-Light" font-size="60.5" fill="#FEFFFF" transform="matrix(1.00, 0.00, -0.00, -1.00, 701.9, 235.0)">m</text><text xml:space="preserve" font-family="Helvetica-Light" font-size="60.5" fill="#FEFFFF" transform="matrix(1.00, 0.00, -0.00, -1.00, 752.2, 235.0)">e</text><text xml:space="preserve" font-family="Helvetica-Light" font-size="60.5" fill="#FEFFFF" transform="matrix(1.00, 0.00, -0.00, -1.00, 785.9, 235.0)">*</text><text xml:space="preserve" font-family="Helvetica-Light" font-size="60.5" fill="#FEFFFF" transform="matrix(1.00, 0.00, -0.00, -1.00, 809.4, 235.0)"> </text><text xml:space="preserve" font-family="Helvetica-Light" font-size="60.5" fill="#FEFFFF" transform="matrix(1.00, 0.00, -0.00, -1.00, 33.0, 162.0)">c</text><text xml:space="preserve" font-family="Helvetica-Light" font-size="60.5" fill="#FEFFFF" transform="matrix(1.00, 0.00, -0.00, -1.00, 66.6, 162.0)">o</text><text xml:space="preserve" font-family="Helvetica-Light" font-size="60.5" fill="#FEFFFF" transform="matrix(1.00, 0.00, -0.00, -1.00, 100.3, 162.0)">d</text><text xml:space="preserve" font-family="Helvetica-Light" font-size="60.5" fill="#FEFFFF" transform="matrix(1.00, 0.00, -0.00, -1.00, 137.2, 162.0)">e</text><text xml:space="preserve" font-family="Helvetica-Light" font-size="60.5" fill="#FEFFFF" transform="matrix(1.00, 0.00, -0.00, -1.00, 170.8, 162.0)"> </text><text xml:space="preserve" font-family="Helvetica-Light" font-size="60.5" fill="#FEFFFF" transform="matrix(1.00, 0.00, -0.00, -1.00, 187.6, 162.0)">t</text><text xml:space="preserve" font-family="Helvetica-Light" font-size="60.5" fill="#FEFFFF" transform="matrix(1.00, 0.00, -0.00, -1.00, 204.5, 162.0)">o</text><text xml:space="preserve" font-family="Helvetica-Light" font-size="60.5" fill="#FEFFFF" transform="matrix(1.00, 0.00, -0.00, -1.00, 238.1, 162.0)">g</text><text xml:space="preserve" font-family="Helvetica-Light" font-size="60.5" fill="#FEFFFF" transform="matrix(1.00, 0.00, -0.00, -1.00, 275.0, 162.0)">e</text><text xml:space="preserve" font-family="Helvetica-Light" font-size="60.5" fill="#FEFFFF" transform="matrix(1.00, 0.00, -0.00, -1.00, 308.7, 162.0)">t</text><text xml:space="preserve" font-family="Helvetica-Light" font-size="60.5" fill="#FEFFFF" transform="matrix(1.00, 0.00, -0.00, -1.00, 325.5, 162.0)">h</text><text xml:space="preserve" font-family="Helvetica-Light" font-size="60.5" fill="#FEFFFF" transform="matrix(1.00, 0.00, -0.00, -1.00, 359.1, 162.0)">e</text><text xml:space="preserve" font-family="Helvetica-Light" font-size="60.5" fill="#FEFFFF" transform="matrix(1.00, 0.00, -0.00, -1.00, 392.7, 162.0)">r</text><text xml:space="preserve" font-family="Helvetica-Light" font-size="60.5" fill="#FEFFFF" transform="matrix(1.00, 0.00, -0.00, -1.00, 407.3, 162.0)">,</text><text xml:space="preserve" font-family="Helvetica-Light" font-size="60.5" fill="#FEFFFF" transform="matrix(1.00, 0.00, -0.00, -1.00, 424.1, 162.0)"> </text><text xml:space="preserve" font-family="Helvetica-Light" font-size="60.5" fill="#FEFFFF" transform="matrix(1.00, 0.00, -0.00, -1.00, 440.9, 162.0)">n</text><text xml:space="preserve" font-family="Helvetica-Light" font-size="60.5" fill="#FEFFFF" transform="matrix(1.00, 0.00, -0.00, -1.00, 474.6, 162.0)">o</text><text xml:space="preserve" font-family="Helvetica-Light" font-size="60.5" fill="#FEFFFF" transform="matrix(1.00, 0.00, -0.00, -1.00, 508.2, 162.0)">t</text><text xml:space="preserve" font-family="Helvetica-Light" font-size="60.5" fill="#FEFFFF" transform="matrix(1.00, 0.00, -0.00, -1.00, 525.0, 162.0)"> </text><text xml:space="preserve" font-family="Helvetica-Light" font-size="60.5" fill="#FEFFFF" transform="matrix(1.00, 0.00, -0.00, -1.00, 541.8, 162.0)">h</text><text xml:space="preserve" font-family="Helvetica-Light" font-size="60.5" fill="#FEFFFF" transform="matrix(1.00, 0.00, -0.00, -1.00, 575.4, 162.0)">a</text><text xml:space="preserve" font-family="Helvetica-Light" font-size="60.5" fill="#FEFFFF" transform="matrix(1.00, 0.00, -0.00, -1.00, 609.1, 162.0)">v</text><text xml:space="preserve" font-family="Helvetica-Light" font-size="60.5" fill="#FEFFFF" transform="matrix(1.00, 0.00, -0.00, -1.00, 639.3, 162.0)">i</text><text xml:space="preserve" font-family="Helvetica-Light" font-size="60.5" fill="#FEFFFF" transform="matrix(1.00, 0.00, -0.00, -1.00, 652.7, 162.0)">n</text><text xml:space="preserve" font-family="Helvetica-Light" font-size="60.5" fill="#FEFFFF" transform="matrix(1.00, 0.00, -0.00, -1.00, 686.4, 162.0)">g</text><text xml:space="preserve" font-family="Helvetica-Light" font-size="60.5" fill="#FEFFFF" transform="matrix(1.00, 0.00, -0.00, -1.00, 723.3, 162.0)"> </text><text xml:space="preserve" font-family="Helvetica-Light" font-size="60.5" fill="#FEFFFF" transform="matrix(1.00, 0.00, -0.00, -1.00, 740.1, 162.0)">a</text><text xml:space="preserve" font-family="Helvetica-Light" font-size="60.5" fill="#FEFFFF" transform="matrix(1.00, 0.00, -0.00, -1.00, 773.8, 162.0)"> </text><text xml:space="preserve" font-family="Helvetica-Light" font-size="60.5" fill="#FEFFFF" transform="matrix(1.00, 0.00, -0.00, -1.00, 114.0, 89.0)">c</text><text xml:space="preserve" font-family="Helvetica-Light" font-size="60.5" fill="#FEFFFF" transform="matrix(1.00, 0.00, -0.00, -1.00, 147.6, 89.0)">o</text><text xml:space="preserve" font-family="Helvetica-Light" font-size="60.5" fill="#FEFFFF" transform="matrix(1.00, 0.00, -0.00, -1.00, 181.3, 89.0)">d</text><text xml:space="preserve" font-family="Helvetica-Light" font-size="60.5" fill="#FEFFFF" transform="matrix(1.00, 0.00, -0.00, -1.00, 218.2, 89.0)">i</text><text xml:space="preserve" font-family="Helvetica-Light" font-size="60.5" fill="#FEFFFF" transform="matrix(1.00, 0.00, -0.00, -1.00, 231.6, 89.0)">n</text><text xml:space="preserve" font-family="Helvetica-Light" font-size="60.5" fill="#FEFFFF" transform="matrix(1.00, 0.00, -0.00, -1.00, 265.3, 89.0)">g</text><text xml:space="preserve" font-family="Helvetica-Light" font-size="60.5" fill="#FEFFFF" transform="matrix(1.00, 0.00, -0.00, -1.00, 302.2, 89.0)"> </text><text xml:space="preserve" font-family="Helvetica-Light" font-size="60.5" fill="#FEFFFF" transform="matrix(1.00, 0.00, -0.00, -1.00, 319.0, 89.0)">s</text><text xml:space="preserve" font-family="Helvetica-Light" font-size="60.5" fill="#FEFFFF" transform="matrix(1.00, 0.00, -0.00, -1.00, 349.3, 89.0)">t</text><text xml:space="preserve" font-family="Helvetica-Light" font-size="60.5" fill="#FEFFFF" transform="matrix(1.00, 0.00, -0.00, -1.00, 366.1, 89.0)">y</text><text xml:space="preserve" font-family="Helvetica-Light" font-size="60.5" fill="#FEFFFF" transform="matrix(1.00, 0.00, -0.00, -1.00, 396.3, 89.0)">l</text><text xml:space="preserve" font-family="Helvetica-Light" font-size="60.5" fill="#FEFFFF" transform="matrix(1.00, 0.00, -0.00, -1.00, 409.7, 89.0)">e</text><text xml:space="preserve" font-family="Helvetica-Light" font-size="60.5" fill="#FEFFFF" transform="matrix(1.00, 0.00, -0.00, -1.00, 443.4, 89.0)"> </text><text xml:space="preserve" font-family="Helvetica-Light" font-size="60.5" fill="#FEFFFF" transform="matrix(1.00, 0.00, -0.00, -1.00, 460.2, 89.0)">i</text><text xml:space="preserve" font-family="Helvetica-Light" font-size="60.5" fill="#FEFFFF" transform="matrix(1.00, 0.00, -0.00, -1.00, 473.6, 89.0)">s</text><text xml:space="preserve" font-family="Helvetica-Light" font-size="60.5" fill="#FEFFFF" transform="matrix(1.00, 0.00, -0.00, -1.00, 503.9, 89.0)"> </text><text xml:space="preserve" font-family="Helvetica-Light" font-size="60.5" fill="#FEFFFF" transform="matrix(1.00, 0.00, -0.00, -1.00, 520.7, 89.0)">a</text><text xml:space="preserve" font-family="Helvetica-Light" font-size="60.5" fill="#FEFFFF" transform="matrix(1.00, 0.00, -0.00, -1.00, 554.3, 89.0)"> </text><text xml:space="preserve" font-family="Helvetica-Light" font-size="60.5" fill="#FEFFFF" transform="matrix(1.00, 0.00, -0.00, -1.00, 571.1, 89.0)">n</text><text xml:space="preserve" font-family="Helvetica-Light" font-size="60.5" fill="#FEFFFF" transform="matrix(1.00, 0.00, -0.00, -1.00, 604.7, 89.0)">e</text><text xml:space="preserve" font-family="Helvetica-Light" font-size="60.5" fill="#FEFFFF" transform="matrix(1.00, 0.00, -0.00, -1.00, 638.4, 89.0)">a</text><text xml:space="preserve" font-family="Helvetica-Light" font-size="60.5" fill="#FEFFFF" transform="matrix(1.00, 0.00, -0.00, -1.00, 672.0, 89.0)">r</text><text xml:space="preserve" font-family="Helvetica-Light" font-size="60.5" fill="#FEFFFF" transform="matrix(1.00, 0.00, -0.00, -1.00, 692.1, 89.0)"> </text><text xml:space="preserve" font-family="Helvetica-Bold" font-weight="bold" font-size="60.5" fill="#FF2600" transform="matrix(1.00, 0.00, -0.00, -1.00, 38.0, 16.0)">g</text><text xml:space="preserve" font-family="Helvetica-Bold" font-weight="bold" font-size="60.5" fill="#FF2600" transform="matrix(1.00, 0.00, -0.00, -1.00, 74.9, 16.0)">u</text><text xml:space="preserve" font-family="Helvetica-Bold" font-weight="bold" font-size="60.5" fill="#FF2600" transform="matrix(1.00, 0.00, -0.00, -1.00, 111.9, 16.0)">a</text><text xml:space="preserve" font-family="Helvetica-Bold" font-weight="bold" font-size="60.5" fill="#FF2600" transform="matrix(1.00, 0.00, -0.00, -1.00, 145.5, 16.0)">r</text><text xml:space="preserve" font-family="Helvetica-Bold" font-weight="bold" font-size="60.5" fill="#FF2600" transform="matrix(1.00, 0.00, -0.00, -1.00, 169.1, 16.0)">a</text><text xml:space="preserve" font-family="Helvetica-Bold" font-weight="bold" font-size="60.5" fill="#FF2600" transform="matrix(1.00, 0.00, -0.00, -1.00, 202.7, 16.0)">n</text><text xml:space="preserve" font-family="Helvetica-Bold" font-weight="bold" font-size="60.5" fill="#FF2600" transform="matrix(1.00, 0.00, -0.00, -1.00, 239.6, 16.0)">t</text><text xml:space="preserve" font-family="Helvetica-Bold" font-weight="bold" font-size="60.5" fill="#FF2600" transform="matrix(1.00, 0.00, -0.00, -1.00, 259.8, 16.0)">e</text><text xml:space="preserve" font-family="Helvetica-Bold" font-weight="bold" font-size="60.5" fill="#FF2600" transform="matrix(1.00, 0.00, -0.00, -1.00, 293.4, 16.0)">e</text><text xml:space="preserve" font-family="Helvetica-Bold" font-weight="bold" font-size="60.5" fill="#FF2600" transform="matrix(1.00, 0.00, -0.00, -1.00, 327.1, 16.0)"> </text><text xml:space="preserve" font-family="Helvetica-Bold" font-weight="bold" font-size="60.5" fill="#FF2600" transform="matrix(1.00, 0.00, -0.00, -1.00, 343.9, 16.0)">o</text><text xml:space="preserve" font-family="Helvetica-Bold" font-weight="bold" font-size="60.5" fill="#FF2600" transform="matrix(1.00, 0.00, -0.00, -1.00, 380.8, 16.0)">f</text><text xml:space="preserve" font-family="Helvetica-Bold" font-weight="bold" font-size="60.5" fill="#FF2600" transform="matrix(1.00, 0.00, -0.00, -1.00, 400.9, 16.0)"> </text><text xml:space="preserve" font-family="Helvetica-Bold" font-weight="bold" font-size="60.5" fill="#FF2600" transform="matrix(1.00, 0.00, -0.00, -1.00, 417.7, 16.0)">u</text><text xml:space="preserve" font-family="Helvetica-Bold" font-weight="bold" font-size="60.5" fill="#FF2600" transform="matrix(1.00, 0.00, -0.00, -1.00, 454.7, 16.0)">t</text><text xml:space="preserve" font-family="Helvetica-Bold" font-weight="bold" font-size="60.5" fill="#FF2600" transform="matrix(1.00, 0.00, -0.00, -1.00, 474.8, 16.0)">t</text><text xml:space="preserve" font-family="Helvetica-Bold" font-weight="bold" font-size="60.5" fill="#FF2600" transform="matrix(1.00, 0.00, -0.00, -1.00, 494.9, 16.0)">e</text><text xml:space="preserve" font-family="Helvetica-Bold" font-weight="bold" font-size="60.5" fill="#FF2600" transform="matrix(1.00, 0.00, -0.00, -1.00, 528.6, 16.0)">r</text><text xml:space="preserve" font-family="Helvetica-Bold" font-weight="bold" font-size="60.5" fill="#FF2600" transform="matrix(1.00, 0.00, -0.00, -1.00, 552.1, 16.0)"> </text><text xml:space="preserve" font-family="Helvetica-Bold" font-weight="bold" font-size="60.5" fill="#FF2600" transform="matrix(1.00, 0.00, -0.00, -1.00, 568.9, 16.0)">c</text><text xml:space="preserve" font-family="Helvetica-Bold" font-weight="bold" font-size="60.5" fill="#FF2600" transform="matrix(1.00, 0.00, -0.00, -1.00, 602.6, 16.0)">h</text><text xml:space="preserve" font-family="Helvetica-Bold" font-weight="bold" font-size="60.5" fill="#FF2600" transform="matrix(1.00, 0.00, -0.00, -1.00, 639.5, 16.0)">a</text><text xml:space="preserve" font-family="Helvetica-Bold" font-weight="bold" font-size="60.5" fill="#FF2600" transform="matrix(1.00, 0.00, -0.00, -1.00, 673.2, 16.0)">o</text><text xml:space="preserve" font-family="Helvetica-Bold" font-weight="bold" font-size="60.5" fill="#FF2600" transform="matrix(1.00, 0.00, -0.00, -1.00, 710.1, 16.0)">s</text><text xml:space="preserve" font-family="Helvetica-Light" font-size="60.5" fill="#FEFFFF" transform="matrix(1.00, 0.00, -0.00, -1.00, 743.7, 16.0)">”</text></g></svg>