<?xml version="1.0" encoding="UTF-8" standalone="no"?><svg xmlns="http://www.w3.org/2000/svg" xmlns:xlink="http://www.w3.org/1999/xlink" clip-rule="evenodd" stroke-miterlimit="4.00" viewBox="0 0 574 114"><desc>SVG generated by Keynote</desc><defs></defs><g transform="matrix(1.00, 0.00, -0.00, -1.00, 0.0, 114.0)"><path d="M 1.4 113.0 L 572.6 113.0 L 572.6 1.9 L 1.4 1.9 Z M 1.4 113.0 " fill="#FF2600"></path><g><clipPath id="clip-11"><path d="M -15.9 -15.4 L 589.9 -15.4 L 589.9 130.4 L -15.9 130.4 Z M -15.9 -15.4 "></path></clipPath><g clip-path="url(#clip-11)"><text xml:space="preserve" font-family="Helvetica-Bold" font-weight="bold" font-size="85.4" fill="#FEFFFF" transform="matrix(1.00, 0.00, -0.00, -1.00, 47.0, 26.0)">q</text><text xml:space="preserve" font-family="Helvetica-Bold" font-weight="bold" font-size="85.4" fill="#FEFFFF" transform="matrix(1.00, 0.00, -0.00, -1.00, 99.2, 26.0)">l</text><text xml:space="preserve" font-family="Helvetica-Bold" font-weight="bold" font-size="85.4" fill="#FEFFFF" transform="matrix(1.00, 0.00, -0.00, -1.00, 122.9, 26.0)">o</text><text xml:space="preserve" font-family="Helvetica-Bold" font-weight="bold" font-size="85.4" fill="#FEFFFF" transform="matrix(1.00, 0.00, -0.00, -1.00, 175.1, 26.0)">b</text><text xml:space="preserve" font-family="Helvetica-Bold" font-weight="bold" font-size="85.4" fill="#FEFFFF" transform="matrix(1.00, 0.00, -0.00, -1.00, 227.2, 26.0)">e</text><text xml:space="preserve" font-family="Helvetica-Bold" font-weight="bold" font-size="85.4" fill="#FEFFFF" transform="matrix(1.00, 0.00, -0.00, -1.00, 274.7, 26.0)"> </text><text xml:space="preserve" font-family="Helvetica-Bold" font-weight="bold" font-size="85.4" fill="#FEFFFF" transform="matrix(1.00, 0.00, -0.00, -1.00, 298.5, 26.0)">q</text><text xml:space="preserve" font-family="Helvetica-Bold" font-weight="bold" font-size="85.4" fill="#FEFFFF" transform="matrix(1.00, 0.00, -0.00, -1.00, 350.6, 26.0)">u</text><text xml:space="preserve" font-family="Helvetica-Bold" font-weight="bold" font-size="85.4" fill="#FEFFFF" transform="matrix(1.00, 0.00, -0.00, -1.00, 402.8, 26.0)">i</text><text xml:space="preserve" font-family="Helvetica-Bold" font-weight="bold" font-size="85.4" fill="#FEFFFF" transform="matrix(1.00, 0.00, -0.00, -1.00, 426.5, 26.0)">n</text><text xml:space="preserve" font-family="Helvetica-Bold" font-weight="bold" font-size="85.4" fill="#FEFFFF" transform="matrix(1.00, 0.00, -0.00, -1.00, 478.7, 26.0)">e</text></g></g></g></svg>