<?xml version="1.0" encoding="UTF-8" standalone="no"?><svg xmlns="http://www.w3.org/2000/svg" xmlns:xlink="http://www.w3.org/1999/xlink" clip-rule="evenodd" stroke-miterlimit="4.00" viewBox="0 0 1024 768"><desc>SVG generated by Keynote</desc><defs></defs><g transform="matrix(1.00, 0.00, -0.00, -1.00, 0.0, 768.0)"><path d="M 0.0 768.0 L 1024.0 768.0 L 1024.0 0.0 L 0.0 0.0 Z M 0.0 768.0 " fill="#000000"></path><g><clipPath id="clip-8"><path d="M 184.0 761.0 L 840.0 761.0 L 840.0 7.0 L 184.0 7.0 Z M 183.7 761.0 "></path></clipPath><g clip-path="url(#clip-8)"><image xlink:href="../../F32B4B0A-354A-4F51-8BDE-85303637E560/assets/6AAD618867E8887251535DE78777CEBF.png" width="862.00" height="540.00" transform="matrix(1.53, 0.00, -0.00, -1.53, 184.0, 806.0)"></image></g></g><path d="M 100.0 514.0 L 924.0 514.0 L 924.0 254.0 L 100.0 254.0 Z M 100.0 514.0 " fill="#FF2600"></path><g><clipPath id="clip-9"><path d="M 68.0 254.0 L 956.0 254.0 L 956.0 514.0 L 68.0 514.0 Z M 68.0 254.0 "></path></clipPath><g clip-path="url(#clip-9)"><text xml:space="preserve" font-family="Helvetica-Bold" font-weight="bold" font-size="144.0" fill="#FEFFFF" transform="matrix(1.00, 0.00, -0.00, -1.00, 268.0, 330.0)">h</text><text xml:space="preserve" font-family="Helvetica-Bold" font-weight="bold" font-size="144.0" fill="#FEFFFF" transform="matrix(1.00, 0.00, -0.00, -1.00, 355.9, 330.0)">p</text><text xml:space="preserve" font-family="Helvetica-Bold" font-weight="bold" font-size="144.0" fill="#FEFFFF" transform="matrix(1.00, 0.00, -0.00, -1.00, 443.9, 330.0)">r</text><text xml:space="preserve" font-family="Helvetica-Bold" font-weight="bold" font-size="144.0" fill="#FEFFFF" transform="matrix(1.00, 0.00, -0.00, -1.00, 499.9, 330.0)">i</text><text xml:space="preserve" font-family="Helvetica-Bold" font-weight="bold" font-size="144.0" fill="#FEFFFF" transform="matrix(1.00, 0.00, -0.00, -1.00, 539.9, 330.0)">c</text><text xml:space="preserve" font-family="Helvetica-Bold" font-weight="bold" font-size="144.0" fill="#FEFFFF" transform="matrix(1.00, 0.00, -0.00, -1.00, 619.9, 330.0)">o</text><text xml:space="preserve" font-family="Helvetica-Bold" font-weight="bold" font-size="144.0" fill="#FEFFFF" transform="matrix(1.00, 0.00, -0.00, -1.00, 707.8, 330.0)">t</text></g></g></g></svg>