<?xml version="1.0" encoding="UTF-8" standalone="no"?><svg xmlns="http://www.w3.org/2000/svg" xmlns:xlink="http://www.w3.org/1999/xlink" clip-rule="evenodd" stroke-miterlimit="4.00" viewBox="0 0 1024 768"><desc>SVG generated by Keynote</desc><defs></defs><g transform="matrix(1.00, 0.00, -0.00, -1.00, 0.0, 768.0)"><path d="M 0.0 768.0 L 1024.0 768.0 L 1024.0 0.0 L 0.0 0.0 Z M 0.0 768.0 " fill="#000000"></path><image xlink:href="21E9FF9CB618B4A368F4F0FF0D8D6BA8.png" width="545.00" height="540.00" transform="matrix(1.27, 0.00, -0.00, -1.27, 166.0, 727.0)"></image><path d="M 189.0 645.0 L 846.4 645.0 L 846.4 405.5 L 189.0 405.5 Z M 189.0 645.0 " fill="#FEFFFF"></path><path d="M 189.0 297.0 L 846.4 297.0 L 846.4 57.5 L 189.0 57.5 Z M 189.0 297.0 " fill="#FEFFFF"></path><image xlink:href="A38C8690A969A1CB864B288A1EC8ACE7.png" width="664.00" height="235.00" transform="matrix(1.00, 0.00, -0.00, -1.00, 180.0, 307.0)"></image><image xlink:href="E90CB4296535D75DD8609AFF08C42BDD.png" width="606.00" height="236.00" transform="matrix(1.00, 0.00, -0.00, -1.00, 182.0, 643.0)"></image></g></svg>