<?xml version="1.0" encoding="UTF-8" standalone="no"?><svg xmlns="http://www.w3.org/2000/svg" xmlns:xlink="http://www.w3.org/1999/xlink" clip-rule="evenodd" stroke-miterlimit="4.00" viewBox="0 0 1024 768"><desc>SVG generated by Keynote</desc><defs></defs><g transform="matrix(1.00, 0.00, -0.00, -1.00, 0.0, 768.0)"><path d="M 0.0 768.0 L 1024.0 768.0 L 1024.0 0.0 L 0.0 0.0 Z M 0.0 768.0 " fill="#000000"></path><text xml:space="preserve" font-family="Helvetica-Light" font-size="112.3" fill="#FEFFFF" transform="matrix(1.00, 0.00, -0.00, -1.00, 107.0, 498.0)">~</text><text xml:space="preserve" font-family="Helvetica-Light" font-size="112.3" fill="#FEFFFF" transform="matrix(1.00, 0.00, -0.00, -1.00, 181.1, 498.0)"> </text><text xml:space="preserve" font-family="Helvetica-Light" font-size="112.3" fill="#FEFFFF" transform="matrix(1.00, 0.00, -0.00, -1.00, 212.4, 498.0)">T</text><text xml:space="preserve" font-family="Helvetica-Light" font-size="112.3" fill="#FEFFFF" transform="matrix(1.00, 0.00, -0.00, -1.00, 262.3, 498.0)">e</text><text xml:space="preserve" font-family="Helvetica-Light" font-size="112.3" fill="#FEFFFF" transform="matrix(1.00, 0.00, -0.00, -1.00, 324.8, 498.0)">s</text><text xml:space="preserve" font-family="Helvetica-Light" font-size="112.3" fill="#FEFFFF" transform="matrix(1.00, 0.00, -0.00, -1.00, 380.9, 498.0)">t</text><text xml:space="preserve" font-family="Helvetica-Light" font-size="112.3" fill="#FEFFFF" transform="matrix(1.00, 0.00, -0.00, -1.00, 412.2, 498.0)"> </text><text xml:space="preserve" font-family="Helvetica-Light" font-size="112.3" fill="#FEFFFF" transform="matrix(1.00, 0.00, -0.00, -1.00, 443.4, 498.0)">c</text><text xml:space="preserve" font-family="Helvetica-Light" font-size="112.3" fill="#FEFFFF" transform="matrix(1.00, 0.00, -0.00, -1.00, 505.8, 498.0)">o</text><text xml:space="preserve" font-family="Helvetica-Light" font-size="112.3" fill="#FEFFFF" transform="matrix(1.00, 0.00, -0.00, -1.00, 568.3, 498.0)">v</text><text xml:space="preserve" font-family="Helvetica-Light" font-size="112.3" fill="#FEFFFF" transform="matrix(1.00, 0.00, -0.00, -1.00, 624.5, 498.0)">e</text><text xml:space="preserve" font-family="Helvetica-Light" font-size="112.3" fill="#FEFFFF" transform="matrix(1.00, 0.00, -0.00, -1.00, 686.9, 498.0)">r</text><text xml:space="preserve" font-family="Helvetica-Light" font-size="112.3" fill="#FEFFFF" transform="matrix(1.00, 0.00, -0.00, -1.00, 724.3, 498.0)">a</text><text xml:space="preserve" font-family="Helvetica-Light" font-size="112.3" fill="#FEFFFF" transform="matrix(1.00, 0.00, -0.00, -1.00, 786.8, 498.0)">g</text><text xml:space="preserve" font-family="Helvetica-Light" font-size="112.3" fill="#FEFFFF" transform="matrix(1.00, 0.00, -0.00, -1.00, 855.4, 498.0)">e</text><text xml:space="preserve" font-family="HelveticaNeue" font-size="64.0" fill="#FEFFFF" transform="matrix(1.00, 0.00, -0.00, -1.00, 70.0, 321.0)">K</text><text xml:space="preserve" font-family="HelveticaNeue" font-size="64.0" fill="#FEFFFF" transform="matrix(1.00, 0.00, -0.00, -1.00, 112.7, 321.0)">e</text><text xml:space="preserve" font-family="HelveticaNeue" font-size="64.0" fill="#FEFFFF" transform="matrix(1.00, 0.00, -0.00, -1.00, 147.1, 321.0)">n</text><text xml:space="preserve" font-family="HelveticaNeue" font-size="64.0" fill="#FEFFFF" transform="matrix(1.00, 0.00, -0.00, -1.00, 182.6, 321.0)">t</text><text xml:space="preserve" font-family="HelveticaNeue" font-size="64.0" fill="#FEFFFF" transform="matrix(1.00, 0.00, -0.00, -1.00, 202.8, 321.0)"> </text><text xml:space="preserve" font-family="HelveticaNeue" font-size="64.0" fill="#FEFFFF" transform="matrix(1.00, 0.00, -0.00, -1.00, 220.6, 321.0)">B</text><text xml:space="preserve" font-family="HelveticaNeue" font-size="64.0" fill="#FEFFFF" transform="matrix(1.00, 0.00, -0.00, -1.00, 264.4, 321.0)">e</text><text xml:space="preserve" font-family="HelveticaNeue" font-size="64.0" fill="#FEFFFF" transform="matrix(1.00, 0.00, -0.00, -1.00, 298.8, 321.0)">c</text><text xml:space="preserve" font-family="HelveticaNeue" font-size="64.0" fill="#FEFFFF" transform="matrix(1.00, 0.00, -0.00, -1.00, 333.2, 321.0)">k</text><text xml:space="preserve" font-family="HelveticaNeue" font-size="64.0" fill="#FEFFFF" transform="matrix(1.00, 0.00, -0.00, -1.00, 366.4, 321.0)">:</text><text xml:space="preserve" font-family="HelveticaNeue" font-size="64.0" fill="#FEFFFF" transform="matrix(1.00, 0.00, -0.00, -1.00, 384.2, 321.0)"> </text><text xml:space="preserve" font-family="HelveticaNeue" font-size="64.0" fill="#FEFFFF" transform="matrix(1.00, 0.00, -0.00, -1.00, 402.0, 321.0)">“</text><text xml:space="preserve" font-family="HelveticaNeue" font-size="64.0" fill="#FEFFFF" transform="matrix(1.00, 0.00, -0.00, -1.00, 429.2, 321.0)">I</text><text xml:space="preserve" font-family="HelveticaNeue" font-size="64.0" fill="#FEFFFF" transform="matrix(1.00, 0.00, -0.00, -1.00, 445.8, 321.0)"> </text><text xml:space="preserve" font-family="HelveticaNeue" font-size="64.0" fill="#FEFFFF" transform="matrix(1.00, 0.00, -0.00, -1.00, 463.6, 321.0)">g</text><text xml:space="preserve" font-family="HelveticaNeue" font-size="64.0" fill="#FEFFFF" transform="matrix(1.00, 0.00, -0.00, -1.00, 500.3, 321.0)">e</text><text xml:space="preserve" font-family="HelveticaNeue" font-size="64.0" fill="#FEFFFF" transform="matrix(1.00, 0.00, -0.00, -1.00, 534.7, 321.0)">t</text><text xml:space="preserve" font-family="HelveticaNeue" font-size="64.0" fill="#FEFFFF" transform="matrix(1.00, 0.00, -0.00, -1.00, 554.9, 321.0)"> </text><text xml:space="preserve" font-family="HelveticaNeue" font-size="64.0" fill="#FEFFFF" transform="matrix(1.00, 0.00, -0.00, -1.00, 572.7, 321.0)">p</text><text xml:space="preserve" font-family="HelveticaNeue" font-size="64.0" fill="#FEFFFF" transform="matrix(1.00, 0.00, -0.00, -1.00, 610.6, 321.0)">a</text><text xml:space="preserve" font-family="HelveticaNeue" font-size="64.0" fill="#FEFFFF" transform="matrix(1.00, 0.00, -0.00, -1.00, 645.0, 321.0)">i</text><text xml:space="preserve" font-family="HelveticaNeue" font-size="64.0" fill="#FEFFFF" transform="matrix(1.00, 0.00, -0.00, -1.00, 659.2, 321.0)">d</text><text xml:space="preserve" font-family="HelveticaNeue" font-size="64.0" fill="#FEFFFF" transform="matrix(1.00, 0.00, -0.00, -1.00, 697.1, 321.0)"> </text><text xml:space="preserve" font-family="HelveticaNeue" font-size="64.0" fill="#FEFFFF" transform="matrix(1.00, 0.00, -0.00, -1.00, 714.9, 321.0)">f</text><text xml:space="preserve" font-family="HelveticaNeue" font-size="64.0" fill="#FEFFFF" transform="matrix(1.00, 0.00, -0.00, -1.00, 733.9, 321.0)">o</text><text xml:space="preserve" font-family="HelveticaNeue" font-size="64.0" fill="#FEFFFF" transform="matrix(1.00, 0.00, -0.00, -1.00, 770.6, 321.0)">r</text><text xml:space="preserve" font-family="HelveticaNeue" font-size="64.0" fill="#FEFFFF" transform="matrix(1.00, 0.00, -0.00, -1.00, 791.9, 321.0)"> </text><text xml:space="preserve" font-family="HelveticaNeue" font-size="64.0" fill="#FEFFFF" transform="matrix(1.00, 0.00, -0.00, -1.00, 809.7, 321.0)">c</text><text xml:space="preserve" font-family="HelveticaNeue" font-size="64.0" fill="#FEFFFF" transform="matrix(1.00, 0.00, -0.00, -1.00, 844.1, 321.0)">o</text><text xml:space="preserve" font-family="HelveticaNeue" font-size="64.0" fill="#FEFFFF" transform="matrix(1.00, 0.00, -0.00, -1.00, 880.8, 321.0)">d</text><text xml:space="preserve" font-family="HelveticaNeue" font-size="64.0" fill="#FEFFFF" transform="matrix(1.00, 0.00, -0.00, -1.00, 918.8, 321.0)">e</text><text xml:space="preserve" font-family="HelveticaNeue" font-size="64.0" fill="#FEFFFF" transform="matrix(1.00, 0.00, -0.00, -1.00, 953.1, 321.0)"> </text><text xml:space="preserve" font-family="HelveticaNeue" font-size="64.0" fill="#FEFFFF" transform="matrix(1.00, 0.00, -0.00, -1.00, 159.0, 244.0)">t</text><text xml:space="preserve" font-family="HelveticaNeue" font-size="64.0" fill="#FEFFFF" transform="matrix(1.00, 0.00, -0.00, -1.00, 179.2, 244.0)">h</text><text xml:space="preserve" font-family="HelveticaNeue" font-size="64.0" fill="#FEFFFF" transform="matrix(1.00, 0.00, -0.00, -1.00, 214.7, 244.0)">a</text><text xml:space="preserve" font-family="HelveticaNeue" font-size="64.0" fill="#FEFFFF" transform="matrix(1.00, 0.00, -0.00, -1.00, 249.1, 244.0)">t</text><text xml:space="preserve" font-family="HelveticaNeue" font-size="64.0" fill="#FEFFFF" transform="matrix(1.00, 0.00, -0.00, -1.00, 269.3, 244.0)"> </text><text xml:space="preserve" font-family="HelveticaNeue" font-size="64.0" fill="#FEFFFF" transform="matrix(1.00, 0.00, -0.00, -1.00, 287.1, 244.0)">w</text><text xml:space="preserve" font-family="HelveticaNeue" font-size="64.0" fill="#FEFFFF" transform="matrix(1.00, 0.00, -0.00, -1.00, 335.6, 244.0)">o</text><text xml:space="preserve" font-family="HelveticaNeue" font-size="64.0" fill="#FEFFFF" transform="matrix(1.00, 0.00, -0.00, -1.00, 372.3, 244.0)">r</text><text xml:space="preserve" font-family="HelveticaNeue" font-size="64.0" fill="#FEFFFF" transform="matrix(1.00, 0.00, -0.00, -1.00, 393.6, 244.0)">k</text><text xml:space="preserve" font-family="HelveticaNeue" font-size="64.0" fill="#FEFFFF" transform="matrix(1.00, 0.00, -0.00, -1.00, 426.8, 244.0)">s</text><text xml:space="preserve" font-family="HelveticaNeue" font-size="64.0" fill="#FEFFFF" transform="matrix(1.00, 0.00, -0.00, -1.00, 458.8, 244.0)">,</text><text xml:space="preserve" font-family="HelveticaNeue" font-size="64.0" fill="#FEFFFF" transform="matrix(1.00, 0.00, -0.00, -1.00, 476.6, 244.0)"> </text><text xml:space="preserve" font-family="HelveticaNeue" font-size="64.0" fill="#FEFFFF" transform="matrix(1.00, 0.00, -0.00, -1.00, 494.4, 244.0)">n</text><text xml:space="preserve" font-family="HelveticaNeue" font-size="64.0" fill="#FEFFFF" transform="matrix(1.00, 0.00, -0.00, -1.00, 530.0, 244.0)">o</text><text xml:space="preserve" font-family="HelveticaNeue" font-size="64.0" fill="#FEFFFF" transform="matrix(1.00, 0.00, -0.00, -1.00, 566.7, 244.0)">t</text><text xml:space="preserve" font-family="HelveticaNeue" font-size="64.0" fill="#FEFFFF" transform="matrix(1.00, 0.00, -0.00, -1.00, 586.9, 244.0)"> </text><text xml:space="preserve" font-family="HelveticaNeue" font-size="64.0" fill="#FEFFFF" transform="matrix(1.00, 0.00, -0.00, -1.00, 604.7, 244.0)">f</text><text xml:space="preserve" font-family="HelveticaNeue" font-size="64.0" fill="#FEFFFF" transform="matrix(1.00, 0.00, -0.00, -1.00, 623.6, 244.0)">o</text><text xml:space="preserve" font-family="HelveticaNeue" font-size="64.0" fill="#FEFFFF" transform="matrix(1.00, 0.00, -0.00, -1.00, 660.4, 244.0)">r</text><text xml:space="preserve" font-family="HelveticaNeue" font-size="64.0" fill="#FEFFFF" transform="matrix(1.00, 0.00, -0.00, -1.00, 681.7, 244.0)"> </text><text xml:space="preserve" font-family="HelveticaNeue" font-size="64.0" fill="#FEFFFF" transform="matrix(1.00, 0.00, -0.00, -1.00, 699.5, 244.0)">t</text><text xml:space="preserve" font-family="HelveticaNeue" font-size="64.0" fill="#FEFFFF" transform="matrix(1.00, 0.00, -0.00, -1.00, 719.6, 244.0)">e</text><text xml:space="preserve" font-family="HelveticaNeue" font-size="64.0" fill="#FEFFFF" transform="matrix(1.00, 0.00, -0.00, -1.00, 754.0, 244.0)">s</text><text xml:space="preserve" font-family="HelveticaNeue" font-size="64.0" fill="#FEFFFF" transform="matrix(1.00, 0.00, -0.00, -1.00, 786.0, 244.0)">t</text><text xml:space="preserve" font-family="HelveticaNeue" font-size="64.0" fill="#FEFFFF" transform="matrix(1.00, 0.00, -0.00, -1.00, 806.2, 244.0)">s</text><text xml:space="preserve" font-family="HelveticaNeue" font-size="64.0" fill="#FEFFFF" transform="matrix(1.00, 0.00, -0.00, -1.00, 838.2, 244.0)">”</text></g></svg>