<?xml version="1.0" encoding="UTF-8" standalone="no"?><svg xmlns="http://www.w3.org/2000/svg" xmlns:xlink="http://www.w3.org/1999/xlink" clip-rule="evenodd" stroke-miterlimit="4.00" viewBox="0 0 1024 768"><desc>SVG generated by Keynote</desc><defs></defs><g transform="matrix(1.00, 0.00, -0.00, -1.00, 0.0, 768.0)"><path d="M 0.0 768.0 L 1024.0 768.0 L 1024.0 0.0 L 0.0 0.0 Z M 0.0 768.0 " fill="#000000"></path><text xml:space="preserve" font-family="Helvetica-Light" font-size="115.2" fill="#FEFFFF" transform="matrix(1.00, 0.00, -0.00, -1.00, 107.0, 341.0)">W</text><text xml:space="preserve" font-family="Helvetica-Light" font-size="115.2" fill="#FEFFFF" transform="matrix(1.00, 0.00, -0.00, -1.00, 205.2, 341.0)">a</text><text xml:space="preserve" font-family="Helvetica-Light" font-size="115.2" fill="#FEFFFF" transform="matrix(1.00, 0.00, -0.00, -1.00, 269.2, 341.0)">n</text><text xml:space="preserve" font-family="Helvetica-Light" font-size="115.2" fill="#FEFFFF" transform="matrix(1.00, 0.00, -0.00, -1.00, 333.3, 341.0)">t</text><text xml:space="preserve" font-family="Helvetica-Light" font-size="115.2" fill="#FEFFFF" transform="matrix(1.00, 0.00, -0.00, -1.00, 365.3, 341.0)"> </text><text xml:space="preserve" font-family="Helvetica-Light" font-size="115.2" fill="#FEFFFF" transform="matrix(1.00, 0.00, -0.00, -1.00, 397.3, 341.0)">U</text><text xml:space="preserve" font-family="Helvetica-Light" font-size="115.2" fill="#FEFFFF" transform="matrix(1.00, 0.00, -0.00, -1.00, 480.5, 341.0)">n</text><text xml:space="preserve" font-family="Helvetica-Light" font-size="115.2" fill="#FEFFFF" transform="matrix(1.00, 0.00, -0.00, -1.00, 544.5, 341.0)">i</text><text xml:space="preserve" font-family="Helvetica-Light" font-size="115.2" fill="#FEFFFF" transform="matrix(1.00, 0.00, -0.00, -1.00, 570.1, 341.0)">f</text><text xml:space="preserve" font-family="Helvetica-Light" font-size="115.2" fill="#FEFFFF" transform="matrix(1.00, 0.00, -0.00, -1.00, 602.1, 341.0)">o</text><text xml:space="preserve" font-family="Helvetica-Light" font-size="115.2" fill="#FEFFFF" transform="matrix(1.00, 0.00, -0.00, -1.00, 666.2, 341.0)">r</text><text xml:space="preserve" font-family="Helvetica-Light" font-size="115.2" fill="#FEFFFF" transform="matrix(1.00, 0.00, -0.00, -1.00, 706.6, 341.0)">m</text><text xml:space="preserve" font-family="Helvetica-Light" font-size="115.2" fill="#FEFFFF" transform="matrix(1.00, 0.00, -0.00, -1.00, 802.6, 341.0)">i</text><text xml:space="preserve" font-family="Helvetica-Light" font-size="115.2" fill="#FEFFFF" transform="matrix(1.00, 0.00, -0.00, -1.00, 828.2, 341.0)">t</text><text xml:space="preserve" font-family="Helvetica-Light" font-size="115.2" fill="#FEFFFF" transform="matrix(1.00, 0.00, -0.00, -1.00, 860.2, 341.0)">y</text></g></svg>