<?xml version="1.0" encoding="UTF-8" standalone="no"?><svg xmlns="http://www.w3.org/2000/svg" xmlns:xlink="http://www.w3.org/1999/xlink" clip-rule="evenodd" stroke-miterlimit="4.00" viewBox="0 0 1024 768"><desc>SVG generated by Keynote</desc><defs></defs><g transform="matrix(1.00, 0.00, -0.00, -1.00, 0.0, 768.0)"><path d="M 0.0 768.0 L 1024.0 768.0 L 1024.0 0.0 L 0.0 0.0 Z M 0.0 768.0 " fill="#000000"></path><text xml:space="preserve" font-family="Helvetica-Light" font-size="70.6" fill="#FEFFFF" transform="matrix(1.00, 0.00, -0.00, -1.00, 108.0, 547.0)">N</text><text xml:space="preserve" font-family="Helvetica-Light" font-size="70.6" fill="#FEFFFF" transform="matrix(1.00, 0.00, -0.00, -1.00, 158.9, 547.0)">o</text><text xml:space="preserve" font-family="Helvetica-Light" font-size="70.6" fill="#FEFFFF" transform="matrix(1.00, 0.00, -0.00, -1.00, 198.2, 547.0)"> </text><text xml:space="preserve" font-family="Helvetica-Light" font-size="70.6" fill="#FEFFFF" transform="matrix(1.00, 0.00, -0.00, -1.00, 217.8, 547.0)">w</text><text xml:space="preserve" font-family="Helvetica-Light" font-size="70.6" fill="#FEFFFF" transform="matrix(1.00, 0.00, -0.00, -1.00, 268.7, 547.0)">h</text><text xml:space="preserve" font-family="Helvetica-Light" font-size="70.6" fill="#FEFFFF" transform="matrix(1.00, 0.00, -0.00, -1.00, 308.0, 547.0)">i</text><text xml:space="preserve" font-family="Helvetica-Light" font-size="70.6" fill="#FEFFFF" transform="matrix(1.00, 0.00, -0.00, -1.00, 323.6, 547.0)">t</text><text xml:space="preserve" font-family="Helvetica-Light" font-size="70.6" fill="#FEFFFF" transform="matrix(1.00, 0.00, -0.00, -1.00, 343.2, 547.0)">e</text><text xml:space="preserve" font-family="Helvetica-Light" font-size="70.6" fill="#FEFFFF" transform="matrix(1.00, 0.00, -0.00, -1.00, 382.5, 547.0)">s</text><text xml:space="preserve" font-family="Helvetica-Light" font-size="70.6" fill="#FEFFFF" transform="matrix(1.00, 0.00, -0.00, -1.00, 417.8, 547.0)">p</text><text xml:space="preserve" font-family="Helvetica-Light" font-size="70.6" fill="#FEFFFF" transform="matrix(1.00, 0.00, -0.00, -1.00, 460.9, 547.0)">a</text><text xml:space="preserve" font-family="Helvetica-Light" font-size="70.6" fill="#FEFFFF" transform="matrix(1.00, 0.00, -0.00, -1.00, 500.1, 547.0)">c</text><text xml:space="preserve" font-family="Helvetica-Light" font-size="70.6" fill="#FEFFFF" transform="matrix(1.00, 0.00, -0.00, -1.00, 539.3, 547.0)">e</text><text xml:space="preserve" font-family="Helvetica-Light" font-size="70.6" fill="#FEFFFF" transform="matrix(1.00, 0.00, -0.00, -1.00, 578.6, 547.0)"> </text><text xml:space="preserve" font-family="Helvetica-Light" font-size="70.6" fill="#FEFFFF" transform="matrix(1.00, 0.00, -0.00, -1.00, 598.2, 547.0)">a</text><text xml:space="preserve" font-family="Helvetica-Light" font-size="70.6" fill="#FEFFFF" transform="matrix(1.00, 0.00, -0.00, -1.00, 637.4, 547.0)">t</text><text xml:space="preserve" font-family="Helvetica-Light" font-size="70.6" fill="#FEFFFF" transform="matrix(1.00, 0.00, -0.00, -1.00, 657.0, 547.0)"> </text><text xml:space="preserve" font-family="Helvetica-Light" font-size="70.6" fill="#FEFFFF" transform="matrix(1.00, 0.00, -0.00, -1.00, 676.6, 547.0)">t</text><text xml:space="preserve" font-family="Helvetica-Light" font-size="70.6" fill="#FEFFFF" transform="matrix(1.00, 0.00, -0.00, -1.00, 696.3, 547.0)">h</text><text xml:space="preserve" font-family="Helvetica-Light" font-size="70.6" fill="#FEFFFF" transform="matrix(1.00, 0.00, -0.00, -1.00, 735.5, 547.0)">e</text><text xml:space="preserve" font-family="Helvetica-Light" font-size="70.6" fill="#FEFFFF" transform="matrix(1.00, 0.00, -0.00, -1.00, 774.7, 547.0)"> </text><text xml:space="preserve" font-family="Helvetica-Light" font-size="70.6" fill="#FEFFFF" transform="matrix(1.00, 0.00, -0.00, -1.00, 794.3, 547.0)">e</text><text xml:space="preserve" font-family="Helvetica-Light" font-size="70.6" fill="#FEFFFF" transform="matrix(1.00, 0.00, -0.00, -1.00, 833.6, 547.0)">n</text><text xml:space="preserve" font-family="Helvetica-Light" font-size="70.6" fill="#FEFFFF" transform="matrix(1.00, 0.00, -0.00, -1.00, 872.8, 547.0)">d</text><text xml:space="preserve" font-family="Helvetica-Light" font-size="70.6" fill="#FEFFFF" transform="matrix(1.00, 0.00, -0.00, -1.00, 915.9, 547.0)"> </text><text xml:space="preserve" font-family="Helvetica-Light" font-size="70.6" fill="#FEFFFF" transform="matrix(1.00, 0.00, -0.00, -1.00, 139.0, 463.0)">o</text><text xml:space="preserve" font-family="Helvetica-Light" font-size="70.6" fill="#FEFFFF" transform="matrix(1.00, 0.00, -0.00, -1.00, 178.2, 463.0)">f</text><text xml:space="preserve" font-family="Helvetica-Light" font-size="70.6" fill="#FEFFFF" transform="matrix(1.00, 0.00, -0.00, -1.00, 197.8, 463.0)"> </text><text xml:space="preserve" font-family="Helvetica-Light" font-size="70.6" fill="#FEFFFF" transform="matrix(1.00, 0.00, -0.00, -1.00, 217.5, 463.0)">l</text><text xml:space="preserve" font-family="Helvetica-Light" font-size="70.6" fill="#FEFFFF" transform="matrix(1.00, 0.00, -0.00, -1.00, 233.1, 463.0)">i</text><text xml:space="preserve" font-family="Helvetica-Light" font-size="70.6" fill="#FEFFFF" transform="matrix(1.00, 0.00, -0.00, -1.00, 248.8, 463.0)">n</text><text xml:space="preserve" font-family="Helvetica-Light" font-size="70.6" fill="#FEFFFF" transform="matrix(1.00, 0.00, -0.00, -1.00, 288.0, 463.0)">e</text><text xml:space="preserve" font-family="Helvetica-Light" font-size="70.6" fill="#FEFFFF" transform="matrix(1.00, 0.00, -0.00, -1.00, 327.3, 463.0)"> </text><text xml:space="preserve" font-family="Helvetica-Light" font-size="70.6" fill="#FEFFFF" transform="matrix(1.00, 0.00, -0.00, -1.00, 346.9, 463.0)">o</text><text xml:space="preserve" font-family="Helvetica-Light" font-size="70.6" fill="#FEFFFF" transform="matrix(1.00, 0.00, -0.00, -1.00, 386.1, 463.0)">r</text><text xml:space="preserve" font-family="Helvetica-Light" font-size="70.6" fill="#FEFFFF" transform="matrix(1.00, 0.00, -0.00, -1.00, 409.6, 463.0)"> </text><text xml:space="preserve" font-family="Helvetica-Light" font-size="70.6" fill="#FEFFFF" transform="matrix(1.00, 0.00, -0.00, -1.00, 429.2, 463.0)">o</text><text xml:space="preserve" font-family="Helvetica-Light" font-size="70.6" fill="#FEFFFF" transform="matrix(1.00, 0.00, -0.00, -1.00, 468.4, 463.0)">n</text><text xml:space="preserve" font-family="Helvetica-Light" font-size="70.6" fill="#FEFFFF" transform="matrix(1.00, 0.00, -0.00, -1.00, 507.7, 463.0)"> </text><text xml:space="preserve" font-family="Helvetica-Light" font-size="70.6" fill="#FEFFFF" transform="matrix(1.00, 0.00, -0.00, -1.00, 527.3, 463.0)">b</text><text xml:space="preserve" font-family="Helvetica-Light" font-size="70.6" fill="#FEFFFF" transform="matrix(1.00, 0.00, -0.00, -1.00, 570.4, 463.0)">l</text><text xml:space="preserve" font-family="Helvetica-Light" font-size="70.6" fill="#FEFFFF" transform="matrix(1.00, 0.00, -0.00, -1.00, 586.1, 463.0)">a</text><text xml:space="preserve" font-family="Helvetica-Light" font-size="70.6" fill="#FEFFFF" transform="matrix(1.00, 0.00, -0.00, -1.00, 625.3, 463.0)">n</text><text xml:space="preserve" font-family="Helvetica-Light" font-size="70.6" fill="#FEFFFF" transform="matrix(1.00, 0.00, -0.00, -1.00, 664.5, 463.0)">k</text><text xml:space="preserve" font-family="Helvetica-Light" font-size="70.6" fill="#FEFFFF" transform="matrix(1.00, 0.00, -0.00, -1.00, 699.8, 463.0)"> </text><text xml:space="preserve" font-family="Helvetica-Light" font-size="70.6" fill="#FEFFFF" transform="matrix(1.00, 0.00, -0.00, -1.00, 719.4, 463.0)">l</text><text xml:space="preserve" font-family="Helvetica-Light" font-size="70.6" fill="#FEFFFF" transform="matrix(1.00, 0.00, -0.00, -1.00, 735.1, 463.0)">i</text><text xml:space="preserve" font-family="Helvetica-Light" font-size="70.6" fill="#FEFFFF" transform="matrix(1.00, 0.00, -0.00, -1.00, 750.8, 463.0)">n</text><text xml:space="preserve" font-family="Helvetica-Light" font-size="70.6" fill="#FEFFFF" transform="matrix(1.00, 0.00, -0.00, -1.00, 790.0, 463.0)">e</text><text xml:space="preserve" font-family="Helvetica-Light" font-size="70.6" fill="#FEFFFF" transform="matrix(1.00, 0.00, -0.00, -1.00, 829.2, 463.0)">s</text><text xml:space="preserve" font-family="Helvetica-Light" font-size="70.6" fill="#FEFFFF" transform="matrix(1.00, 0.00, -0.00, -1.00, 864.5, 463.0)">.</text></g></svg>