<?xml version="1.0" encoding="UTF-8" standalone="no"?><svg xmlns="http://www.w3.org/2000/svg" xmlns:xlink="http://www.w3.org/1999/xlink" clip-rule="evenodd" stroke-miterlimit="4.00" viewBox="0 0 1024 768"><desc>SVG generated by Keynote</desc><defs></defs><g transform="matrix(1.00, 0.00, -0.00, -1.00, 0.0, 768.0)"><path d="M 0.0 768.0 L 1024.0 768.0 L 1024.0 0.0 L 0.0 0.0 Z M 0.0 768.0 " fill="#000000"></path><text xml:space="preserve" font-family="Helvetica-Light" font-size="105.1" fill="#FEFFFF" transform="matrix(1.00, 0.00, -0.00, -1.00, 139.0, 408.0)">I</text><text xml:space="preserve" font-family="Helvetica-Light" font-size="105.1" fill="#FEFFFF" transform="matrix(1.00, 0.00, -0.00, -1.00, 168.2, 408.0)">n</text><text xml:space="preserve" font-family="Helvetica-Light" font-size="105.1" fill="#FEFFFF" transform="matrix(1.00, 0.00, -0.00, -1.00, 226.7, 408.0)">c</text><text xml:space="preserve" font-family="Helvetica-Light" font-size="105.1" fill="#FEFFFF" transform="matrix(1.00, 0.00, -0.00, -1.00, 285.1, 408.0)">r</text><text xml:space="preserve" font-family="Helvetica-Light" font-size="105.1" fill="#FEFFFF" transform="matrix(1.00, 0.00, -0.00, -1.00, 318.2, 408.0)">e</text><text xml:space="preserve" font-family="Helvetica-Light" font-size="105.1" fill="#FEFFFF" transform="matrix(1.00, 0.00, -0.00, -1.00, 376.7, 408.0)">a</text><text xml:space="preserve" font-family="Helvetica-Light" font-size="105.1" fill="#FEFFFF" transform="matrix(1.00, 0.00, -0.00, -1.00, 435.1, 408.0)">s</text><text xml:space="preserve" font-family="Helvetica-Light" font-size="105.1" fill="#FEFFFF" transform="matrix(1.00, 0.00, -0.00, -1.00, 487.7, 408.0)">e</text><text xml:space="preserve" font-family="Helvetica-Light" font-size="105.1" fill="#FEFFFF" transform="matrix(1.00, 0.00, -0.00, -1.00, 546.1, 408.0)">s</text><text xml:space="preserve" font-family="Helvetica-Light" font-size="105.1" fill="#FEFFFF" transform="matrix(1.00, 0.00, -0.00, -1.00, 598.7, 408.0)"> </text><text xml:space="preserve" font-family="Helvetica-Light" font-size="105.1" fill="#FEFFFF" transform="matrix(1.00, 0.00, -0.00, -1.00, 627.9, 408.0)">C</text><text xml:space="preserve" font-family="Helvetica-Light" font-size="105.1" fill="#FEFFFF" transform="matrix(1.00, 0.00, -0.00, -1.00, 703.8, 408.0)">o</text><text xml:space="preserve" font-family="Helvetica-Light" font-size="105.1" fill="#FEFFFF" transform="matrix(1.00, 0.00, -0.00, -1.00, 762.3, 408.0)">d</text><text xml:space="preserve" font-family="Helvetica-Light" font-size="105.1" fill="#FEFFFF" transform="matrix(1.00, 0.00, -0.00, -1.00, 826.5, 408.0)">e</text><text xml:space="preserve" font-family="Helvetica-Light" font-size="105.1" fill="#FEFFFF" transform="matrix(1.00, 0.00, -0.00, -1.00, 884.9, 408.0)"> </text><text xml:space="preserve" font-family="Helvetica-Light" font-size="105.1" fill="#FEFFFF" transform="matrix(1.00, 0.00, -0.00, -1.00, 348.0, 282.0)">Q</text><text xml:space="preserve" font-family="Helvetica-Light" font-size="105.1" fill="#FEFFFF" transform="matrix(1.00, 0.00, -0.00, -1.00, 429.8, 282.0)">u</text><text xml:space="preserve" font-family="Helvetica-Light" font-size="105.1" fill="#FEFFFF" transform="matrix(1.00, 0.00, -0.00, -1.00, 488.2, 282.0)">a</text><text xml:space="preserve" font-family="Helvetica-Light" font-size="105.1" fill="#FEFFFF" transform="matrix(1.00, 0.00, -0.00, -1.00, 546.7, 282.0)">l</text><text xml:space="preserve" font-family="Helvetica-Light" font-size="105.1" fill="#FEFFFF" transform="matrix(1.00, 0.00, -0.00, -1.00, 570.0, 282.0)">i</text><text xml:space="preserve" font-family="Helvetica-Light" font-size="105.1" fill="#FEFFFF" transform="matrix(1.00, 0.00, -0.00, -1.00, 593.4, 282.0)">t</text><text xml:space="preserve" font-family="Helvetica-Light" font-size="105.1" fill="#FEFFFF" transform="matrix(1.00, 0.00, -0.00, -1.00, 622.6, 282.0)">y</text></g></svg>