<?xml version="1.0" encoding="UTF-8" standalone="no"?><svg xmlns="http://www.w3.org/2000/svg" xmlns:xlink="http://www.w3.org/1999/xlink" clip-rule="evenodd" stroke-miterlimit="4.00" viewBox="0 0 1024 768"><desc>SVG generated by Keynote</desc><defs></defs><g transform="matrix(1.00, 0.00, -0.00, -1.00, 0.0, 768.0)"><path d="M 0.0 768.0 L 1024.0 768.0 L 1024.0 0.0 L 0.0 0.0 Z M 0.0 768.0 " fill="#000000"></path><text xml:space="preserve" font-family="Helvetica-Light" font-size="105.1" fill="#FEFFFF" transform="matrix(1.00, 0.00, -0.00, -1.00, 207.0, 408.0)">U</text><text xml:space="preserve" font-family="Helvetica-Light" font-size="105.1" fill="#FEFFFF" transform="matrix(1.00, 0.00, -0.00, -1.00, 282.9, 408.0)">n</text><text xml:space="preserve" font-family="Helvetica-Light" font-size="105.1" fill="#FEFFFF" transform="matrix(1.00, 0.00, -0.00, -1.00, 341.3, 408.0)">i</text><text xml:space="preserve" font-family="Helvetica-Light" font-size="105.1" fill="#FEFFFF" transform="matrix(1.00, 0.00, -0.00, -1.00, 364.7, 408.0)">f</text><text xml:space="preserve" font-family="Helvetica-Light" font-size="105.1" fill="#FEFFFF" transform="matrix(1.00, 0.00, -0.00, -1.00, 393.9, 408.0)">o</text><text xml:space="preserve" font-family="Helvetica-Light" font-size="105.1" fill="#FEFFFF" transform="matrix(1.00, 0.00, -0.00, -1.00, 452.4, 408.0)">r</text><text xml:space="preserve" font-family="Helvetica-Light" font-size="105.1" fill="#FEFFFF" transform="matrix(1.00, 0.00, -0.00, -1.00, 489.2, 408.0)">m</text><text xml:space="preserve" font-family="Helvetica-Light" font-size="105.1" fill="#FEFFFF" transform="matrix(1.00, 0.00, -0.00, -1.00, 576.8, 408.0)">i</text><text xml:space="preserve" font-family="Helvetica-Light" font-size="105.1" fill="#FEFFFF" transform="matrix(1.00, 0.00, -0.00, -1.00, 600.1, 408.0)">t</text><text xml:space="preserve" font-family="Helvetica-Light" font-size="105.1" fill="#FEFFFF" transform="matrix(1.00, 0.00, -0.00, -1.00, 629.4, 408.0)">y</text><text xml:space="preserve" font-family="Helvetica-Light" font-size="105.1" fill="#FEFFFF" transform="matrix(1.00, 0.00, -0.00, -1.00, 681.9, 408.0)"> </text><text xml:space="preserve" font-family="Helvetica-Light" font-size="105.1" fill="#FEFFFF" transform="matrix(1.00, 0.00, -0.00, -1.00, 711.2, 408.0)">v</text><text xml:space="preserve" font-family="Helvetica-Light" font-size="105.1" fill="#FEFFFF" transform="matrix(1.00, 0.00, -0.00, -1.00, 763.7, 408.0)">s</text><text xml:space="preserve" font-family="Helvetica-Light" font-size="105.1" fill="#FEFFFF" transform="matrix(1.00, 0.00, -0.00, -1.00, 816.3, 408.0)"> </text><text xml:space="preserve" font-family="Helvetica-Light" font-size="105.1" fill="#FEFFFF" transform="matrix(1.00, 0.00, -0.00, -1.00, 275.0, 282.0)">F</text><text xml:space="preserve" font-family="Helvetica-Light" font-size="105.1" fill="#FEFFFF" transform="matrix(1.00, 0.00, -0.00, -1.00, 333.4, 282.0)">a</text><text xml:space="preserve" font-family="Helvetica-Light" font-size="105.1" fill="#FEFFFF" transform="matrix(1.00, 0.00, -0.00, -1.00, 391.9, 282.0)">m</text><text xml:space="preserve" font-family="Helvetica-Light" font-size="105.1" fill="#FEFFFF" transform="matrix(1.00, 0.00, -0.00, -1.00, 479.5, 282.0)">i</text><text xml:space="preserve" font-family="Helvetica-Light" font-size="105.1" fill="#FEFFFF" transform="matrix(1.00, 0.00, -0.00, -1.00, 502.8, 282.0)">l</text><text xml:space="preserve" font-family="Helvetica-Light" font-size="105.1" fill="#FEFFFF" transform="matrix(1.00, 0.00, -0.00, -1.00, 526.1, 282.0)">i</text><text xml:space="preserve" font-family="Helvetica-Light" font-size="105.1" fill="#FEFFFF" transform="matrix(1.00, 0.00, -0.00, -1.00, 549.5, 282.0)">a</text><text xml:space="preserve" font-family="Helvetica-Light" font-size="105.1" fill="#FEFFFF" transform="matrix(1.00, 0.00, -0.00, -1.00, 607.9, 282.0)">r</text><text xml:space="preserve" font-family="Helvetica-Light" font-size="105.1" fill="#FEFFFF" transform="matrix(1.00, 0.00, -0.00, -1.00, 642.9, 282.0)">i</text><text xml:space="preserve" font-family="Helvetica-Light" font-size="105.1" fill="#FEFFFF" transform="matrix(1.00, 0.00, -0.00, -1.00, 666.3, 282.0)">t</text><text xml:space="preserve" font-family="Helvetica-Light" font-size="105.1" fill="#FEFFFF" transform="matrix(1.00, 0.00, -0.00, -1.00, 695.5, 282.0)">y</text></g></svg>