<?xml version="1.0" encoding="UTF-8" standalone="no"?><svg xmlns="http://www.w3.org/2000/svg" xmlns:xlink="http://www.w3.org/1999/xlink" clip-rule="evenodd" stroke-miterlimit="4.00" viewBox="0 0 1024 768"><desc>SVG generated by Keynote</desc><defs></defs><g transform="matrix(1.00, 0.00, -0.00, -1.00, 0.0, 768.0)"><path d="M 0.0 768.0 L 1024.0 768.0 L 1024.0 0.0 L 0.0 0.0 Z M 0.0 768.0 " fill="#000000"></path><text xml:space="preserve" font-family="Helvetica-Light" font-size="76.3" fill="#FEFFFF" transform="matrix(1.00, 0.00, -0.00, -1.00, 132.0, 540.0)">…</text><text xml:space="preserve" font-family="Helvetica-Light" font-size="76.3" fill="#FEFFFF" transform="matrix(1.00, 0.00, -0.00, -1.00, 208.3, 540.0)">t</text><text xml:space="preserve" font-family="Helvetica-Light" font-size="76.3" fill="#FEFFFF" transform="matrix(1.00, 0.00, -0.00, -1.00, 229.5, 540.0)">h</text><text xml:space="preserve" font-family="Helvetica-Light" font-size="76.3" fill="#FEFFFF" transform="matrix(1.00, 0.00, -0.00, -1.00, 272.0, 540.0)">e</text><text xml:space="preserve" font-family="Helvetica-Light" font-size="76.3" fill="#FEFFFF" transform="matrix(1.00, 0.00, -0.00, -1.00, 314.4, 540.0)"> </text><text xml:space="preserve" font-family="Helvetica-Light" font-size="76.3" fill="#FEFFFF" transform="matrix(1.00, 0.00, -0.00, -1.00, 335.6, 540.0)">b</text><text xml:space="preserve" font-family="Helvetica-Light" font-size="76.3" fill="#FEFFFF" transform="matrix(1.00, 0.00, -0.00, -1.00, 382.3, 540.0)">i</text><text xml:space="preserve" font-family="Helvetica-Light" font-size="76.3" fill="#FEFFFF" transform="matrix(1.00, 0.00, -0.00, -1.00, 399.2, 540.0)">g</text><text xml:space="preserve" font-family="Helvetica-Light" font-size="76.3" fill="#FEFFFF" transform="matrix(1.00, 0.00, -0.00, -1.00, 445.8, 540.0)">g</text><text xml:space="preserve" font-family="Helvetica-Light" font-size="76.3" fill="#FEFFFF" transform="matrix(1.00, 0.00, -0.00, -1.00, 492.5, 540.0)">e</text><text xml:space="preserve" font-family="Helvetica-Light" font-size="76.3" fill="#FEFFFF" transform="matrix(1.00, 0.00, -0.00, -1.00, 534.9, 540.0)">s</text><text xml:space="preserve" font-family="Helvetica-Light" font-size="76.3" fill="#FEFFFF" transform="matrix(1.00, 0.00, -0.00, -1.00, 573.1, 540.0)">t</text><text xml:space="preserve" font-family="Helvetica-Light" font-size="76.3" fill="#FEFFFF" transform="matrix(1.00, 0.00, -0.00, -1.00, 594.3, 540.0)"> </text><text xml:space="preserve" font-family="Helvetica-Light" font-size="76.3" fill="#FEFFFF" transform="matrix(1.00, 0.00, -0.00, -1.00, 615.5, 540.0)">f</text><text xml:space="preserve" font-family="Helvetica-Light" font-size="76.3" fill="#FEFFFF" transform="matrix(1.00, 0.00, -0.00, -1.00, 636.7, 540.0)">a</text><text xml:space="preserve" font-family="Helvetica-Light" font-size="76.3" fill="#FEFFFF" transform="matrix(1.00, 0.00, -0.00, -1.00, 679.1, 540.0)">c</text><text xml:space="preserve" font-family="Helvetica-Light" font-size="76.3" fill="#FEFFFF" transform="matrix(1.00, 0.00, -0.00, -1.00, 721.6, 540.0)">t</text><text xml:space="preserve" font-family="Helvetica-Light" font-size="76.3" fill="#FEFFFF" transform="matrix(1.00, 0.00, -0.00, -1.00, 742.8, 540.0)">o</text><text xml:space="preserve" font-family="Helvetica-Light" font-size="76.3" fill="#FEFFFF" transform="matrix(1.00, 0.00, -0.00, -1.00, 785.2, 540.0)">r</text><text xml:space="preserve" font-family="Helvetica-Light" font-size="76.3" fill="#FEFFFF" transform="matrix(1.00, 0.00, -0.00, -1.00, 810.6, 540.0)"> </text><text xml:space="preserve" font-family="Helvetica-Light" font-size="76.3" fill="#FEFFFF" transform="matrix(1.00, 0.00, -0.00, -1.00, 831.9, 540.0)">i</text><text xml:space="preserve" font-family="Helvetica-Light" font-size="76.3" fill="#FEFFFF" transform="matrix(1.00, 0.00, -0.00, -1.00, 848.8, 540.0)">n</text><text xml:space="preserve" font-family="Helvetica-Light" font-size="76.3" fill="#FEFFFF" transform="matrix(1.00, 0.00, -0.00, -1.00, 891.2, 540.0)"> </text><text xml:space="preserve" font-family="Helvetica-Light" font-size="76.3" fill="#FEFFFF" transform="matrix(1.00, 0.00, -0.00, -1.00, 130.0, 448.0)">c</text><text xml:space="preserve" font-family="Helvetica-Light" font-size="76.3" fill="#FEFFFF" transform="matrix(1.00, 0.00, -0.00, -1.00, 172.4, 448.0)">o</text><text xml:space="preserve" font-family="Helvetica-Light" font-size="76.3" fill="#FEFFFF" transform="matrix(1.00, 0.00, -0.00, -1.00, 214.9, 448.0)">d</text><text xml:space="preserve" font-family="Helvetica-Light" font-size="76.3" fill="#FEFFFF" transform="matrix(1.00, 0.00, -0.00, -1.00, 261.5, 448.0)">e</text><text xml:space="preserve" font-family="Helvetica-Light" font-size="76.3" fill="#FEFFFF" transform="matrix(1.00, 0.00, -0.00, -1.00, 303.9, 448.0)"> </text><text xml:space="preserve" font-family="Helvetica-Light" font-size="76.3" fill="#FEFFFF" transform="matrix(1.00, 0.00, -0.00, -1.00, 325.2, 448.0)">l</text><text xml:space="preserve" font-family="Helvetica-Light" font-size="76.3" fill="#FEFFFF" transform="matrix(1.00, 0.00, -0.00, -1.00, 342.1, 448.0)">o</text><text xml:space="preserve" font-family="Helvetica-Light" font-size="76.3" fill="#FEFFFF" transform="matrix(1.00, 0.00, -0.00, -1.00, 384.5, 448.0)">o</text><text xml:space="preserve" font-family="Helvetica-Light" font-size="76.3" fill="#FEFFFF" transform="matrix(1.00, 0.00, -0.00, -1.00, 427.0, 448.0)">k</text><text xml:space="preserve" font-family="Helvetica-Light" font-size="76.3" fill="#FEFFFF" transform="matrix(1.00, 0.00, -0.00, -1.00, 465.1, 448.0)">i</text><text xml:space="preserve" font-family="Helvetica-Light" font-size="76.3" fill="#FEFFFF" transform="matrix(1.00, 0.00, -0.00, -1.00, 482.1, 448.0)">n</text><text xml:space="preserve" font-family="Helvetica-Light" font-size="76.3" fill="#FEFFFF" transform="matrix(1.00, 0.00, -0.00, -1.00, 524.5, 448.0)">g</text><text xml:space="preserve" font-family="Helvetica-Light" font-size="76.3" fill="#FEFFFF" transform="matrix(1.00, 0.00, -0.00, -1.00, 571.1, 448.0)"> </text><text xml:space="preserve" font-family="Helvetica-Light" font-size="76.3" fill="#FEFFFF" transform="matrix(1.00, 0.00, -0.00, -1.00, 592.3, 448.0)">“</text><text xml:space="preserve" font-family="Helvetica-Light" font-size="76.3" fill="#FEFFFF" transform="matrix(1.00, 0.00, -0.00, -1.00, 622.0, 448.0)">r</text><text xml:space="preserve" font-family="Helvetica-Light" font-size="76.3" fill="#FEFFFF" transform="matrix(1.00, 0.00, -0.00, -1.00, 647.4, 448.0)">i</text><text xml:space="preserve" font-family="Helvetica-Light" font-size="76.3" fill="#FEFFFF" transform="matrix(1.00, 0.00, -0.00, -1.00, 664.4, 448.0)">g</text><text xml:space="preserve" font-family="Helvetica-Light" font-size="76.3" fill="#FEFFFF" transform="matrix(1.00, 0.00, -0.00, -1.00, 711.0, 448.0)">h</text><text xml:space="preserve" font-family="Helvetica-Light" font-size="76.3" fill="#FEFFFF" transform="matrix(1.00, 0.00, -0.00, -1.00, 753.5, 448.0)">t</text><text xml:space="preserve" font-family="Helvetica-Light" font-size="76.3" fill="#FEFFFF" transform="matrix(1.00, 0.00, -0.00, -1.00, 774.7, 448.0)">”</text><text xml:space="preserve" font-family="Helvetica-Light" font-size="76.3" fill="#FEFFFF" transform="matrix(1.00, 0.00, -0.00, -1.00, 804.4, 448.0)"> </text><text xml:space="preserve" font-family="Helvetica-Light" font-size="76.3" fill="#FEFFFF" transform="matrix(1.00, 0.00, -0.00, -1.00, 825.6, 448.0)">o</text><text xml:space="preserve" font-family="Helvetica-Light" font-size="76.3" fill="#FEFFFF" transform="matrix(1.00, 0.00, -0.00, -1.00, 868.0, 448.0)">r</text><text xml:space="preserve" font-family="Helvetica-Light" font-size="76.3" fill="#FEFFFF" transform="matrix(1.00, 0.00, -0.00, -1.00, 893.4, 448.0)"> </text><text xml:space="preserve" font-family="Helvetica-Light" font-size="76.3" fill="#FEFFFF" transform="matrix(1.00, 0.00, -0.00, -1.00, 195.0, 356.0)">“</text><text xml:space="preserve" font-family="Helvetica-Light" font-size="76.3" fill="#FEFFFF" transform="matrix(1.00, 0.00, -0.00, -1.00, 224.7, 356.0)">m</text><text xml:space="preserve" font-family="Helvetica-Light" font-size="76.3" fill="#FEFFFF" transform="matrix(1.00, 0.00, -0.00, -1.00, 288.3, 356.0)">o</text><text xml:space="preserve" font-family="Helvetica-Light" font-size="76.3" fill="#FEFFFF" transform="matrix(1.00, 0.00, -0.00, -1.00, 330.7, 356.0)">r</text><text xml:space="preserve" font-family="Helvetica-Light" font-size="76.3" fill="#FEFFFF" transform="matrix(1.00, 0.00, -0.00, -1.00, 354.7, 356.0)">e</text><text xml:space="preserve" font-family="Helvetica-Light" font-size="76.3" fill="#FEFFFF" transform="matrix(1.00, 0.00, -0.00, -1.00, 397.2, 356.0)"> </text><text xml:space="preserve" font-family="Helvetica-Light" font-size="76.3" fill="#FEFFFF" transform="matrix(1.00, 0.00, -0.00, -1.00, 418.4, 356.0)">b</text><text xml:space="preserve" font-family="Helvetica-Light" font-size="76.3" fill="#FEFFFF" transform="matrix(1.00, 0.00, -0.00, -1.00, 465.0, 356.0)">e</text><text xml:space="preserve" font-family="Helvetica-Light" font-size="76.3" fill="#FEFFFF" transform="matrix(1.00, 0.00, -0.00, -1.00, 507.5, 356.0)">a</text><text xml:space="preserve" font-family="Helvetica-Light" font-size="76.3" fill="#FEFFFF" transform="matrix(1.00, 0.00, -0.00, -1.00, 549.9, 356.0)">u</text><text xml:space="preserve" font-family="Helvetica-Light" font-size="76.3" fill="#FEFFFF" transform="matrix(1.00, 0.00, -0.00, -1.00, 592.3, 356.0)">t</text><text xml:space="preserve" font-family="Helvetica-Light" font-size="76.3" fill="#FEFFFF" transform="matrix(1.00, 0.00, -0.00, -1.00, 613.5, 356.0)">i</text><text xml:space="preserve" font-family="Helvetica-Light" font-size="76.3" fill="#FEFFFF" transform="matrix(1.00, 0.00, -0.00, -1.00, 630.5, 356.0)">f</text><text xml:space="preserve" font-family="Helvetica-Light" font-size="76.3" fill="#FEFFFF" transform="matrix(1.00, 0.00, -0.00, -1.00, 651.7, 356.0)">u</text><text xml:space="preserve" font-family="Helvetica-Light" font-size="76.3" fill="#FEFFFF" transform="matrix(1.00, 0.00, -0.00, -1.00, 694.1, 356.0)">l</text><text xml:space="preserve" font-family="Helvetica-Light" font-size="76.3" fill="#FEFFFF" transform="matrix(1.00, 0.00, -0.00, -1.00, 711.1, 356.0)">”</text><text xml:space="preserve" font-family="Helvetica-Light" font-size="76.3" fill="#FEFFFF" transform="matrix(1.00, 0.00, -0.00, -1.00, 740.8, 356.0)"> </text><text xml:space="preserve" font-family="Helvetica-Light" font-size="76.3" fill="#FEFFFF" transform="matrix(1.00, 0.00, -0.00, -1.00, 762.0, 356.0)">o</text><text xml:space="preserve" font-family="Helvetica-Light" font-size="76.3" fill="#FEFFFF" transform="matrix(1.00, 0.00, -0.00, -1.00, 804.4, 356.0)">r</text><text xml:space="preserve" font-family="Helvetica-Light" font-size="76.3" fill="#FEFFFF" transform="matrix(1.00, 0.00, -0.00, -1.00, 829.8, 356.0)"> </text><text xml:space="preserve" font-family="Helvetica-Light" font-size="76.3" fill="#FEFFFF" transform="matrix(1.00, 0.00, -0.00, -1.00, 193.0, 264.0)">“</text><text xml:space="preserve" font-family="Helvetica-Light" font-size="76.3" fill="#FEFFFF" transform="matrix(1.00, 0.00, -0.00, -1.00, 222.7, 264.0)">m</text><text xml:space="preserve" font-family="Helvetica-Light" font-size="76.3" fill="#FEFFFF" transform="matrix(1.00, 0.00, -0.00, -1.00, 286.3, 264.0)">o</text><text xml:space="preserve" font-family="Helvetica-Light" font-size="76.3" fill="#FEFFFF" transform="matrix(1.00, 0.00, -0.00, -1.00, 328.7, 264.0)">r</text><text xml:space="preserve" font-family="Helvetica-Light" font-size="76.3" fill="#FEFFFF" transform="matrix(1.00, 0.00, -0.00, -1.00, 352.7, 264.0)">e</text><text xml:space="preserve" font-family="Helvetica-Light" font-size="76.3" fill="#FEFFFF" transform="matrix(1.00, 0.00, -0.00, -1.00, 395.2, 264.0)"> </text><text xml:space="preserve" font-family="Helvetica-Light" font-size="76.3" fill="#FEFFFF" transform="matrix(1.00, 0.00, -0.00, -1.00, 416.4, 264.0)">i</text><text xml:space="preserve" font-family="Helvetica-Light" font-size="76.3" fill="#FEFFFF" transform="matrix(1.00, 0.00, -0.00, -1.00, 433.3, 264.0)">d</text><text xml:space="preserve" font-family="Helvetica-Light" font-size="76.3" fill="#FEFFFF" transform="matrix(1.00, 0.00, -0.00, -1.00, 480.0, 264.0)">i</text><text xml:space="preserve" font-family="Helvetica-Light" font-size="76.3" fill="#FEFFFF" transform="matrix(1.00, 0.00, -0.00, -1.00, 496.9, 264.0)">o</text><text xml:space="preserve" font-family="Helvetica-Light" font-size="76.3" fill="#FEFFFF" transform="matrix(1.00, 0.00, -0.00, -1.00, 539.3, 264.0)">m</text><text xml:space="preserve" font-family="Helvetica-Light" font-size="76.3" fill="#FEFFFF" transform="matrix(1.00, 0.00, -0.00, -1.00, 602.9, 264.0)">a</text><text xml:space="preserve" font-family="Helvetica-Light" font-size="76.3" fill="#FEFFFF" transform="matrix(1.00, 0.00, -0.00, -1.00, 645.3, 264.0)">t</text><text xml:space="preserve" font-family="Helvetica-Light" font-size="76.3" fill="#FEFFFF" transform="matrix(1.00, 0.00, -0.00, -1.00, 666.6, 264.0)">i</text><text xml:space="preserve" font-family="Helvetica-Light" font-size="76.3" fill="#FEFFFF" transform="matrix(1.00, 0.00, -0.00, -1.00, 683.5, 264.0)">c</text><text xml:space="preserve" font-family="Helvetica-Light" font-size="76.3" fill="#FEFFFF" transform="matrix(1.00, 0.00, -0.00, -1.00, 725.9, 264.0)">”</text><text xml:space="preserve" font-family="Helvetica-Light" font-size="76.3" fill="#FEFFFF" transform="matrix(1.00, 0.00, -0.00, -1.00, 755.6, 264.0)"> </text><text xml:space="preserve" font-family="Helvetica-Light" font-size="76.3" fill="#FEFFFF" transform="matrix(1.00, 0.00, -0.00, -1.00, 776.8, 264.0)">i</text><text xml:space="preserve" font-family="Helvetica-Light" font-size="76.3" fill="#FEFFFF" transform="matrix(1.00, 0.00, -0.00, -1.00, 793.8, 264.0)">s</text><text xml:space="preserve" font-family="Helvetica-Light" font-size="76.3" fill="#FEFFFF" transform="matrix(1.00, 0.00, -0.00, -1.00, 832.0, 264.0)"> </text><text xml:space="preserve" font-family="Helvetica-Bold" font-weight="bold" font-size="76.3" fill="#FF2600" transform="matrix(1.00, 0.00, -0.00, -1.00, 321.0, 172.0)">f</text><text xml:space="preserve" font-family="Helvetica-Bold" font-weight="bold" font-size="76.3" fill="#FF2600" transform="matrix(1.00, 0.00, -0.00, -1.00, 346.4, 172.0)">a</text><text xml:space="preserve" font-family="Helvetica-Bold" font-weight="bold" font-size="76.3" fill="#FF2600" transform="matrix(1.00, 0.00, -0.00, -1.00, 388.9, 172.0)">m</text><text xml:space="preserve" font-family="Helvetica-Bold" font-weight="bold" font-size="76.3" fill="#FF2600" transform="matrix(1.00, 0.00, -0.00, -1.00, 456.8, 172.0)">i</text><text xml:space="preserve" font-family="Helvetica-Bold" font-weight="bold" font-size="76.3" fill="#FF2600" transform="matrix(1.00, 0.00, -0.00, -1.00, 477.9, 172.0)">l</text><text xml:space="preserve" font-family="Helvetica-Bold" font-weight="bold" font-size="76.3" fill="#FF2600" transform="matrix(1.00, 0.00, -0.00, -1.00, 499.1, 172.0)">i</text><text xml:space="preserve" font-family="Helvetica-Bold" font-weight="bold" font-size="76.3" fill="#FF2600" transform="matrix(1.00, 0.00, -0.00, -1.00, 520.3, 172.0)">a</text><text xml:space="preserve" font-family="Helvetica-Bold" font-weight="bold" font-size="76.3" fill="#FF2600" transform="matrix(1.00, 0.00, -0.00, -1.00, 562.8, 172.0)">r</text><text xml:space="preserve" font-family="Helvetica-Bold" font-weight="bold" font-size="76.3" fill="#FF2600" transform="matrix(1.00, 0.00, -0.00, -1.00, 592.5, 172.0)">i</text><text xml:space="preserve" font-family="Helvetica-Bold" font-weight="bold" font-size="76.3" fill="#FF2600" transform="matrix(1.00, 0.00, -0.00, -1.00, 613.7, 172.0)">t</text><text xml:space="preserve" font-family="Helvetica-Bold" font-weight="bold" font-size="76.3" fill="#FF2600" transform="matrix(1.00, 0.00, -0.00, -1.00, 639.1, 172.0)">y</text><text xml:space="preserve" font-family="Helvetica-Light" font-size="76.3" fill="#FEFFFF" transform="matrix(1.00, 0.00, -0.00, -1.00, 681.5, 172.0)">.</text></g></svg>