<?xml version="1.0" encoding="UTF-8" standalone="no"?><svg xmlns="http://www.w3.org/2000/svg" xmlns:xlink="http://www.w3.org/1999/xlink" clip-rule="evenodd" stroke-miterlimit="4.00" viewBox="0 0 1024 768"><desc>SVG generated by Keynote</desc><defs></defs><g transform="matrix(1.00, 0.00, -0.00, -1.00, 0.0, 768.0)"><path d="M 0.0 768.0 L 1024.0 768.0 L 1024.0 0.0 L 0.0 0.0 Z M 0.0 768.0 " fill="#000000"></path><text xml:space="preserve" font-family="Helvetica-Light" font-size="144.0" fill="#FEFFFF" transform="matrix(1.00, 0.00, -0.00, -1.00, 100.0, 575.0)">S</text><text xml:space="preserve" font-family="Helvetica-Light" font-size="144.0" fill="#FEFFFF" transform="matrix(1.00, 0.00, -0.00, -1.00, 188.0, 575.0)">a</text><text xml:space="preserve" font-family="Helvetica-Light" font-size="144.0" fill="#FEFFFF" transform="matrix(1.00, 0.00, -0.00, -1.00, 268.0, 575.0)">m</text><text xml:space="preserve" font-family="Helvetica-Light" font-size="144.0" fill="#FEFFFF" transform="matrix(1.00, 0.00, -0.00, -1.00, 388.0, 575.0)">e</text><text xml:space="preserve" font-family="Helvetica-Light" font-size="144.0" fill="#FEFFFF" transform="matrix(1.00, 0.00, -0.00, -1.00, 32.0, 199.0)">T</text><text xml:space="preserve" font-family="Helvetica-Light" font-size="144.0" fill="#FEFFFF" transform="matrix(1.00, 0.00, -0.00, -1.00, 96.1, 199.0)">o</text><text xml:space="preserve" font-family="Helvetica-Light" font-size="144.0" fill="#FEFFFF" transform="matrix(1.00, 0.00, -0.00, -1.00, 176.1, 199.0)">g</text><text xml:space="preserve" font-family="Helvetica-Light" font-size="144.0" fill="#FEFFFF" transform="matrix(1.00, 0.00, -0.00, -1.00, 264.1, 199.0)">e</text><text xml:space="preserve" font-family="Helvetica-Light" font-size="144.0" fill="#FEFFFF" transform="matrix(1.00, 0.00, -0.00, -1.00, 344.2, 199.0)">t</text><text xml:space="preserve" font-family="Helvetica-Light" font-size="144.0" fill="#FEFFFF" transform="matrix(1.00, 0.00, -0.00, -1.00, 384.2, 199.0)">h</text><text xml:space="preserve" font-family="Helvetica-Light" font-size="144.0" fill="#FEFFFF" transform="matrix(1.00, 0.00, -0.00, -1.00, 464.3, 199.0)">e</text><text xml:space="preserve" font-family="Helvetica-Light" font-size="144.0" fill="#FEFFFF" transform="matrix(1.00, 0.00, -0.00, -1.00, 544.4, 199.0)">r</text><image xlink:href="../../025D4758-DC48-448E-84DE-2F7B7726FE8E/assets/990BC3F8A3F2E62040CAFE3271E90D25.jpeg" width="307.00" height="230.00" transform="matrix(1.00, 0.00, -0.00, -1.00, 576.0, 743.0)"></image><image xlink:href="../../025D4758-DC48-448E-84DE-2F7B7726FE8E/assets/48BAF4211693EF3D04C534331C2CF514.jpeg" width="378.00" height="268.00" transform="matrix(1.00, 0.00, -0.00, -1.00, 615.0, 364.0)"></image><text xml:space="preserve" font-family="Helvetica-Light" font-size="72.0" fill="#FEFFFF" transform="matrix(1.00, 0.00, -0.00, -1.00, 476.0, 414.0)">v</text><text xml:space="preserve" font-family="Helvetica-Light" font-size="72.0" fill="#FEFFFF" transform="matrix(1.00, 0.00, -0.00, -1.00, 512.0, 414.0)">s</text></g></svg>