<?xml version="1.0" encoding="UTF-8" standalone="no"?><svg xmlns="http://www.w3.org/2000/svg" xmlns:xlink="http://www.w3.org/1999/xlink" clip-rule="evenodd" stroke-miterlimit="4.00" viewBox="0 0 1024 768"><desc>SVG generated by Keynote</desc><defs></defs><g transform="matrix(1.00, 0.00, -0.00, -1.00, 0.0, 768.0)"><path d="M 0.0 768.0 L 1024.0 768.0 L 1024.0 0.0 L 0.0 0.0 Z M 0.0 768.0 " fill="#000000"></path><text xml:space="preserve" font-family="Helvetica-Light" font-size="106.6" fill="#FEFFFF" transform="matrix(1.00, 0.00, -0.00, -1.00, 124.0, 587.0)">C</text><text xml:space="preserve" font-family="Helvetica-Light" font-size="106.6" fill="#FEFFFF" transform="matrix(1.00, 0.00, -0.00, -1.00, 200.9, 587.0)">o</text><text xml:space="preserve" font-family="Helvetica-Light" font-size="106.6" fill="#FEFFFF" transform="matrix(1.00, 0.00, -0.00, -1.00, 260.2, 587.0)">d</text><text xml:space="preserve" font-family="Helvetica-Light" font-size="106.6" fill="#FEFFFF" transform="matrix(1.00, 0.00, -0.00, -1.00, 325.3, 587.0)">e</text><text xml:space="preserve" font-family="Helvetica-Light" font-size="106.6" fill="#FEFFFF" transform="matrix(1.00, 0.00, -0.00, -1.00, 384.5, 587.0)"> </text><text xml:space="preserve" font-family="Helvetica-Light" font-size="106.6" fill="#FEFFFF" transform="matrix(1.00, 0.00, -0.00, -1.00, 414.2, 587.0)">S</text><text xml:space="preserve" font-family="Helvetica-Light" font-size="106.6" fill="#FEFFFF" transform="matrix(1.00, 0.00, -0.00, -1.00, 479.3, 587.0)">t</text><text xml:space="preserve" font-family="Helvetica-Light" font-size="106.6" fill="#FEFFFF" transform="matrix(1.00, 0.00, -0.00, -1.00, 508.9, 587.0)">a</text><text xml:space="preserve" font-family="Helvetica-Light" font-size="106.6" fill="#FEFFFF" transform="matrix(1.00, 0.00, -0.00, -1.00, 568.1, 587.0)">n</text><text xml:space="preserve" font-family="Helvetica-Light" font-size="106.6" fill="#FEFFFF" transform="matrix(1.00, 0.00, -0.00, -1.00, 627.4, 587.0)">d</text><text xml:space="preserve" font-family="Helvetica-Light" font-size="106.6" fill="#FEFFFF" transform="matrix(1.00, 0.00, -0.00, -1.00, 692.5, 587.0)">a</text><text xml:space="preserve" font-family="Helvetica-Light" font-size="106.6" fill="#FEFFFF" transform="matrix(1.00, 0.00, -0.00, -1.00, 751.7, 587.0)">r</text><text xml:space="preserve" font-family="Helvetica-Light" font-size="106.6" fill="#FEFFFF" transform="matrix(1.00, 0.00, -0.00, -1.00, 785.3, 587.0)">d</text><text xml:space="preserve" font-family="Helvetica-Light" font-size="106.6" fill="#FEFFFF" transform="matrix(1.00, 0.00, -0.00, -1.00, 850.4, 587.0)">s</text><text xml:space="preserve" font-family="Helvetica-Light" font-size="106.6" fill="#FEFFFF" transform="matrix(1.00, 0.00, -0.00, -1.00, 903.7, 587.0)">,</text><text xml:space="preserve" font-family="Helvetica-Light" font-size="106.6" fill="#FEFFFF" transform="matrix(1.00, 0.00, -0.00, -1.00, 933.3, 587.0)"> </text><text xml:space="preserve" font-family="Helvetica-Light" font-size="106.6" fill="#FEFFFF" transform="matrix(1.00, 0.00, -0.00, -1.00, 162.0, 459.0)">S</text><text xml:space="preserve" font-family="Helvetica-Light" font-size="106.6" fill="#FEFFFF" transform="matrix(1.00, 0.00, -0.00, -1.00, 227.1, 459.0)">t</text><text xml:space="preserve" font-family="Helvetica-Light" font-size="106.6" fill="#FEFFFF" transform="matrix(1.00, 0.00, -0.00, -1.00, 256.7, 459.0)">y</text><text xml:space="preserve" font-family="Helvetica-Light" font-size="106.6" fill="#FEFFFF" transform="matrix(1.00, 0.00, -0.00, -1.00, 310.0, 459.0)">l</text><text xml:space="preserve" font-family="Helvetica-Light" font-size="106.6" fill="#FEFFFF" transform="matrix(1.00, 0.00, -0.00, -1.00, 333.7, 459.0)">e</text><text xml:space="preserve" font-family="Helvetica-Light" font-size="106.6" fill="#FEFFFF" transform="matrix(1.00, 0.00, -0.00, -1.00, 392.9, 459.0)"> </text><text xml:space="preserve" font-family="Helvetica-Light" font-size="106.6" fill="#FEFFFF" transform="matrix(1.00, 0.00, -0.00, -1.00, 422.5, 459.0)">G</text><text xml:space="preserve" font-family="Helvetica-Light" font-size="106.6" fill="#FEFFFF" transform="matrix(1.00, 0.00, -0.00, -1.00, 505.4, 459.0)">u</text><text xml:space="preserve" font-family="Helvetica-Light" font-size="106.6" fill="#FEFFFF" transform="matrix(1.00, 0.00, -0.00, -1.00, 564.7, 459.0)">i</text><text xml:space="preserve" font-family="Helvetica-Light" font-size="106.6" fill="#FEFFFF" transform="matrix(1.00, 0.00, -0.00, -1.00, 588.3, 459.0)">d</text><text xml:space="preserve" font-family="Helvetica-Light" font-size="106.6" fill="#FEFFFF" transform="matrix(1.00, 0.00, -0.00, -1.00, 653.5, 459.0)">e</text><text xml:space="preserve" font-family="Helvetica-Light" font-size="106.6" fill="#FEFFFF" transform="matrix(1.00, 0.00, -0.00, -1.00, 712.7, 459.0)">s</text><text xml:space="preserve" font-family="Helvetica-Light" font-size="106.6" fill="#FEFFFF" transform="matrix(1.00, 0.00, -0.00, -1.00, 766.0, 459.0)">,</text><text xml:space="preserve" font-family="Helvetica-Light" font-size="106.6" fill="#FEFFFF" transform="matrix(1.00, 0.00, -0.00, -1.00, 795.6, 459.0)"> </text><text xml:space="preserve" font-family="Helvetica-Light" font-size="106.6" fill="#FEFFFF" transform="matrix(1.00, 0.00, -0.00, -1.00, 825.2, 459.0)">&amp;</text><text xml:space="preserve" font-family="Helvetica-Light" font-size="106.6" fill="#FEFFFF" transform="matrix(1.00, 0.00, -0.00, -1.00, 896.3, 459.0)"> </text><text xml:space="preserve" font-family="Helvetica-Light" font-size="106.6" fill="#FEFFFF" transform="matrix(1.00, 0.00, -0.00, -1.00, 143.0, 331.0)">W</text><text xml:space="preserve" font-family="Helvetica-Light" font-size="106.6" fill="#FEFFFF" transform="matrix(1.00, 0.00, -0.00, -1.00, 237.7, 331.0)">h</text><text xml:space="preserve" font-family="Helvetica-Light" font-size="106.6" fill="#FEFFFF" transform="matrix(1.00, 0.00, -0.00, -1.00, 297.0, 331.0)">y</text><text xml:space="preserve" font-family="Helvetica-Light" font-size="106.6" fill="#FEFFFF" transform="matrix(1.00, 0.00, -0.00, -1.00, 350.3, 331.0)"> </text><text xml:space="preserve" font-family="Helvetica-Light" font-size="106.6" fill="#FEFFFF" transform="matrix(1.00, 0.00, -0.00, -1.00, 379.9, 331.0)">Y</text><text xml:space="preserve" font-family="Helvetica-Light" font-size="106.6" fill="#FEFFFF" transform="matrix(1.00, 0.00, -0.00, -1.00, 435.2, 331.0)">o</text><text xml:space="preserve" font-family="Helvetica-Light" font-size="106.6" fill="#FEFFFF" transform="matrix(1.00, 0.00, -0.00, -1.00, 494.4, 331.0)">u</text><text xml:space="preserve" font-family="Helvetica-Light" font-size="106.6" fill="#FEFFFF" transform="matrix(1.00, 0.00, -0.00, -1.00, 553.7, 331.0)"> </text><text xml:space="preserve" font-family="Helvetica-Light" font-size="106.6" fill="#FEFFFF" transform="matrix(1.00, 0.00, -0.00, -1.00, 583.3, 331.0)">S</text><text xml:space="preserve" font-family="Helvetica-Light" font-size="106.6" fill="#FEFFFF" transform="matrix(1.00, 0.00, -0.00, -1.00, 648.4, 331.0)">h</text><text xml:space="preserve" font-family="Helvetica-Light" font-size="106.6" fill="#FEFFFF" transform="matrix(1.00, 0.00, -0.00, -1.00, 707.7, 331.0)">o</text><text xml:space="preserve" font-family="Helvetica-Light" font-size="106.6" fill="#FEFFFF" transform="matrix(1.00, 0.00, -0.00, -1.00, 766.9, 331.0)">u</text><text xml:space="preserve" font-family="Helvetica-Light" font-size="106.6" fill="#FEFFFF" transform="matrix(1.00, 0.00, -0.00, -1.00, 826.2, 331.0)">l</text><text xml:space="preserve" font-family="Helvetica-Light" font-size="106.6" fill="#FEFFFF" transform="matrix(1.00, 0.00, -0.00, -1.00, 849.8, 331.0)">d</text><text xml:space="preserve" font-family="Helvetica-Light" font-size="106.6" fill="#FEFFFF" transform="matrix(1.00, 0.00, -0.00, -1.00, 914.9, 331.0)"> </text><text xml:space="preserve" font-family="Helvetica-Light" font-size="106.6" fill="#FEFFFF" transform="matrix(1.00, 0.00, -0.00, -1.00, 162.0, 203.0)">B</text><text xml:space="preserve" font-family="Helvetica-Light" font-size="106.6" fill="#FEFFFF" transform="matrix(1.00, 0.00, -0.00, -1.00, 233.1, 203.0)">e</text><text xml:space="preserve" font-family="Helvetica-Light" font-size="106.6" fill="#FEFFFF" transform="matrix(1.00, 0.00, -0.00, -1.00, 292.3, 203.0)"> </text><text xml:space="preserve" font-family="Helvetica-Light" font-size="106.6" fill="#FEFFFF" transform="matrix(1.00, 0.00, -0.00, -1.00, 321.9, 203.0)">U</text><text xml:space="preserve" font-family="Helvetica-Light" font-size="106.6" fill="#FEFFFF" transform="matrix(1.00, 0.00, -0.00, -1.00, 398.9, 203.0)">s</text><text xml:space="preserve" font-family="Helvetica-Light" font-size="106.6" fill="#FEFFFF" transform="matrix(1.00, 0.00, -0.00, -1.00, 452.2, 203.0)">i</text><text xml:space="preserve" font-family="Helvetica-Light" font-size="106.6" fill="#FEFFFF" transform="matrix(1.00, 0.00, -0.00, -1.00, 475.8, 203.0)">n</text><text xml:space="preserve" font-family="Helvetica-Light" font-size="106.6" fill="#FEFFFF" transform="matrix(1.00, 0.00, -0.00, -1.00, 535.1, 203.0)">g</text><text xml:space="preserve" font-family="Helvetica-Light" font-size="106.6" fill="#FEFFFF" transform="matrix(1.00, 0.00, -0.00, -1.00, 600.2, 203.0)"> </text><text xml:space="preserve" font-family="Helvetica-Light" font-size="106.6" fill="#FEFFFF" transform="matrix(1.00, 0.00, -0.00, -1.00, 629.8, 203.0)">T</text><text xml:space="preserve" font-family="Helvetica-Light" font-size="106.6" fill="#FEFFFF" transform="matrix(1.00, 0.00, -0.00, -1.00, 689.0, 203.0)">h</text><text xml:space="preserve" font-family="Helvetica-Light" font-size="106.6" fill="#FEFFFF" transform="matrix(1.00, 0.00, -0.00, -1.00, 748.3, 203.0)">e</text><text xml:space="preserve" font-family="Helvetica-Light" font-size="106.6" fill="#FEFFFF" transform="matrix(1.00, 0.00, -0.00, -1.00, 807.5, 203.0)">m</text></g></svg>