<?xml version="1.0" encoding="UTF-8" standalone="no"?><svg xmlns="http://www.w3.org/2000/svg" xmlns:xlink="http://www.w3.org/1999/xlink" clip-rule="evenodd" stroke-miterlimit="4.00" viewBox="0 0 908 63"><desc>SVG generated by Keynote</desc><defs></defs><g transform="matrix(1.00, 0.00, -0.00, -1.00, 0.0, 63.0)"><text xml:space="preserve" font-family="HelveticaNeue" font-size="64.0" fill="#FEFFFF" transform="matrix(1.00, 0.00, -0.00, -1.00, 0.0, 15.0)">a</text><text xml:space="preserve" font-family="HelveticaNeue" font-size="64.0" fill="#FEFFFF" transform="matrix(1.00, 0.00, -0.00, -1.00, 34.4, 15.0)">r</text><text xml:space="preserve" font-family="HelveticaNeue" font-size="64.0" fill="#FEFFFF" transform="matrix(1.00, 0.00, -0.00, -1.00, 53.9, 15.0)">g</text><text xml:space="preserve" font-family="HelveticaNeue" font-size="64.0" fill="#FEFFFF" transform="matrix(1.00, 0.00, -0.00, -1.00, 90.6, 15.0)">u</text><text xml:space="preserve" font-family="HelveticaNeue" font-size="64.0" fill="#FEFFFF" transform="matrix(1.00, 0.00, -0.00, -1.00, 126.2, 15.0)">e</text><text xml:space="preserve" font-family="HelveticaNeue" font-size="64.0" fill="#FEFFFF" transform="matrix(1.00, 0.00, -0.00, -1.00, 160.6, 15.0)"> </text><text xml:space="preserve" font-family="HelveticaNeue" font-size="64.0" fill="#FEFFFF" transform="matrix(1.00, 0.00, -0.00, -1.00, 178.4, 15.0)">s</text><text xml:space="preserve" font-family="HelveticaNeue" font-size="64.0" fill="#FEFFFF" transform="matrix(1.00, 0.00, -0.00, -1.00, 210.4, 15.0)">t</text><text xml:space="preserve" font-family="HelveticaNeue" font-size="64.0" fill="#FEFFFF" transform="matrix(1.00, 0.00, -0.00, -1.00, 230.5, 15.0)">y</text><text xml:space="preserve" font-family="HelveticaNeue" font-size="64.0" fill="#FEFFFF" transform="matrix(1.00, 0.00, -0.00, -1.00, 262.5, 15.0)">l</text><text xml:space="preserve" font-family="HelveticaNeue" font-size="64.0" fill="#FEFFFF" transform="matrix(1.00, 0.00, -0.00, -1.00, 276.7, 15.0)">e</text><text xml:space="preserve" font-family="HelveticaNeue" font-size="64.0" fill="#FEFFFF" transform="matrix(1.00, 0.00, -0.00, -1.00, 311.1, 15.0)"> </text><text xml:space="preserve" font-family="HelveticaNeue" font-size="64.0" fill="#FEFFFF" transform="matrix(1.00, 0.00, -0.00, -1.00, 328.9, 15.0)">&lt;</text><text xml:space="preserve" font-family="HelveticaNeue" font-size="64.0" fill="#FEFFFF" transform="matrix(1.00, 0.00, -0.00, -1.00, 367.3, 15.0)">=</text><text xml:space="preserve" font-family="HelveticaNeue" font-size="64.0" fill="#FEFFFF" transform="matrix(1.00, 0.00, -0.00, -1.00, 405.7, 15.0)">&gt;</text><text xml:space="preserve" font-family="HelveticaNeue" font-size="64.0" fill="#FEFFFF" transform="matrix(1.00, 0.00, -0.00, -1.00, 444.1, 15.0)"> </text><text xml:space="preserve" font-family="HelveticaNeue" font-size="64.0" fill="#FEFFFF" transform="matrix(1.00, 0.00, -0.00, -1.00, 461.9, 15.0)">g</text><text xml:space="preserve" font-family="HelveticaNeue" font-size="64.0" fill="#FEFFFF" transform="matrix(1.00, 0.00, -0.00, -1.00, 498.6, 15.0)">e</text><text xml:space="preserve" font-family="HelveticaNeue" font-size="64.0" fill="#FEFFFF" transform="matrix(1.00, 0.00, -0.00, -1.00, 533.0, 15.0)">t</text><text xml:space="preserve" font-family="HelveticaNeue" font-size="64.0" fill="#FEFFFF" transform="matrix(1.00, 0.00, -0.00, -1.00, 553.2, 15.0)"> </text><text xml:space="preserve" font-family="HelveticaNeue" font-size="64.0" fill="#FEFFFF" transform="matrix(1.00, 0.00, -0.00, -1.00, 570.9, 15.0)">t</text><text xml:space="preserve" font-family="HelveticaNeue" font-size="64.0" fill="#FEFFFF" transform="matrix(1.00, 0.00, -0.00, -1.00, 591.1, 15.0)">h</text><text xml:space="preserve" font-family="HelveticaNeue" font-size="64.0" fill="#FEFFFF" transform="matrix(1.00, 0.00, -0.00, -1.00, 626.7, 15.0)">i</text><text xml:space="preserve" font-family="HelveticaNeue" font-size="64.0" fill="#FEFFFF" transform="matrix(1.00, 0.00, -0.00, -1.00, 640.9, 15.0)">n</text><text xml:space="preserve" font-family="HelveticaNeue" font-size="64.0" fill="#FEFFFF" transform="matrix(1.00, 0.00, -0.00, -1.00, 676.5, 15.0)">g</text><text xml:space="preserve" font-family="HelveticaNeue" font-size="64.0" fill="#FEFFFF" transform="matrix(1.00, 0.00, -0.00, -1.00, 713.2, 15.0)">s</text><text xml:space="preserve" font-family="HelveticaNeue" font-size="64.0" fill="#FEFFFF" transform="matrix(1.00, 0.00, -0.00, -1.00, 745.2, 15.0)"> </text><text xml:space="preserve" font-family="HelveticaNeue" font-size="64.0" fill="#FEFFFF" transform="matrix(1.00, 0.00, -0.00, -1.00, 763.0, 15.0)">d</text><text xml:space="preserve" font-family="HelveticaNeue" font-size="64.0" fill="#FEFFFF" transform="matrix(1.00, 0.00, -0.00, -1.00, 801.0, 15.0)">o</text><text xml:space="preserve" font-family="HelveticaNeue" font-size="64.0" fill="#FEFFFF" transform="matrix(1.00, 0.00, -0.00, -1.00, 837.7, 15.0)">n</text><text xml:space="preserve" font-family="HelveticaNeue" font-size="64.0" fill="#FEFFFF" transform="matrix(1.00, 0.00, -0.00, -1.00, 873.3, 15.0)">e</text></g></svg>