<?xml version="1.0" encoding="UTF-8" standalone="no"?><svg xmlns="http://www.w3.org/2000/svg" xmlns:xlink="http://www.w3.org/1999/xlink" clip-rule="evenodd" stroke-miterlimit="4.00" viewBox="0 0 1024 768"><desc>SVG generated by Keynote</desc><defs></defs><g transform="matrix(1.00, 0.00, -0.00, -1.00, 0.0, 768.0)"><path d="M 0.0 768.0 L 1024.0 768.0 L 1024.0 0.0 L 0.0 0.0 Z M 0.0 768.0 " fill="#000000"></path><text xml:space="preserve" font-family="HelveticaNeue" font-size="64.0" fill="#FEFFFF" transform="matrix(1.00, 0.00, -0.00, -1.00, 58.0, 360.0)">a</text><text xml:space="preserve" font-family="HelveticaNeue" font-size="64.0" fill="#FEFFFF" transform="matrix(1.00, 0.00, -0.00, -1.00, 92.4, 360.0)">r</text><text xml:space="preserve" font-family="HelveticaNeue" font-size="64.0" fill="#FEFFFF" transform="matrix(1.00, 0.00, -0.00, -1.00, 111.9, 360.0)">g</text><text xml:space="preserve" font-family="HelveticaNeue" font-size="64.0" fill="#FEFFFF" transform="matrix(1.00, 0.00, -0.00, -1.00, 148.6, 360.0)">u</text><text xml:space="preserve" font-family="HelveticaNeue" font-size="64.0" fill="#FEFFFF" transform="matrix(1.00, 0.00, -0.00, -1.00, 184.2, 360.0)">e</text><text xml:space="preserve" font-family="HelveticaNeue" font-size="64.0" fill="#FEFFFF" transform="matrix(1.00, 0.00, -0.00, -1.00, 218.6, 360.0)"> </text><text xml:space="preserve" font-family="HelveticaNeue" font-size="64.0" fill="#FEFFFF" transform="matrix(1.00, 0.00, -0.00, -1.00, 236.4, 360.0)">s</text><text xml:space="preserve" font-family="HelveticaNeue" font-size="64.0" fill="#FEFFFF" transform="matrix(1.00, 0.00, -0.00, -1.00, 268.4, 360.0)">t</text><text xml:space="preserve" font-family="HelveticaNeue" font-size="64.0" fill="#FEFFFF" transform="matrix(1.00, 0.00, -0.00, -1.00, 288.5, 360.0)">y</text><text xml:space="preserve" font-family="HelveticaNeue" font-size="64.0" fill="#FEFFFF" transform="matrix(1.00, 0.00, -0.00, -1.00, 320.5, 360.0)">l</text><text xml:space="preserve" font-family="HelveticaNeue" font-size="64.0" fill="#FEFFFF" transform="matrix(1.00, 0.00, -0.00, -1.00, 334.7, 360.0)">e</text><text xml:space="preserve" font-family="HelveticaNeue" font-size="64.0" fill="#FEFFFF" transform="matrix(1.00, 0.00, -0.00, -1.00, 369.1, 360.0)"> </text><text xml:space="preserve" font-family="HelveticaNeue" font-size="64.0" fill="#FEFFFF" transform="matrix(1.00, 0.00, -0.00, -1.00, 386.9, 360.0)">&lt;</text><text xml:space="preserve" font-family="HelveticaNeue" font-size="64.0" fill="#FEFFFF" transform="matrix(1.00, 0.00, -0.00, -1.00, 425.3, 360.0)">=</text><text xml:space="preserve" font-family="HelveticaNeue" font-size="64.0" fill="#FEFFFF" transform="matrix(1.00, 0.00, -0.00, -1.00, 463.7, 360.0)">&gt;</text><text xml:space="preserve" font-family="HelveticaNeue" font-size="64.0" fill="#FEFFFF" transform="matrix(1.00, 0.00, -0.00, -1.00, 502.1, 360.0)"> </text><text xml:space="preserve" font-family="HelveticaNeue" font-size="64.0" fill="#FEFFFF" transform="matrix(1.00, 0.00, -0.00, -1.00, 519.9, 360.0)">g</text><text xml:space="preserve" font-family="HelveticaNeue" font-size="64.0" fill="#FEFFFF" transform="matrix(1.00, 0.00, -0.00, -1.00, 556.6, 360.0)">e</text><text xml:space="preserve" font-family="HelveticaNeue" font-size="64.0" fill="#FEFFFF" transform="matrix(1.00, 0.00, -0.00, -1.00, 591.0, 360.0)">t</text><text xml:space="preserve" font-family="HelveticaNeue" font-size="64.0" fill="#FEFFFF" transform="matrix(1.00, 0.00, -0.00, -1.00, 611.2, 360.0)"> </text><text xml:space="preserve" font-family="HelveticaNeue" font-size="64.0" fill="#FEFFFF" transform="matrix(1.00, 0.00, -0.00, -1.00, 628.9, 360.0)">t</text><text xml:space="preserve" font-family="HelveticaNeue" font-size="64.0" fill="#FEFFFF" transform="matrix(1.00, 0.00, -0.00, -1.00, 649.1, 360.0)">h</text><text xml:space="preserve" font-family="HelveticaNeue" font-size="64.0" fill="#FEFFFF" transform="matrix(1.00, 0.00, -0.00, -1.00, 684.7, 360.0)">i</text><text xml:space="preserve" font-family="HelveticaNeue" font-size="64.0" fill="#FEFFFF" transform="matrix(1.00, 0.00, -0.00, -1.00, 698.9, 360.0)">n</text><text xml:space="preserve" font-family="HelveticaNeue" font-size="64.0" fill="#FEFFFF" transform="matrix(1.00, 0.00, -0.00, -1.00, 734.5, 360.0)">g</text><text xml:space="preserve" font-family="HelveticaNeue" font-size="64.0" fill="#FEFFFF" transform="matrix(1.00, 0.00, -0.00, -1.00, 771.2, 360.0)">s</text><text xml:space="preserve" font-family="HelveticaNeue" font-size="64.0" fill="#FEFFFF" transform="matrix(1.00, 0.00, -0.00, -1.00, 803.2, 360.0)"> </text><text xml:space="preserve" font-family="HelveticaNeue" font-size="64.0" fill="#FEFFFF" transform="matrix(1.00, 0.00, -0.00, -1.00, 821.0, 360.0)">d</text><text xml:space="preserve" font-family="HelveticaNeue" font-size="64.0" fill="#FEFFFF" transform="matrix(1.00, 0.00, -0.00, -1.00, 859.0, 360.0)">o</text><text xml:space="preserve" font-family="HelveticaNeue" font-size="64.0" fill="#FEFFFF" transform="matrix(1.00, 0.00, -0.00, -1.00, 895.7, 360.0)">n</text><text xml:space="preserve" font-family="HelveticaNeue" font-size="64.0" fill="#FEFFFF" transform="matrix(1.00, 0.00, -0.00, -1.00, 931.3, 360.0)">e</text><image xlink:href="../../504343C2-AD94-430B-A951-F61F1DA91F8D/assets/DBF02F959A4A73B3182762FC4560BB0E.png" width="400.00" height="259.00" transform="matrix(2.39, 0.00, -0.00, -2.39, 34.0, 682.0)"></image></g></svg>