<?xml version="1.0" encoding="UTF-8" standalone="no"?><svg xmlns="http://www.w3.org/2000/svg" xmlns:xlink="http://www.w3.org/1999/xlink" clip-rule="evenodd" stroke-miterlimit="4.00" viewBox="0 0 1024 768"><desc>SVG generated by Keynote</desc><defs></defs><g transform="matrix(1.00, 0.00, -0.00, -1.00, 0.0, 768.0)"><path d="M 0.0 768.0 L 1024.0 768.0 L 1024.0 0.0 L 0.0 0.0 Z M 0.0 768.0 " fill="#000000"></path><text xml:space="preserve" font-family="Helvetica-Light" font-size="86.4" fill="#FEFFFF" transform="matrix(1.00, 0.00, -0.00, -1.00, 198.0, 404.0)">D</text><text xml:space="preserve" font-family="Helvetica-Light" font-size="86.4" fill="#FEFFFF" transform="matrix(1.00, 0.00, -0.00, -1.00, 260.4, 404.0)">e</text><text xml:space="preserve" font-family="Helvetica-Light" font-size="86.4" fill="#FEFFFF" transform="matrix(1.00, 0.00, -0.00, -1.00, 308.4, 404.0)">s</text><text xml:space="preserve" font-family="Helvetica-Light" font-size="86.4" fill="#FEFFFF" transform="matrix(1.00, 0.00, -0.00, -1.00, 351.6, 404.0)">i</text><text xml:space="preserve" font-family="Helvetica-Light" font-size="86.4" fill="#FEFFFF" transform="matrix(1.00, 0.00, -0.00, -1.00, 370.8, 404.0)">g</text><text xml:space="preserve" font-family="Helvetica-Light" font-size="86.4" fill="#FEFFFF" transform="matrix(1.00, 0.00, -0.00, -1.00, 423.6, 404.0)">n</text><text xml:space="preserve" font-family="Helvetica-Light" font-size="86.4" fill="#FEFFFF" transform="matrix(1.00, 0.00, -0.00, -1.00, 471.6, 404.0)">e</text><text xml:space="preserve" font-family="Helvetica-Light" font-size="86.4" fill="#FEFFFF" transform="matrix(1.00, 0.00, -0.00, -1.00, 519.7, 404.0)">r</text><text xml:space="preserve" font-family="Helvetica-Light" font-size="86.4" fill="#FEFFFF" transform="matrix(1.00, 0.00, -0.00, -1.00, 548.4, 404.0)">s</text><text xml:space="preserve" font-family="Helvetica-Light" font-size="86.4" fill="#FEFFFF" transform="matrix(1.00, 0.00, -0.00, -1.00, 591.6, 404.0)"> </text><text xml:space="preserve" font-family="Helvetica-Light" font-size="86.4" fill="#FEFFFF" transform="matrix(1.00, 0.00, -0.00, -1.00, 615.7, 404.0)">N</text><text xml:space="preserve" font-family="Helvetica-Light" font-size="86.4" fill="#FEFFFF" transform="matrix(1.00, 0.00, -0.00, -1.00, 678.0, 404.0)">e</text><text xml:space="preserve" font-family="Helvetica-Light" font-size="86.4" fill="#FEFFFF" transform="matrix(1.00, 0.00, -0.00, -1.00, 726.1, 404.0)">e</text><text xml:space="preserve" font-family="Helvetica-Light" font-size="86.4" fill="#FEFFFF" transform="matrix(1.00, 0.00, -0.00, -1.00, 774.1, 404.0)">d</text><text xml:space="preserve" font-family="Helvetica-Light" font-size="86.4" fill="#FEFFFF" transform="matrix(1.00, 0.00, -0.00, -1.00, 826.9, 404.0)"> </text><text xml:space="preserve" font-family="Helvetica-Light" font-size="86.4" fill="#FEFFFF" transform="matrix(1.00, 0.00, -0.00, -1.00, 109.0, 300.0)">T</text><text xml:space="preserve" font-family="Helvetica-Light" font-size="86.4" fill="#FEFFFF" transform="matrix(1.00, 0.00, -0.00, -1.00, 157.0, 300.0)">h</text><text xml:space="preserve" font-family="Helvetica-Light" font-size="86.4" fill="#FEFFFF" transform="matrix(1.00, 0.00, -0.00, -1.00, 205.1, 300.0)">e</text><text xml:space="preserve" font-family="Helvetica-Light" font-size="86.4" fill="#FEFFFF" transform="matrix(1.00, 0.00, -0.00, -1.00, 253.1, 300.0)">m</text><text xml:space="preserve" font-family="Helvetica-Light" font-size="86.4" fill="#FEFFFF" transform="matrix(1.00, 0.00, -0.00, -1.00, 325.1, 300.0)">,</text><text xml:space="preserve" font-family="Helvetica-Light" font-size="86.4" fill="#FEFFFF" transform="matrix(1.00, 0.00, -0.00, -1.00, 349.1, 300.0)"> </text><text xml:space="preserve" font-family="Helvetica-Light" font-size="86.4" fill="#FEFFFF" transform="matrix(1.00, 0.00, -0.00, -1.00, 373.1, 300.0)">S</text><text xml:space="preserve" font-family="Helvetica-Light" font-size="86.4" fill="#FEFFFF" transform="matrix(1.00, 0.00, -0.00, -1.00, 425.9, 300.0)">o</text><text xml:space="preserve" font-family="Helvetica-Light" font-size="86.4" fill="#FEFFFF" transform="matrix(1.00, 0.00, -0.00, -1.00, 474.0, 300.0)"> </text><text xml:space="preserve" font-family="Helvetica-Light" font-size="86.4" fill="#FEFFFF" transform="matrix(1.00, 0.00, -0.00, -1.00, 498.0, 300.0)">S</text><text xml:space="preserve" font-family="Helvetica-Light" font-size="86.4" fill="#FEFFFF" transform="matrix(1.00, 0.00, -0.00, -1.00, 550.8, 300.0)">h</text><text xml:space="preserve" font-family="Helvetica-Light" font-size="86.4" fill="#FEFFFF" transform="matrix(1.00, 0.00, -0.00, -1.00, 598.8, 300.0)">o</text><text xml:space="preserve" font-family="Helvetica-Light" font-size="86.4" fill="#FEFFFF" transform="matrix(1.00, 0.00, -0.00, -1.00, 646.8, 300.0)">u</text><text xml:space="preserve" font-family="Helvetica-Light" font-size="86.4" fill="#FEFFFF" transform="matrix(1.00, 0.00, -0.00, -1.00, 694.9, 300.0)">l</text><text xml:space="preserve" font-family="Helvetica-Light" font-size="86.4" fill="#FEFFFF" transform="matrix(1.00, 0.00, -0.00, -1.00, 714.1, 300.0)">d</text><text xml:space="preserve" font-family="Helvetica-Light" font-size="86.4" fill="#FEFFFF" transform="matrix(1.00, 0.00, -0.00, -1.00, 766.8, 300.0)"> </text><text xml:space="preserve" font-family="Helvetica-Light" font-size="86.4" fill="#FEFFFF" transform="matrix(1.00, 0.00, -0.00, -1.00, 790.9, 300.0)">W</text><text xml:space="preserve" font-family="Helvetica-Light" font-size="86.4" fill="#FEFFFF" transform="matrix(1.00, 0.00, -0.00, -1.00, 866.1, 300.0)">e</text></g></svg>