<?xml version="1.0" encoding="UTF-8" standalone="no"?><svg xmlns="http://www.w3.org/2000/svg" xmlns:xlink="http://www.w3.org/1999/xlink" clip-rule="evenodd" stroke-miterlimit="4.00" viewBox="0 0 1024 768"><desc>SVG generated by Keynote</desc><defs></defs><g transform="matrix(1.00, 0.00, -0.00, -1.00, 0.0, 768.0)"><path d="M 0.0 768.0 L 1024.0 768.0 L 1024.0 0.0 L 0.0 0.0 Z M 0.0 768.0 " fill="#000000"></path><text xml:space="preserve" font-family="Helvetica-Light" font-size="72.0" fill="#FEFFFF" transform="matrix(1.00, 0.00, -0.00, -1.00, 30.0, 573.0)">i</text><text xml:space="preserve" font-family="Helvetica-Light" font-size="72.0" fill="#FEFFFF" transform="matrix(1.00, 0.00, -0.00, -1.00, 46.0, 573.0)">f</text><text xml:space="preserve" font-family="Helvetica-Light" font-size="72.0" fill="#FEFFFF" transform="matrix(1.00, 0.00, -0.00, -1.00, 66.0, 573.0)"> </text><text xml:space="preserve" font-family="Helvetica-Light" font-size="72.0" fill="#FEFFFF" transform="matrix(1.00, 0.00, -0.00, -1.00, 86.0, 573.0)">y</text><text xml:space="preserve" font-family="Helvetica-Light" font-size="72.0" fill="#FEFFFF" transform="matrix(1.00, 0.00, -0.00, -1.00, 122.0, 573.0)">o</text><text xml:space="preserve" font-family="Helvetica-Light" font-size="72.0" fill="#FEFFFF" transform="matrix(1.00, 0.00, -0.00, -1.00, 162.0, 573.0)">u</text><text xml:space="preserve" font-family="Helvetica-Light" font-size="72.0" fill="#FEFFFF" transform="matrix(1.00, 0.00, -0.00, -1.00, 202.1, 573.0)"> </text><text xml:space="preserve" font-family="Helvetica-Light" font-size="72.0" fill="#FEFFFF" transform="matrix(1.00, 0.00, -0.00, -1.00, 222.1, 573.0)">c</text><text xml:space="preserve" font-family="Helvetica-Light" font-size="72.0" fill="#FEFFFF" transform="matrix(1.00, 0.00, -0.00, -1.00, 262.1, 573.0)">a</text><text xml:space="preserve" font-family="Helvetica-Light" font-size="72.0" fill="#FEFFFF" transform="matrix(1.00, 0.00, -0.00, -1.00, 302.2, 573.0)">n</text><text xml:space="preserve" font-family="Helvetica-Light" font-size="72.0" fill="#FEFFFF" transform="matrix(1.00, 0.00, -0.00, -1.00, 342.2, 573.0)"> </text><text xml:space="preserve" font-family="Helvetica-Light" font-size="72.0" fill="#FEFFFF" transform="matrix(1.00, 0.00, -0.00, -1.00, 362.2, 573.0)">r</text><text xml:space="preserve" font-family="Helvetica-Light" font-size="72.0" fill="#FEFFFF" transform="matrix(1.00, 0.00, -0.00, -1.00, 386.2, 573.0)">a</text><text xml:space="preserve" font-family="Helvetica-Light" font-size="72.0" fill="#FEFFFF" transform="matrix(1.00, 0.00, -0.00, -1.00, 426.2, 573.0)">e</text><text xml:space="preserve" font-family="Helvetica-Light" font-size="72.0" fill="#FEFFFF" transform="matrix(1.00, 0.00, -0.00, -1.00, 466.2, 573.0)">d</text><text xml:space="preserve" font-family="Helvetica-Light" font-size="72.0" fill="#FEFFFF" transform="matrix(1.00, 0.00, -0.00, -1.00, 510.2, 573.0)"> </text><text xml:space="preserve" font-family="Helvetica-Light" font-size="72.0" fill="#FEFFFF" transform="matrix(1.00, 0.00, -0.00, -1.00, 530.3, 573.0)">t</text><text xml:space="preserve" font-family="Helvetica-Light" font-size="72.0" fill="#FEFFFF" transform="matrix(1.00, 0.00, -0.00, -1.00, 550.3, 573.0)">i</text><text xml:space="preserve" font-family="Helvetica-Light" font-size="72.0" fill="#FEFFFF" transform="matrix(1.00, 0.00, -0.00, -1.00, 566.3, 573.0)">h</text><text xml:space="preserve" font-family="Helvetica-Light" font-size="72.0" fill="#FEFFFF" transform="matrix(1.00, 0.00, -0.00, -1.00, 606.3, 573.0)">s</text><text xml:space="preserve" font-family="Helvetica-Light" font-size="72.0" fill="#FEFFFF" transform="matrix(1.00, 0.00, -0.00, -1.00, 642.3, 573.0)">,</text><text xml:space="preserve" font-family="Helvetica-Light" font-size="72.0" fill="#FEFFFF" transform="matrix(1.00, 0.00, -0.00, -1.00, 662.3, 573.0)"> </text><text xml:space="preserve" font-family="Helvetica-Light" font-size="72.0" fill="#FEFFFF" transform="matrix(1.00, 0.00, -0.00, -1.00, 682.3, 573.0)">t</text><text xml:space="preserve" font-family="Helvetica-Light" font-size="72.0" fill="#FEFFFF" transform="matrix(1.00, 0.00, -0.00, -1.00, 702.3, 573.0)">a</text><text xml:space="preserve" font-family="Helvetica-Light" font-size="72.0" fill="#FEFFFF" transform="matrix(1.00, 0.00, -0.00, -1.00, 742.4, 573.0)">h</text><text xml:space="preserve" font-family="Helvetica-Light" font-size="72.0" fill="#FEFFFF" transform="matrix(1.00, 0.00, -0.00, -1.00, 782.4, 573.0)">n</text><text xml:space="preserve" font-family="Helvetica-Light" font-size="72.0" fill="#FEFFFF" transform="matrix(1.00, 0.00, -0.00, -1.00, 822.4, 573.0)">k</text><text xml:space="preserve" font-family="Helvetica-Light" font-size="72.0" fill="#FEFFFF" transform="matrix(1.00, 0.00, -0.00, -1.00, 858.4, 573.0)"> </text><text xml:space="preserve" font-family="Helvetica-Light" font-size="72.0" fill="#FEFFFF" transform="matrix(1.00, 0.00, -0.00, -1.00, 878.4, 573.0)">y</text><text xml:space="preserve" font-family="Helvetica-Light" font-size="72.0" fill="#FEFFFF" transform="matrix(1.00, 0.00, -0.00, -1.00, 914.4, 573.0)">o</text><text xml:space="preserve" font-family="Helvetica-Light" font-size="72.0" fill="#FEFFFF" transform="matrix(1.00, 0.00, -0.00, -1.00, 954.5, 573.0)">u</text><text xml:space="preserve" font-family="Helvetica-Light" font-size="72.0" fill="#FEFFFF" transform="matrix(1.00, 0.00, -0.00, -1.00, 994.5, 573.0)"> </text><text xml:space="preserve" font-family="Helvetica-Light" font-size="72.0" fill="#FEFFFF" transform="matrix(1.00, 0.00, -0.00, -1.00, 51.0, 487.0)">f</text><text xml:space="preserve" font-family="Helvetica-Light" font-size="72.0" fill="#FEFFFF" transform="matrix(1.00, 0.00, -0.00, -1.00, 71.0, 487.0)">o</text><text xml:space="preserve" font-family="Helvetica-Light" font-size="72.0" fill="#FEFFFF" transform="matrix(1.00, 0.00, -0.00, -1.00, 111.0, 487.0)">r</text><text xml:space="preserve" font-family="Helvetica-Light" font-size="72.0" fill="#FEFFFF" transform="matrix(1.00, 0.00, -0.00, -1.00, 135.0, 487.0)"> </text><text xml:space="preserve" font-family="Helvetica-Light" font-size="72.0" fill="#FEFFFF" transform="matrix(1.00, 0.00, -0.00, -1.00, 155.0, 487.0)">h</text><text xml:space="preserve" font-family="Helvetica-Light" font-size="72.0" fill="#FEFFFF" transform="matrix(1.00, 0.00, -0.00, -1.00, 195.1, 487.0)">e</text><text xml:space="preserve" font-family="Helvetica-Light" font-size="72.0" fill="#FEFFFF" transform="matrix(1.00, 0.00, -0.00, -1.00, 235.1, 487.0)">n</text><text xml:space="preserve" font-family="Helvetica-Light" font-size="72.0" fill="#FEFFFF" transform="matrix(1.00, 0.00, -0.00, -1.00, 275.1, 487.0)">p</text><text xml:space="preserve" font-family="Helvetica-Light" font-size="72.0" fill="#FEFFFF" transform="matrix(1.00, 0.00, -0.00, -1.00, 319.1, 487.0)">i</text><text xml:space="preserve" font-family="Helvetica-Light" font-size="72.0" fill="#FEFFFF" transform="matrix(1.00, 0.00, -0.00, -1.00, 335.1, 487.0)">l</text><text xml:space="preserve" font-family="Helvetica-Light" font-size="72.0" fill="#FEFFFF" transform="matrix(1.00, 0.00, -0.00, -1.00, 351.1, 487.0)">g</text><text xml:space="preserve" font-family="Helvetica-Light" font-size="72.0" fill="#FEFFFF" transform="matrix(1.00, 0.00, -0.00, -1.00, 395.1, 487.0)"> </text><text xml:space="preserve" font-family="Helvetica-Light" font-size="72.0" fill="#FEFFFF" transform="matrix(1.00, 0.00, -0.00, -1.00, 415.1, 487.0)">t</text><text xml:space="preserve" font-family="Helvetica-Light" font-size="72.0" fill="#FEFFFF" transform="matrix(1.00, 0.00, -0.00, -1.00, 435.1, 487.0)">o</text><text xml:space="preserve" font-family="Helvetica-Light" font-size="72.0" fill="#FEFFFF" transform="matrix(1.00, 0.00, -0.00, -1.00, 475.2, 487.0)"> </text><text xml:space="preserve" font-family="Helvetica-Light" font-size="72.0" fill="#FEFFFF" transform="matrix(1.00, 0.00, -0.00, -1.00, 495.2, 487.0)">p</text><text xml:space="preserve" font-family="Helvetica-Light" font-size="72.0" fill="#FEFFFF" transform="matrix(1.00, 0.00, -0.00, -1.00, 539.2, 487.0)">v</text><text xml:space="preserve" font-family="Helvetica-Light" font-size="72.0" fill="#FEFFFF" transform="matrix(1.00, 0.00, -0.00, -1.00, 575.2, 487.0)">r</text><text xml:space="preserve" font-family="Helvetica-Light" font-size="72.0" fill="#FEFFFF" transform="matrix(1.00, 0.00, -0.00, -1.00, 597.8, 487.0)">o</text><text xml:space="preserve" font-family="Helvetica-Light" font-size="72.0" fill="#FEFFFF" transform="matrix(1.00, 0.00, -0.00, -1.00, 637.9, 487.0)">e</text><text xml:space="preserve" font-family="Helvetica-Light" font-size="72.0" fill="#FEFFFF" transform="matrix(1.00, 0.00, -0.00, -1.00, 677.9, 487.0)"> </text><text xml:space="preserve" font-family="Helvetica-Light" font-size="72.0" fill="#FEFFFF" transform="matrix(1.00, 0.00, -0.00, -1.00, 697.9, 487.0)">m</text><text xml:space="preserve" font-family="Helvetica-Light" font-size="72.0" fill="#FEFFFF" transform="matrix(1.00, 0.00, -0.00, -1.00, 757.9, 487.0)">y</text><text xml:space="preserve" font-family="Helvetica-Light" font-size="72.0" fill="#FEFFFF" transform="matrix(1.00, 0.00, -0.00, -1.00, 793.9, 487.0)"> </text><text xml:space="preserve" font-family="Helvetica-Light" font-size="72.0" fill="#FEFFFF" transform="matrix(1.00, 0.00, -0.00, -1.00, 813.9, 487.0)">p</text><text xml:space="preserve" font-family="Helvetica-Light" font-size="72.0" fill="#FEFFFF" transform="matrix(1.00, 0.00, -0.00, -1.00, 857.9, 487.0)">n</text><text xml:space="preserve" font-family="Helvetica-Light" font-size="72.0" fill="#FEFFFF" transform="matrix(1.00, 0.00, -0.00, -1.00, 897.9, 487.0)">i</text><text xml:space="preserve" font-family="Helvetica-Light" font-size="72.0" fill="#FEFFFF" transform="matrix(1.00, 0.00, -0.00, -1.00, 913.9, 487.0)">o</text><text xml:space="preserve" font-family="Helvetica-Light" font-size="72.0" fill="#FEFFFF" transform="matrix(1.00, 0.00, -0.00, -1.00, 954.0, 487.0)">t</text><text xml:space="preserve" font-family="Helvetica-Light" font-size="72.0" fill="#FEFFFF" transform="matrix(1.00, 0.00, -0.00, -1.00, 974.0, 487.0)"> </text><text xml:space="preserve" font-family="Helvetica-Light" font-size="72.0" fill="#FEFFFF" transform="matrix(1.00, 0.00, -0.00, -1.00, 102.0, 401.0)">t</text><text xml:space="preserve" font-family="Helvetica-Light" font-size="72.0" fill="#FEFFFF" transform="matrix(1.00, 0.00, -0.00, -1.00, 122.0, 401.0)">a</text><text xml:space="preserve" font-family="Helvetica-Light" font-size="72.0" fill="#FEFFFF" transform="matrix(1.00, 0.00, -0.00, -1.00, 162.0, 401.0)">h</text><text xml:space="preserve" font-family="Helvetica-Light" font-size="72.0" fill="#FEFFFF" transform="matrix(1.00, 0.00, -0.00, -1.00, 202.1, 401.0)">t</text><text xml:space="preserve" font-family="Helvetica-Light" font-size="72.0" fill="#FEFFFF" transform="matrix(1.00, 0.00, -0.00, -1.00, 222.1, 401.0)"> </text><text xml:space="preserve" font-family="Helvetica-Light" font-size="72.0" fill="#FEFFFF" transform="matrix(1.00, 0.00, -0.00, -1.00, 242.1, 401.0)">t</text><text xml:space="preserve" font-family="Helvetica-Light" font-size="72.0" fill="#FEFFFF" transform="matrix(1.00, 0.00, -0.00, -1.00, 262.1, 401.0)">h</text><text xml:space="preserve" font-family="Helvetica-Light" font-size="72.0" fill="#FEFFFF" transform="matrix(1.00, 0.00, -0.00, -1.00, 302.2, 401.0)">e</text><text xml:space="preserve" font-family="Helvetica-Light" font-size="72.0" fill="#FEFFFF" transform="matrix(1.00, 0.00, -0.00, -1.00, 342.2, 401.0)"> </text><text xml:space="preserve" font-family="Helvetica-Light" font-size="72.0" fill="#FEFFFF" transform="matrix(1.00, 0.00, -0.00, -1.00, 362.2, 401.0)">g</text><text xml:space="preserve" font-family="Helvetica-Light" font-size="72.0" fill="#FEFFFF" transform="matrix(1.00, 0.00, -0.00, -1.00, 406.2, 401.0)">a</text><text xml:space="preserve" font-family="Helvetica-Light" font-size="72.0" fill="#FEFFFF" transform="matrix(1.00, 0.00, -0.00, -1.00, 446.2, 401.0)">o</text><text xml:space="preserve" font-family="Helvetica-Light" font-size="72.0" fill="#FEFFFF" transform="matrix(1.00, 0.00, -0.00, -1.00, 486.3, 401.0)">l</text><text xml:space="preserve" font-family="Helvetica-Light" font-size="72.0" fill="#FEFFFF" transform="matrix(1.00, 0.00, -0.00, -1.00, 502.2, 401.0)"> </text><text xml:space="preserve" font-family="Helvetica-Light" font-size="72.0" fill="#FEFFFF" transform="matrix(1.00, 0.00, -0.00, -1.00, 522.3, 401.0)">s</text><text xml:space="preserve" font-family="Helvetica-Light" font-size="72.0" fill="#FEFFFF" transform="matrix(1.00, 0.00, -0.00, -1.00, 558.3, 401.0)">l</text><text xml:space="preserve" font-family="Helvetica-Light" font-size="72.0" fill="#FEFFFF" transform="matrix(1.00, 0.00, -0.00, -1.00, 574.2, 401.0)">h</text><text xml:space="preserve" font-family="Helvetica-Light" font-size="72.0" fill="#FEFFFF" transform="matrix(1.00, 0.00, -0.00, -1.00, 614.3, 401.0)">u</text><text xml:space="preserve" font-family="Helvetica-Light" font-size="72.0" fill="#FEFFFF" transform="matrix(1.00, 0.00, -0.00, -1.00, 654.3, 401.0)">o</text><text xml:space="preserve" font-family="Helvetica-Light" font-size="72.0" fill="#FEFFFF" transform="matrix(1.00, 0.00, -0.00, -1.00, 694.3, 401.0)">d</text><text xml:space="preserve" font-family="Helvetica-Light" font-size="72.0" fill="#FEFFFF" transform="matrix(1.00, 0.00, -0.00, -1.00, 738.3, 401.0)"> </text><text xml:space="preserve" font-family="Helvetica-Light" font-size="72.0" fill="#FEFFFF" transform="matrix(1.00, 0.00, -0.00, -1.00, 758.4, 401.0)">b</text><text xml:space="preserve" font-family="Helvetica-Light" font-size="72.0" fill="#FEFFFF" transform="matrix(1.00, 0.00, -0.00, -1.00, 802.3, 401.0)">e</text><text xml:space="preserve" font-family="Helvetica-Light" font-size="72.0" fill="#FEFFFF" transform="matrix(1.00, 0.00, -0.00, -1.00, 842.4, 401.0)"> </text><text xml:space="preserve" font-family="Helvetica-Light" font-size="72.0" fill="#FEFFFF" transform="matrix(1.00, 0.00, -0.00, -1.00, 862.4, 401.0)">t</text><text xml:space="preserve" font-family="Helvetica-Light" font-size="72.0" fill="#FEFFFF" transform="matrix(1.00, 0.00, -0.00, -1.00, 882.4, 401.0)">o</text><text xml:space="preserve" font-family="Helvetica-Light" font-size="72.0" fill="#FEFFFF" transform="matrix(1.00, 0.00, -0.00, -1.00, 922.4, 401.0)"> </text><text xml:space="preserve" font-family="Helvetica-Light" font-size="72.0" fill="#FEFFFF" transform="matrix(1.00, 0.00, -0.00, -1.00, 24.0, 315.0)">c</text><text xml:space="preserve" font-family="Helvetica-Light" font-size="72.0" fill="#FEFFFF" transform="matrix(1.00, 0.00, -0.00, -1.00, 64.0, 315.0)">n</text><text xml:space="preserve" font-family="Helvetica-Light" font-size="72.0" fill="#FEFFFF" transform="matrix(1.00, 0.00, -0.00, -1.00, 104.1, 315.0)">o</text><text xml:space="preserve" font-family="Helvetica-Light" font-size="72.0" fill="#FEFFFF" transform="matrix(1.00, 0.00, -0.00, -1.00, 144.1, 315.0)">e</text><text xml:space="preserve" font-family="Helvetica-Light" font-size="72.0" fill="#FEFFFF" transform="matrix(1.00, 0.00, -0.00, -1.00, 184.1, 315.0)">v</text><text xml:space="preserve" font-family="Helvetica-Light" font-size="72.0" fill="#FEFFFF" transform="matrix(1.00, 0.00, -0.00, -1.00, 220.1, 315.0)">y</text><text xml:space="preserve" font-family="Helvetica-Light" font-size="72.0" fill="#FEFFFF" transform="matrix(1.00, 0.00, -0.00, -1.00, 256.1, 315.0)"> </text><text xml:space="preserve" font-family="Helvetica-Light" font-size="72.0" fill="#FEFFFF" transform="matrix(1.00, 0.00, -0.00, -1.00, 276.1, 315.0)">t</text><text xml:space="preserve" font-family="Helvetica-Light" font-size="72.0" fill="#FEFFFF" transform="matrix(1.00, 0.00, -0.00, -1.00, 296.2, 315.0)">h</text><text xml:space="preserve" font-family="Helvetica-Light" font-size="72.0" fill="#FEFFFF" transform="matrix(1.00, 0.00, -0.00, -1.00, 336.2, 315.0)">e</text><text xml:space="preserve" font-family="Helvetica-Light" font-size="72.0" fill="#FEFFFF" transform="matrix(1.00, 0.00, -0.00, -1.00, 376.2, 315.0)"> </text><text xml:space="preserve" font-family="Helvetica-Light" font-size="72.0" fill="#FEFFFF" transform="matrix(1.00, 0.00, -0.00, -1.00, 396.2, 315.0)">m</text><text xml:space="preserve" font-family="Helvetica-Light" font-size="72.0" fill="#FEFFFF" transform="matrix(1.00, 0.00, -0.00, -1.00, 456.2, 315.0)">e</text><text xml:space="preserve" font-family="Helvetica-Light" font-size="72.0" fill="#FEFFFF" transform="matrix(1.00, 0.00, -0.00, -1.00, 496.2, 315.0)">s</text><text xml:space="preserve" font-family="Helvetica-Light" font-size="72.0" fill="#FEFFFF" transform="matrix(1.00, 0.00, -0.00, -1.00, 532.2, 315.0)">g</text><text xml:space="preserve" font-family="Helvetica-Light" font-size="72.0" fill="#FEFFFF" transform="matrix(1.00, 0.00, -0.00, -1.00, 576.2, 315.0)">a</text><text xml:space="preserve" font-family="Helvetica-Light" font-size="72.0" fill="#FEFFFF" transform="matrix(1.00, 0.00, -0.00, -1.00, 616.3, 315.0)">s</text><text xml:space="preserve" font-family="Helvetica-Light" font-size="72.0" fill="#FEFFFF" transform="matrix(1.00, 0.00, -0.00, -1.00, 652.3, 315.0)">e</text><text xml:space="preserve" font-family="Helvetica-Light" font-size="72.0" fill="#FEFFFF" transform="matrix(1.00, 0.00, -0.00, -1.00, 692.3, 315.0)">,</text><text xml:space="preserve" font-family="Helvetica-Light" font-size="72.0" fill="#FEFFFF" transform="matrix(1.00, 0.00, -0.00, -1.00, 712.3, 315.0)"> </text><text xml:space="preserve" font-family="Helvetica-Light" font-size="72.0" fill="#FEFFFF" transform="matrix(1.00, 0.00, -0.00, -1.00, 732.3, 315.0)">e</text><text xml:space="preserve" font-family="Helvetica-Light" font-size="72.0" fill="#FEFFFF" transform="matrix(1.00, 0.00, -0.00, -1.00, 772.4, 315.0)">e</text><text xml:space="preserve" font-family="Helvetica-Light" font-size="72.0" fill="#FEFFFF" transform="matrix(1.00, 0.00, -0.00, -1.00, 812.4, 315.0)">v</text><text xml:space="preserve" font-family="Helvetica-Light" font-size="72.0" fill="#FEFFFF" transform="matrix(1.00, 0.00, -0.00, -1.00, 848.4, 315.0)">n</text><text xml:space="preserve" font-family="Helvetica-Light" font-size="72.0" fill="#FEFFFF" transform="matrix(1.00, 0.00, -0.00, -1.00, 888.4, 315.0)"> </text><text xml:space="preserve" font-family="Helvetica-Light" font-size="72.0" fill="#FEFFFF" transform="matrix(1.00, 0.00, -0.00, -1.00, 908.4, 315.0)">i</text><text xml:space="preserve" font-family="Helvetica-Light" font-size="72.0" fill="#FEFFFF" transform="matrix(1.00, 0.00, -0.00, -1.00, 924.4, 315.0)">f</text><text xml:space="preserve" font-family="Helvetica-Light" font-size="72.0" fill="#FEFFFF" transform="matrix(1.00, 0.00, -0.00, -1.00, 944.4, 315.0)"> </text><text xml:space="preserve" font-family="Helvetica-Light" font-size="72.0" fill="#FEFFFF" transform="matrix(1.00, 0.00, -0.00, -1.00, 964.5, 315.0)">i</text><text xml:space="preserve" font-family="Helvetica-Light" font-size="72.0" fill="#FEFFFF" transform="matrix(1.00, 0.00, -0.00, -1.00, 980.4, 315.0)">t</text><text xml:space="preserve" font-family="Helvetica-Light" font-size="72.0" fill="#FEFFFF" transform="matrix(1.00, 0.00, -0.00, -1.00, 1000.5, 315.0)"> </text><text xml:space="preserve" font-family="Helvetica-Light" font-size="72.0" fill="#FEFFFF" transform="matrix(1.00, 0.00, -0.00, -1.00, 12.0, 229.0)">i</text><text xml:space="preserve" font-family="Helvetica-Light" font-size="72.0" fill="#FEFFFF" transform="matrix(1.00, 0.00, -0.00, -1.00, 28.0, 229.0)">s</text><text xml:space="preserve" font-family="Helvetica-Light" font-size="72.0" fill="#FEFFFF" transform="matrix(1.00, 0.00, -0.00, -1.00, 64.0, 229.0)"> </text><text xml:space="preserve" font-family="Helvetica-Light" font-size="72.0" fill="#FEFFFF" transform="matrix(1.00, 0.00, -0.00, -1.00, 84.0, 229.0)">n</text><text xml:space="preserve" font-family="Helvetica-Light" font-size="72.0" fill="#FEFFFF" transform="matrix(1.00, 0.00, -0.00, -1.00, 124.0, 229.0)">o</text><text xml:space="preserve" font-family="Helvetica-Light" font-size="72.0" fill="#FEFFFF" transform="matrix(1.00, 0.00, -0.00, -1.00, 164.1, 229.0)">t</text><text xml:space="preserve" font-family="Helvetica-Light" font-size="72.0" fill="#FEFFFF" transform="matrix(1.00, 0.00, -0.00, -1.00, 184.1, 229.0)"> </text><text xml:space="preserve" font-family="Helvetica-Light" font-size="72.0" fill="#FEFFFF" transform="matrix(1.00, 0.00, -0.00, -1.00, 204.1, 229.0)">p</text><text xml:space="preserve" font-family="Helvetica-Light" font-size="72.0" fill="#FEFFFF" transform="matrix(1.00, 0.00, -0.00, -1.00, 248.1, 229.0)">f</text><text xml:space="preserve" font-family="Helvetica-Light" font-size="72.0" fill="#FEFFFF" transform="matrix(1.00, 0.00, -0.00, -1.00, 268.1, 229.0)">c</text><text xml:space="preserve" font-family="Helvetica-Light" font-size="72.0" fill="#FEFFFF" transform="matrix(1.00, 0.00, -0.00, -1.00, 308.1, 229.0)">e</text><text xml:space="preserve" font-family="Helvetica-Light" font-size="72.0" fill="#FEFFFF" transform="matrix(1.00, 0.00, -0.00, -1.00, 348.2, 229.0)">r</text><text xml:space="preserve" font-family="Helvetica-Light" font-size="72.0" fill="#FEFFFF" transform="matrix(1.00, 0.00, -0.00, -1.00, 370.8, 229.0)">e</text><text xml:space="preserve" font-family="Helvetica-Light" font-size="72.0" fill="#FEFFFF" transform="matrix(1.00, 0.00, -0.00, -1.00, 410.9, 229.0)">t</text><text xml:space="preserve" font-family="Helvetica-Light" font-size="72.0" fill="#FEFFFF" transform="matrix(1.00, 0.00, -0.00, -1.00, 430.9, 229.0)">,</text><text xml:space="preserve" font-family="Helvetica-Light" font-size="72.0" fill="#FEFFFF" transform="matrix(1.00, 0.00, -0.00, -1.00, 450.9, 229.0)"> </text><text xml:space="preserve" font-family="Helvetica-Light" font-size="72.0" fill="#FEFFFF" transform="matrix(1.00, 0.00, -0.00, -1.00, 470.9, 229.0)">b</text><text xml:space="preserve" font-family="Helvetica-Light" font-size="72.0" fill="#FEFFFF" transform="matrix(1.00, 0.00, -0.00, -1.00, 514.9, 229.0)">e</text><text xml:space="preserve" font-family="Helvetica-Light" font-size="72.0" fill="#FEFFFF" transform="matrix(1.00, 0.00, -0.00, -1.00, 555.0, 229.0)">s</text><text xml:space="preserve" font-family="Helvetica-Light" font-size="72.0" fill="#FEFFFF" transform="matrix(1.00, 0.00, -0.00, -1.00, 591.0, 229.0)">a</text><text xml:space="preserve" font-family="Helvetica-Light" font-size="72.0" fill="#FEFFFF" transform="matrix(1.00, 0.00, -0.00, -1.00, 631.0, 229.0)">c</text><text xml:space="preserve" font-family="Helvetica-Light" font-size="72.0" fill="#FEFFFF" transform="matrix(1.00, 0.00, -0.00, -1.00, 671.0, 229.0)">u</text><text xml:space="preserve" font-family="Helvetica-Light" font-size="72.0" fill="#FEFFFF" transform="matrix(1.00, 0.00, -0.00, -1.00, 711.0, 229.0)">e</text><text xml:space="preserve" font-family="Helvetica-Light" font-size="72.0" fill="#FEFFFF" transform="matrix(1.00, 0.00, -0.00, -1.00, 751.1, 229.0)"> </text><text xml:space="preserve" font-family="Helvetica-Light" font-size="72.0" fill="#FEFFFF" transform="matrix(1.00, 0.00, -0.00, -1.00, 771.1, 229.0)">n</text><text xml:space="preserve" font-family="Helvetica-Light" font-size="72.0" fill="#FEFFFF" transform="matrix(1.00, 0.00, -0.00, -1.00, 811.1, 229.0)">h</text><text xml:space="preserve" font-family="Helvetica-Light" font-size="72.0" fill="#FEFFFF" transform="matrix(1.00, 0.00, -0.00, -1.00, 851.2, 229.0)">t</text><text xml:space="preserve" font-family="Helvetica-Light" font-size="72.0" fill="#FEFFFF" transform="matrix(1.00, 0.00, -0.00, -1.00, 871.2, 229.0)">n</text><text xml:space="preserve" font-family="Helvetica-Light" font-size="72.0" fill="#FEFFFF" transform="matrix(1.00, 0.00, -0.00, -1.00, 911.2, 229.0)">i</text><text xml:space="preserve" font-family="Helvetica-Light" font-size="72.0" fill="#FEFFFF" transform="matrix(1.00, 0.00, -0.00, -1.00, 927.2, 229.0)">o</text><text xml:space="preserve" font-family="Helvetica-Light" font-size="72.0" fill="#FEFFFF" transform="matrix(1.00, 0.00, -0.00, -1.00, 967.2, 229.0)">g</text><text xml:space="preserve" font-family="Helvetica-Light" font-size="72.0" fill="#FEFFFF" transform="matrix(1.00, 0.00, -0.00, -1.00, 1011.2, 229.0)"> </text><text xml:space="preserve" font-family="Helvetica-Light" font-size="72.0" fill="#FEFFFF" transform="matrix(1.00, 0.00, -0.00, -1.00, 406.0, 143.0)">e</text><text xml:space="preserve" font-family="Helvetica-Light" font-size="72.0" fill="#FEFFFF" transform="matrix(1.00, 0.00, -0.00, -1.00, 446.0, 143.0)">e</text><text xml:space="preserve" font-family="Helvetica-Light" font-size="72.0" fill="#FEFFFF" transform="matrix(1.00, 0.00, -0.00, -1.00, 486.1, 143.0)">v</text><text xml:space="preserve" font-family="Helvetica-Light" font-size="72.0" fill="#FEFFFF" transform="matrix(1.00, 0.00, -0.00, -1.00, 522.1, 143.0)">r</text><text xml:space="preserve" font-family="Helvetica-Light" font-size="72.0" fill="#FEFFFF" transform="matrix(1.00, 0.00, -0.00, -1.00, 546.0, 143.0)"> </text><text xml:space="preserve" font-family="Helvetica-Light" font-size="72.0" fill="#FEFFFF" transform="matrix(1.00, 0.00, -0.00, -1.00, 566.1, 143.0)">i</text><text xml:space="preserve" font-family="Helvetica-Light" font-size="72.0" fill="#FEFFFF" transform="matrix(1.00, 0.00, -0.00, -1.00, 582.0, 143.0)">s</text></g></svg>