<?xml version="1.0" encoding="UTF-8" standalone="no"?><svg xmlns="http://www.w3.org/2000/svg" xmlns:xlink="http://www.w3.org/1999/xlink" clip-rule="evenodd" stroke-miterlimit="4.00" viewBox="0 0 1024 768"><desc>SVG generated by Keynote</desc><defs></defs><g transform="matrix(1.00, 0.00, -0.00, -1.00, 0.0, 768.0)"><path d="M 0.0 768.0 L 1024.0 768.0 L 1024.0 0.0 L 0.0 0.0 Z M 0.0 768.0 " fill="#000000"></path><text xml:space="preserve" font-family="Helvetica-Light" font-size="105.1" fill="#FEFFFF" transform="matrix(1.00, 0.00, -0.00, -1.00, 331.0, 642.0)">U</text><text xml:space="preserve" font-family="Helvetica-Light" font-size="105.1" fill="#FEFFFF" transform="matrix(1.00, 0.00, -0.00, -1.00, 406.9, 642.0)">s</text><text xml:space="preserve" font-family="Helvetica-Light" font-size="105.1" fill="#FEFFFF" transform="matrix(1.00, 0.00, -0.00, -1.00, 459.5, 642.0)">e</text><text xml:space="preserve" font-family="Helvetica-Light" font-size="105.1" fill="#FEFFFF" transform="matrix(1.00, 0.00, -0.00, -1.00, 517.9, 642.0)"> </text><text xml:space="preserve" font-family="Helvetica-Light" font-size="105.1" fill="#FEFFFF" transform="matrix(1.00, 0.00, -0.00, -1.00, 547.1, 642.0)">t</text><text xml:space="preserve" font-family="Helvetica-Light" font-size="105.1" fill="#FEFFFF" transform="matrix(1.00, 0.00, -0.00, -1.00, 576.4, 642.0)">h</text><text xml:space="preserve" font-family="Helvetica-Light" font-size="105.1" fill="#FEFFFF" transform="matrix(1.00, 0.00, -0.00, -1.00, 634.8, 642.0)">e</text><text xml:space="preserve" font-family="Helvetica-Light" font-size="105.1" fill="#FEFFFF" transform="matrix(1.00, 0.00, -0.00, -1.00, 693.2, 642.0)"> </text><text xml:space="preserve" font-family="Helvetica-Bold" font-weight="bold" font-size="105.1" fill="#FF2600" transform="matrix(1.00, 0.00, -0.00, -1.00, 141.0, 516.0)">O</text><text xml:space="preserve" font-family="Helvetica-Bold" font-weight="bold" font-size="105.1" fill="#FF2600" transform="matrix(1.00, 0.00, -0.00, -1.00, 222.7, 516.0)">x</text><text xml:space="preserve" font-family="Helvetica-Bold" font-weight="bold" font-size="105.1" fill="#FF2600" transform="matrix(1.00, 0.00, -0.00, -1.00, 281.2, 516.0)">f</text><text xml:space="preserve" font-family="Helvetica-Bold" font-weight="bold" font-size="105.1" fill="#FF2600" transform="matrix(1.00, 0.00, -0.00, -1.00, 316.2, 516.0)">o</text><text xml:space="preserve" font-family="Helvetica-Bold" font-weight="bold" font-size="105.1" fill="#FF2600" transform="matrix(1.00, 0.00, -0.00, -1.00, 380.4, 516.0)">r</text><text xml:space="preserve" font-family="Helvetica-Bold" font-weight="bold" font-size="105.1" fill="#FF2600" transform="matrix(1.00, 0.00, -0.00, -1.00, 421.4, 516.0)">d</text><text xml:space="preserve" font-family="Helvetica-Bold" font-weight="bold" font-size="105.1" fill="#FF2600" transform="matrix(1.00, 0.00, -0.00, -1.00, 485.5, 516.0)"> </text><text xml:space="preserve" font-family="Helvetica-Bold" font-weight="bold" font-size="105.1" fill="#FF2600" transform="matrix(1.00, 0.00, -0.00, -1.00, 514.7, 516.0)">c</text><text xml:space="preserve" font-family="Helvetica-Bold" font-weight="bold" font-size="105.1" fill="#FF2600" transform="matrix(1.00, 0.00, -0.00, -1.00, 573.2, 516.0)">o</text><text xml:space="preserve" font-family="Helvetica-Bold" font-weight="bold" font-size="105.1" fill="#FF2600" transform="matrix(1.00, 0.00, -0.00, -1.00, 637.4, 516.0)">m</text><text xml:space="preserve" font-family="Helvetica-Bold" font-weight="bold" font-size="105.1" fill="#FF2600" transform="matrix(1.00, 0.00, -0.00, -1.00, 730.9, 516.0)">m</text><text xml:space="preserve" font-family="Helvetica-Bold" font-weight="bold" font-size="105.1" fill="#FF2600" transform="matrix(1.00, 0.00, -0.00, -1.00, 824.4, 516.0)">a</text></g></svg>